<svg width="149" height="90" viewBox="0 0 149 90" fill="none" xmlns="http://www.w3.org/2000/svg">
<path d="M103.364 64.2709C101.504 62.4102 99.1777 61.4023 96.4643 61.4023C93.8283 61.4023 91.5025 62.3327 89.5643 64.2709C87.7037 66.1315 86.6958 68.4574 86.6958 71.1708C86.6958 73.8067 87.6261 76.1326 89.5643 78.0708C91.425 79.9314 93.7508 80.9393 96.4643 80.9393C99.1002 80.9393 101.426 80.0089 103.364 78.0708C105.225 76.2101 106.233 73.8843 106.233 71.1708C106.233 68.5349 105.302 66.2091 103.364 64.2709ZM96.5418 77.9932C94.6811 77.9932 93.0531 77.373 91.7351 75.9775C90.4171 74.6595 89.7194 73.0315 89.7194 71.1708C89.7194 69.3102 90.3396 67.6821 91.7351 66.3641C93.0531 65.0461 94.6811 64.3484 96.5418 64.3484C98.4025 64.3484 100.031 64.9686 101.349 66.3641C102.666 67.6821 103.364 69.3102 103.364 71.1708C103.364 73.0315 102.744 74.6595 101.349 75.9775C100.031 77.2955 98.4025 77.9932 96.5418 77.9932Z" fill="#F9F9F9"/>
<path d="M74.8343 61.7896C72.4309 61.7896 70.1826 62.7975 68.477 64.4255V62.875C68.477 62.0997 67.8568 61.4795 67.0815 61.4795C66.3063 61.4795 65.686 62.0997 65.686 62.875V87.9939C65.686 88.8467 66.2287 89.3894 67.0815 89.3894C67.4692 89.3894 67.7793 89.2343 68.0894 89.0018C68.322 88.6916 68.477 88.3815 68.477 87.9939V78.3805C70.1051 80.0086 72.5085 80.9389 74.8343 80.9389C80.0286 80.9389 83.9825 76.4423 83.9825 71.3255C83.9825 66.2087 80.1062 61.7896 74.8343 61.7896ZM74.8343 78.0704C71.268 78.0704 68.477 74.8917 68.477 71.403C68.477 67.8367 71.113 64.7356 74.8343 64.6581C78.4781 64.6581 81.114 67.6817 81.114 71.3255C81.114 74.7367 78.4781 77.9928 74.8343 78.0704Z" fill="#F9F9F9"/>
<path d="M37.7762 61.4795H35.683H34.7526C32.5043 61.6345 30.6437 62.7975 29.7134 64.2705V62.875C29.7134 62.0997 29.0931 61.4795 28.3179 61.4795C27.5426 61.4795 26.9224 62.0997 26.9224 62.875V79.4659C26.9224 80.2411 27.5426 80.8614 28.3179 80.8614C29.0931 80.8614 29.7134 80.2411 29.7134 79.4659V71.0929C29.7134 71.0154 29.7134 70.9378 29.7134 70.9378C29.7134 70.8603 29.7134 70.7828 29.7134 70.7828C29.7134 67.4491 32.2718 64.6581 35.6054 64.348C35.6054 64.348 35.6054 64.348 35.838 64.348C35.9156 64.348 35.9931 64.348 36.1481 64.348C36.6133 64.348 37.4661 64.348 37.6212 64.348C38.3964 64.348 39.0167 63.7278 39.0167 62.9525C39.1717 62.0997 38.5515 61.4795 37.7762 61.4795Z" fill="#F9F9F9"/>
<path d="M148.486 67.3715C148.563 66.9838 148.486 66.5962 148.253 66.2861C146.702 63.6502 143.834 62.0996 140.733 62.0996C135.616 62.0996 131.662 66.4411 131.662 71.4804C131.662 76.4422 135.461 80.9388 140.655 80.9388C143.601 80.9388 146.315 79.4658 148.02 76.9849C148.253 76.5973 148.408 76.2871 148.253 75.8995C148.02 75.2018 147.4 74.8141 146.625 74.8141C146.237 74.8916 145.927 75.0467 145.695 75.4343C144.532 77.0624 142.671 78.0703 140.655 78.0703C138.795 78.0703 137.167 77.2175 136.081 75.977L147.788 68.3018C148.175 67.9917 148.408 67.7591 148.486 67.3715ZM134.763 73.4186C134.608 72.7984 134.453 72.1007 134.453 71.4029C134.453 67.9917 137.089 64.8131 140.733 64.8131C142.361 64.8131 143.756 65.4333 144.997 66.5962L134.763 73.4186Z" fill="#F9F9F9"/>
<path d="M22.2706 67.6817C21.9605 67.4492 21.6504 67.2941 21.2627 67.2941H12.9673C12.5796 67.2941 12.2695 67.4492 11.9594 67.6817C11.7268 67.9919 11.5718 68.302 11.5718 68.6896C11.5718 69.0772 11.7268 69.3873 11.9594 69.6975C12.192 70.0076 12.5796 70.0851 12.9673 70.0851H18.5493C18.5493 70.0851 19.092 70.0851 19.5571 70.4727C20.0223 70.9379 19.9448 71.5581 19.9448 71.5581V74.9693C19.9448 74.9693 19.9448 75.357 19.7897 75.5895C19.6346 75.8221 19.4796 75.9772 19.3245 76.0547C18.5493 76.6749 17.6189 77.1401 16.6886 77.4502C15.5257 77.8378 14.2852 78.0704 13.0448 78.0704C11.6493 78.0704 10.4089 77.7603 9.16843 77.2951C8.00552 76.7525 6.92013 76.0547 6.06733 75.1244C5.21453 74.1941 4.51678 73.1087 3.97409 71.9458C3.50892 70.7828 3.19881 69.4649 3.19881 68.1469C3.19881 66.7514 3.4314 65.4334 3.97409 64.193C4.51678 62.9526 5.21453 61.9447 6.14486 61.0144C7.07519 60.1616 8.08305 59.3863 9.32349 58.9211C10.4864 58.3784 11.8044 58.1459 13.1223 58.1459C14.3628 58.1459 15.6807 58.3784 16.9212 58.9211C18.1616 59.3863 19.247 60.1616 20.2549 61.0919C20.565 61.402 20.8751 61.4795 21.1852 61.4795C21.3403 61.4795 21.5728 61.402 21.7279 61.402C21.8829 61.3245 22.038 61.247 22.1931 61.0919C22.3481 60.9369 22.4256 60.8593 22.5032 60.6267C22.5807 60.4717 22.6582 60.3166 22.6582 60.084C22.6582 59.7739 22.5032 59.3863 22.2706 59.0762C21.0301 57.8357 19.5571 56.8279 18.0841 56.2077C16.5335 55.5875 14.9055 55.2773 13.1999 55.2773C12.0369 55.2773 10.874 55.4324 9.78865 55.7425C8.70327 56.0526 7.69541 56.5178 6.76508 57.0605C5.83475 57.6032 4.98195 58.3009 4.20667 59.0762C3.4314 59.8515 2.81118 60.7043 2.26848 61.6346C1.72579 62.5649 1.33815 63.5728 1.02804 64.6582C0.640407 65.8986 0.485352 66.984 0.485352 68.1469C0.485352 69.3098 0.640407 70.4727 0.950517 71.4806C1.26063 72.6435 1.64826 73.6514 2.19096 74.5817C2.73365 75.512 3.4314 76.3648 4.12914 77.1401C4.90442 77.9154 5.75722 78.6131 6.68755 79.1558C7.61788 79.6985 8.62574 80.1637 9.71112 80.4738C10.7965 80.7839 11.8819 80.9389 13.0448 80.9389C14.6729 80.9389 16.301 80.6288 17.8515 80.0861C19.4021 79.5435 20.8751 78.5356 22.2706 77.2951C22.4256 77.1401 22.5032 76.985 22.6582 76.83C22.7357 76.6749 22.8133 76.4424 22.8133 76.2098V68.7671C22.7357 68.302 22.5807 67.9919 22.2706 67.6817Z" fill="#F9F9F9"/>
<path d="M61.4219 62.875C61.4219 62.0997 60.8017 61.4795 60.0264 61.4795C59.2512 61.4795 58.6309 62.0997 58.6309 62.875V71.403C58.6309 74.8142 55.995 77.9928 52.4287 77.9928C49.9479 77.9928 47.622 76.3648 46.7692 74.0389C46.4591 73.2637 46.2265 72.4109 46.2265 71.4805V62.875C46.2265 62.0997 45.6063 61.4795 44.831 61.4795C44.0558 61.4795 43.4355 62.0997 43.4355 62.875V71.5581C43.4355 76.4423 47.3894 80.9389 52.4287 80.8614C57.5456 80.8614 61.4219 76.5198 61.4219 71.403V62.875Z" fill="#F9F9F9"/>
<path d="M131.662 54.5791H123.521C120.73 54.5791 118.25 56.9049 118.25 59.851V79.4654V79.5429C118.327 80.3182 118.87 80.8609 119.645 80.8609C120.42 80.8609 121.041 80.2407 121.041 79.4654C121.041 79.4654 121.041 71.2475 121.041 70.6273C121.041 69.9295 121.506 69.2318 122.436 69.2318C122.436 69.2318 122.436 69.2318 122.514 69.2318H127.475C128.251 69.2318 128.871 68.6116 128.871 67.8363C128.871 67.061 128.251 66.4408 127.475 66.4408H122.514C122.436 66.4408 122.436 66.4408 122.436 66.4408C121.816 66.4408 121.041 65.8981 121.041 65.0453C121.041 64.6577 121.041 60.0836 121.041 60.0836C121.041 58.533 122.281 57.3701 123.754 57.3701H131.662C132.437 57.3701 133.057 56.7499 133.057 55.9746C133.057 55.1993 132.437 54.5791 131.662 54.5791Z" fill="#F9F9F9"/>
<path d="M76.6173 35.9724C78.6331 35.1971 80.2611 33.8016 81.3465 32.096C81.8892 31.2432 82.1993 30.3129 82.4319 29.3825C82.6645 28.4522 82.742 27.5219 82.6645 26.5915C82.587 25.6612 82.2769 24.8084 81.8117 24.0331C81.6566 23.6455 81.4241 23.2579 81.1915 22.8702C81.1139 22.7152 80.9589 22.4826 80.8814 22.3275C80.7263 22.1725 80.6488 21.9399 80.5713 21.7848C80.4937 21.5522 80.3387 21.3972 80.1836 21.2421C80.1061 21.0096 79.951 20.8545 79.796 20.6994C79.5634 20.3118 79.2533 19.9242 78.9432 19.6141C78.323 18.8388 77.5477 18.141 76.6949 17.2882C76.6173 17.2107 76.6173 17.0557 76.6949 16.9781L76.7724 16.9006C78.0128 16.5905 79.3308 16.7455 80.4937 17.2107C81.1139 17.4433 81.6566 17.7534 82.1993 18.0635C82.5094 18.2186 82.742 18.4511 82.9746 18.6837L83.3622 18.9938C83.5173 19.0714 83.5948 19.2264 83.7499 19.3039C84.6802 20.2343 85.3004 21.4747 85.6105 22.7927C85.9207 24.1107 85.9207 25.4286 85.8431 26.6691C85.7656 27.9095 85.4555 29.1499 84.9128 30.3129C84.3701 31.4758 83.6724 32.4836 82.8196 33.3364C81.1139 35.042 78.8656 36.1274 76.6173 36.36C76.5398 36.36 76.3848 36.2825 76.3848 36.2049C76.5398 36.1274 76.5398 35.9724 76.6173 35.9724Z" fill="#F9F9F9"/>
<path d="M72.1206 17.2886C70.1824 18.1414 68.5544 19.5369 67.5465 21.2425C67.0038 22.0953 66.6937 22.9481 66.4611 23.8785C66.2285 24.8088 66.151 25.7391 66.3061 26.5919C66.3836 27.5223 66.6937 28.3751 67.1589 29.1503C67.2364 29.3054 67.3139 29.538 67.469 29.693C67.5465 29.8481 67.624 30.0807 67.7791 30.2357C67.8566 30.3908 68.0117 30.6234 68.0892 30.7784C68.1667 30.9335 68.3218 31.166 68.3993 31.3211L68.4768 31.4762L68.5544 31.6312L68.7094 31.9413L68.8645 32.2514L69.0195 32.5615C69.2521 32.9492 69.5622 33.3368 69.8723 33.6469C70.4926 34.4222 71.1903 35.12 72.1206 35.9728C72.1982 36.0503 72.1982 36.2053 72.1206 36.2829L72.0431 36.3604C70.8027 36.6705 69.5622 36.5154 68.3218 36.0503C67.7016 35.8177 67.1589 35.5076 66.6162 35.1975C66.4611 35.12 66.3836 35.0424 66.2285 34.8874L65.8409 34.5773L65.4533 34.2671L65.2982 34.1121L65.1432 33.957C64.2128 33.0267 63.5926 31.7863 63.2825 30.5458C62.9724 29.3054 62.9724 27.9874 63.0499 26.747C63.1274 25.5065 63.4375 24.2661 63.9027 23.1032C64.3679 21.9403 65.0656 20.9324 65.9184 20.0796C67.5465 18.374 69.7948 17.2111 71.9656 16.9785C72.0431 16.9785 72.1982 17.056 72.1982 17.1336C72.1982 17.2111 72.1982 17.2886 72.1206 17.2886Z" fill="#F9F9F9"/>
<path d="M84.8355 12.8694C81.3468 10.6211 77.2378 9.76832 73.3614 10.2335C71.4232 10.4661 69.5626 11.0863 67.857 11.9391C66.1514 12.7919 64.6008 13.9548 63.3604 15.3503C62.1199 16.7458 61.1121 18.3739 60.4919 20.0795C59.8716 21.7851 59.4065 23.5682 59.1739 25.3514C58.9413 27.1345 58.9413 29.0727 59.1739 30.9333C59.4065 32.8715 59.9492 34.7322 60.7244 36.7479C60.802 36.8254 60.7244 36.9805 60.5694 37.058C60.4919 37.058 60.4143 37.058 60.3368 37.058C58.6312 35.74 57.2357 33.8794 56.3829 31.7861C55.4526 29.6929 55.0649 27.3671 55.0649 25.1188C55.1425 22.7929 55.6852 20.4671 56.7705 18.4514C57.8559 16.4357 59.329 14.575 60.957 13.102C62.5851 11.5515 64.5233 10.311 66.6165 9.53574C68.7098 8.68294 70.8805 8.2953 73.1288 8.21777C75.2996 8.21777 77.4704 8.52788 79.4861 9.30316C79.9513 9.53574 80.494 9.6908 80.9591 9.92338C81.4243 10.156 81.8895 10.3885 82.3546 10.6987L83.6726 11.5515L84.913 12.5593C84.9906 12.6368 84.9906 12.7919 84.913 12.8694C85.0681 12.8694 84.913 12.947 84.8355 12.8694Z" fill="#F9F9F9"/>
<path d="M63.9027 40.1592L65.2206 40.9345L66.6161 41.6322L68.0891 42.1749L69.5622 42.5626C71.5779 43.0278 73.5936 43.1053 75.5318 42.8727C77.47 42.6401 79.4082 42.0199 81.1138 41.1671C82.8194 40.3143 84.3699 39.0738 85.6879 37.6783C87.0059 36.2829 87.9362 34.5772 88.5564 32.7941C89.1766 31.011 89.6418 29.2278 89.8744 27.3672C90.107 25.5065 90.0294 23.5683 89.7193 21.7077C89.4092 19.7695 88.789 17.8313 87.9362 15.8931C87.8587 15.8156 87.9362 15.6605 88.0137 15.583C88.0912 15.583 88.1688 15.583 88.2463 15.583C90.0294 16.901 91.4249 18.7616 92.4328 20.8549C93.3631 22.9481 93.9058 25.2739 93.9058 27.5998C93.9058 29.9256 93.2856 32.329 92.2777 34.4222C91.1923 36.5154 89.7193 38.3761 88.0137 39.9266C86.3081 41.4772 84.3699 42.7176 82.2767 43.5704C80.1834 44.4232 77.9351 44.8109 75.6868 44.8884C73.4385 44.8884 71.2678 44.5008 69.1745 43.7255C68.7094 43.4929 68.1667 43.3379 67.7015 43.1053C67.2363 42.8727 66.7712 42.5626 66.306 42.33L64.988 41.3997L63.7476 40.3918C63.6701 40.3143 63.6701 40.1592 63.7476 40.0817C63.6701 40.1592 63.8251 40.0817 63.9027 40.1592Z" fill="#F9F9F9"/>
<path d="M93.2859 42.175C94.2163 40.9345 94.9915 39.6941 95.6118 38.3761C96.3095 37.0581 96.8522 35.6627 97.2398 34.2672C98.0926 31.3986 98.3252 28.4526 98.0926 25.5841C97.8601 22.7156 97.0848 19.847 95.8443 17.2886C94.6039 14.7302 92.8983 12.4044 90.805 10.4662C88.7118 8.52802 86.3085 7.055 83.6725 6.04714C81.0366 5.03929 78.3231 4.41907 75.6097 4.18648C72.7411 3.79885 69.9502 3.9539 67.1592 4.65165C64.3682 5.27187 61.6547 6.35726 58.9412 7.83028C58.8637 7.90781 58.7087 7.83028 58.6311 7.75275C58.5536 7.67522 58.6311 7.59769 58.6311 7.52017C60.6469 5.11682 63.2828 3.17863 66.2288 1.93819C69.1749 0.62022 72.431 0 75.7647 0C77.3928 0 79.0209 0.232583 80.6489 0.62022C81.4242 0.775275 82.1995 1.08538 82.9748 1.31797C83.75 1.62808 84.5253 1.93819 85.2231 2.2483C88.1691 3.72132 90.8051 5.73703 93.0533 8.06286C95.3016 10.3887 97.0073 13.1797 98.2477 16.1257C99.4106 19.0718 100.031 22.2504 100.108 25.429C100.186 31.7087 97.7825 37.9885 93.596 42.4851C93.5185 42.5626 93.3635 42.5626 93.2859 42.4851C93.2084 42.4075 93.2084 42.2525 93.2859 42.175Z" fill="#F9F9F9"/>
<path d="M55.6847 11.0093C54.7544 12.2497 53.9791 13.4901 53.3589 14.8081C52.6611 16.1261 52.1184 17.5216 51.7308 18.9171C50.878 21.7856 50.6454 24.7316 50.878 27.6001C51.1106 30.4687 51.8859 33.3372 53.2038 35.8956C54.4443 38.454 56.1499 40.7798 58.2431 42.718C60.3364 44.6562 62.7397 46.1292 65.3756 47.1371C67.934 48.1449 70.6475 48.7652 73.4385 48.9977C76.2295 49.2303 79.0205 49.0753 81.8115 48.455C84.6025 47.8348 87.3159 46.7494 90.0294 45.2764C90.1069 45.1989 90.262 45.2764 90.3395 45.3539C90.417 45.4315 90.3395 45.509 90.3395 45.5865C88.3238 47.9899 85.6878 49.9281 82.7418 51.1685C79.7958 52.4865 76.5396 53.1067 73.2059 53.1067C71.5778 53.1067 69.9498 52.8741 68.3217 52.4865C67.5464 52.3314 66.7711 52.0213 65.9959 51.7887C65.2206 51.4786 64.4453 51.1685 63.7476 50.8584C60.8015 49.3854 58.1656 47.3697 55.9948 45.0438C53.7465 42.718 52.0409 39.927 50.8005 36.981C49.6376 34.0349 49.0173 30.8563 48.9398 27.6777C48.8623 21.3979 51.2656 15.1182 55.4521 10.6216C55.5296 10.5441 55.6847 10.5441 55.7622 10.6216C55.7622 10.8542 55.7622 10.9317 55.6847 11.0093Z" fill="#F9F9F9"/>
</svg>
