<svg width="95" height="26" viewBox="0 0 95 26" fill="none" xmlns="http://www.w3.org/2000/svg">
<path d="M20.9948 7.25065L14.7313 0.953059C14.6972 0.919018 14.6632 0.884977 14.6291 0.850936C14.6972 1.1573 14.7653 1.46367 14.7653 1.80408C14.7653 2.85936 14.2887 3.81251 13.5398 4.45928L17.6928 8.64633C18.8502 9.83777 18.8502 11.7441 17.6928 12.9015L13.5058 17.1225C13.0292 17.7012 12.7228 15.1141 13.0973 14.9099C14.6632 14.195 15.7525 12.5951 15.7525 10.7569C15.7525 8.23784 13.71 6.19538 11.225 6.19538C8.70599 6.19538 6.69757 8.23784 6.69757 10.7569C6.69757 12.6291 7.82093 14.2291 9.42085 14.9439C9.76126 15.1141 9.4549 17.6332 8.97832 17.1225L4.72319 12.9015C3.5658 11.71 3.5658 9.80373 4.72319 8.64633L8.91024 4.42524C8.16134 3.77846 7.68476 2.82532 7.68476 1.77004C7.68476 1.42963 7.7188 1.12326 7.82093 0.816895C7.78688 0.850936 7.75284 0.884977 7.7188 0.919018L1.45525 7.25065C-0.485085 9.19099 -0.485085 12.3568 1.45525 14.2971L7.7188 20.5947C9.65914 22.5351 12.7909 22.5351 14.7313 20.5947L20.9948 14.2971C22.9351 12.3568 22.9351 9.19099 20.9948 7.25065Z" fill="#518E80"/>
<path d="M12.9952 1.77013C12.9952 2.75732 12.2122 3.54027 11.225 3.54027C10.2378 3.54027 9.45488 2.75732 9.45488 1.77013C9.42084 0.816985 10.2378 0 11.225 0C12.2122 0 12.9952 0.816985 12.9952 1.77013Z" fill="#28477D"/>
<path d="M44.7214 15.5568H47.8191C47.8532 16.1695 48.0914 16.6121 48.4999 16.9184C48.9425 17.2248 49.5552 17.361 50.3381 17.361C50.8828 17.361 51.3594 17.2588 51.7679 17.0546C52.1423 16.8503 52.3125 16.544 52.3125 16.1695C52.3125 15.6249 51.6657 15.2164 50.4062 14.944C49.8616 14.8419 49.4531 14.7738 49.1808 14.6717C47.5468 14.2632 46.4915 13.7866 45.9469 13.242C45.3341 12.6973 45.0277 11.9484 45.0277 11.0293C45.0277 9.87193 45.4703 8.91878 46.3553 8.13584C47.2745 7.42098 48.4659 7.08057 49.9297 7.08057C51.5296 7.08057 52.7891 7.42098 53.7422 8.13584C54.6273 8.88474 55.1039 9.90597 55.172 11.0974H53.1976C52.6189 11.0974 52.1764 10.8251 51.87 10.3145C51.7338 10.1783 51.6317 10.0762 51.4955 9.94001C51.1211 9.66768 50.6105 9.53152 49.9977 9.53152C49.385 9.53152 48.9425 9.63364 48.6361 9.80385C48.3638 9.97405 48.2276 10.2464 48.2276 10.6208C48.2276 11.0974 49.0105 11.5059 50.6105 11.8463C50.7807 11.9144 50.9509 11.9484 51.0871 11.9825C51.2232 12.0165 51.3594 12.0165 51.4615 12.0165C53.0274 12.425 54.1167 12.8675 54.6954 13.3782C55.2741 13.9228 55.5805 14.6717 55.5805 15.5908C55.5805 16.9184 55.1039 17.9737 54.1167 18.6886C53.1976 19.3694 51.8359 19.7098 49.9977 19.7098C48.2616 19.7098 46.9681 19.3694 46.1171 18.6545C45.232 17.9397 44.7895 16.9184 44.7895 15.5908V15.5568H44.7214Z" fill="#518E80"/>
<path d="M64.3971 19.0969C63.7503 19.4374 63.0695 19.6416 62.3547 19.7097C61.6398 19.7778 60.993 19.8118 60.4484 19.8118C59.3591 19.8118 58.3719 19.5054 57.5549 18.9267C56.7379 18.314 56.3294 17.3609 56.3294 15.9652C56.3294 14.6716 56.7039 13.7525 57.4528 13.2078C58.2017 12.6632 59.1548 12.2887 60.3122 12.1185C60.4484 12.1185 60.6526 12.0845 60.8569 12.0505C61.0611 12.0164 61.2994 11.9824 61.5717 11.9483C62.9334 11.7781 63.5801 11.3696 63.5801 10.7569C63.5801 10.3144 63.3419 10.008 62.8653 9.87183C62.3887 9.73566 61.9462 9.66758 61.5717 9.66758C61.1292 9.66758 60.7547 9.73566 60.4143 9.83778C60.0739 9.97395 59.8356 10.1782 59.6654 10.5186H56.6017C56.7379 9.56546 57.1464 8.78251 57.8953 8.16977C58.7123 7.45491 59.9037 7.1145 61.4356 7.1145C63.1376 7.1145 64.4312 7.38683 65.2822 7.99957C66.1673 8.61231 66.6098 9.46333 66.6098 10.5526V14.7057C66.6098 15.9311 66.4055 16.8843 65.929 17.5651C65.5205 18.28 64.9758 18.7906 64.3971 19.0969ZM63.6482 13.4461C63.2057 13.6504 62.627 13.8546 61.8781 14.0248L60.8228 14.2631C60.2782 14.3993 59.8697 14.6035 59.6314 14.8759C59.4271 15.2163 59.325 15.5567 59.325 15.8971C59.325 16.3396 59.4612 16.7141 59.7335 16.9864C60.0058 17.2247 60.4143 17.3609 60.9249 17.3609C61.776 17.3609 62.4568 17.1226 62.9334 16.6119C63.4099 16.1354 63.6823 15.4546 63.6823 14.6035V13.4461H63.6482Z" fill="#518E80"/>
<path d="M67.8012 3.84668H69.4352C69.8778 3.84668 70.2182 3.98284 70.5245 4.28921C70.8309 4.59558 70.9671 4.93599 70.9671 5.37853V19.6077H67.7672V3.84668H67.8012Z" fill="#518E80"/>
<path d="M82.7793 7.4209V14.5695C82.7793 16.7481 82.2006 18.1438 81.0772 18.8246C79.9539 19.5055 78.7284 19.8459 77.3668 19.8459C76.0392 19.7778 74.8477 19.4033 73.7584 18.7566C72.6691 18.0757 72.1245 16.6801 72.1245 14.6036V7.45494H75.3243V15.2503C75.3243 15.9652 75.5286 16.5099 75.9711 16.8503C76.4136 17.1907 76.8902 17.3609 77.4349 17.3609C77.9795 17.3609 78.4901 17.1907 78.9327 16.8503C79.3752 16.5099 79.6135 15.9652 79.6135 15.2503V8.98679C79.6135 8.54425 79.7496 8.20384 80.056 7.89747C80.3624 7.5911 80.7368 7.45494 81.1794 7.45494H82.7793V7.4209Z" fill="#518E80"/>
<path d="M91.9023 3.8125H93.4682C93.9107 3.8125 94.2511 3.98271 94.5575 4.28907C94.8639 4.59544 95 4.9699 95 5.37839V14.2971C95 16.4758 94.3873 17.9395 93.1278 18.6884C91.8683 19.4373 90.5066 19.8458 89.0428 19.8458C88.2599 19.8458 87.477 19.7097 86.694 19.4714C85.9451 19.199 85.3324 18.7906 84.8558 18.2119C83.9707 17.0885 83.5282 15.5567 83.5282 13.5823C83.5282 11.6419 83.9707 10.1101 84.8558 8.95269C85.7749 7.76126 86.9323 7.18256 88.3961 7.18256C89.145 7.18256 89.8258 7.31873 90.4045 7.62509C91.0172 7.99955 91.4938 8.47612 91.8682 9.05482V3.8125H91.9023ZM86.694 13.4121C86.694 14.6375 86.9323 15.5567 87.3748 16.2034C87.8174 16.8502 88.4982 17.1566 89.3492 17.1566C90.1662 17.1566 90.813 16.8502 91.2555 16.2034C91.698 15.5567 91.9023 14.6375 91.9023 13.4121C91.9023 12.3228 91.664 11.4377 91.2215 10.7909C90.7449 10.1782 90.0641 9.8718 89.2471 9.8718C88.4642 9.8718 87.8174 10.1782 87.3748 10.825C86.9323 11.4717 86.694 12.3228 86.694 13.4121Z" fill="#518E80"/>
<path d="M42.8832 16.714C42.713 16.5779 42.5087 16.5098 42.2704 16.5098C42.0662 16.5098 41.8279 16.6119 41.7598 16.646C40.7046 17.0885 39.6833 17.3268 38.6961 17.3268C37.6749 17.3268 36.96 17.0544 36.5516 16.5098C36.1431 15.9651 35.9388 15.1482 35.9388 14.0588C41.2833 13.9567 43.9385 12.6632 43.9385 10.1782C43.9385 9.15693 43.564 8.40803 42.7811 7.82933C42.0322 7.28467 41.045 7.04639 39.7514 7.04639C37.8792 7.04639 36.2792 7.69317 34.9176 9.02077C33.5559 10.3484 32.8751 12.0845 32.8751 14.229C32.8751 15.8971 33.2836 17.2587 34.1006 18.2799C34.9176 19.3012 36.1771 19.8118 37.8792 19.8118C39.7855 19.8118 41.3513 19.3692 42.5768 18.5182C42.9172 18.314 43.2917 17.9055 43.2917 17.531C43.3257 17.2247 43.1555 16.9183 42.8832 16.714ZM37.3005 10.008C37.9472 9.49734 38.594 9.22501 39.3089 9.22501C40.5344 9.22501 41.1811 9.6335 41.1811 10.4505C41.1811 11.5738 39.4791 12.1866 36.075 12.2547C36.2792 11.2675 36.6877 10.5526 37.3005 10.008Z" fill="#28477D"/>
<path d="M33.7602 1.66804C33.1134 1.56592 32.807 1.56592 32.1943 1.56592C29.5391 1.56592 27.9732 3.64242 27.5307 7.82947C27.0541 7.82947 26.4073 7.79543 25.5563 7.72734L25.1818 10.2123C26.1009 10.1783 26.7818 10.1443 27.2583 10.1443C27.0881 12.2208 26.8839 14.3313 26.6456 16.4759C26.4073 18.6205 26.135 20.1864 25.8286 21.1735C25.5222 22.1607 25.0457 22.9096 24.3989 23.4203C24.3989 23.4203 23.7181 23.9309 23.9564 24.6117C24.2968 25.4968 25.3861 25.4287 25.7605 25.2585C27.0881 24.8159 28.7561 22.5011 29.3008 19.3013C29.8795 15.8972 29.8455 12.7995 30.0497 10.1443C30.7305 10.1443 31.6496 10.1783 32.8751 10.2123L33.2155 7.72734C31.956 7.79543 31.0028 7.82947 30.288 7.82947C30.4582 6.26358 30.6624 5.17427 30.9348 4.62961C31.2071 4.08495 31.6156 3.81263 32.1943 3.81263C32.6709 3.81263 33.2836 3.88071 33.5559 3.88071C33.8282 3.88071 34.5431 3.74454 34.6452 2.75735C34.6793 2.31482 34.5091 1.73612 33.7602 1.66804Z" fill="#28477D"/>
</svg>
