<svg width="94" height="22" viewBox="0 0 94 22" fill="none" xmlns="http://www.w3.org/2000/svg">
<path d="M81.9145 9.87959C81.8834 14.2602 80.9513 17.3981 80.9513 17.3981H72.4387C72.4387 17.3981 73.7435 14.4466 73.6814 9.84852C73.6193 4.6912 72.4387 2.23682 72.4387 2.23682H80.9513C80.9203 2.23682 81.9455 5.93393 81.9145 9.87959Z" fill="#C7C62F"/>
<path d="M83.8096 10.3767C82.6601 14.602 80.9513 17.367 80.9513 17.367L72.7183 15.1923C72.7183 15.1923 74.7377 12.6757 75.8561 8.20192C77.0989 3.19994 76.6018 0.528076 76.6018 0.528076L84.8349 2.70285C84.8038 2.73392 84.8659 6.5553 83.8096 10.3767Z" fill="#83A239"/>
<path d="M85.4562 11.3399C83.2815 15.1302 80.9203 17.3982 80.9203 17.3982L73.495 13.204C73.495 13.204 76.0737 11.2777 78.2795 7.23889C80.7649 2.70293 80.9203 0 80.9203 0L88.3456 4.1942C88.3766 4.1942 87.4446 7.92239 85.4562 11.3399Z" fill="#487F7D"/>
<path d="M87.0097 12.8933C83.8407 15.9069 80.9514 17.3981 80.9514 17.3981L75.0173 11.2777C75.0173 11.2777 78.062 10.1593 81.3242 6.92817C84.9902 3.2932 85.9223 0.745605 85.9223 0.745605L91.8252 6.86604C91.8252 6.86604 89.899 10.1593 87.0097 12.8933Z" fill="#53337C"/>
<path d="M87.8796 14.4468C84.0892 16.6216 80.9203 17.3983 80.9203 17.3983L76.6018 10.0351C76.6018 10.0351 79.8018 9.66229 83.7475 7.30111C88.1592 4.62924 89.6815 2.39233 89.6815 2.39233L94 9.72442C94 9.72442 91.3281 12.4895 87.8796 14.4468Z" fill="#487F9F"/>
<path d="M25.8675 14.7885C25.7121 14.6953 25.5568 14.6331 25.3704 14.6331C25.184 14.6331 24.9976 14.7263 24.9354 14.7574C24.0344 15.1302 23.1956 15.3166 22.3878 15.3166C21.549 15.3166 20.9587 15.0992 20.6169 14.6331C20.2752 14.1671 20.1199 13.4836 20.1199 12.5826C24.5626 12.4894 26.7684 11.4331 26.7684 9.38261C26.7684 8.54377 26.4578 7.89134 25.8053 7.45639C25.184 7.02143 24.3451 6.80396 23.2888 6.80396C21.7354 6.80396 20.3995 7.36318 19.281 8.45057C18.1626 9.53795 17.5723 10.9982 17.5723 12.8001C17.5723 14.1982 17.914 15.3166 18.5975 16.1555C19.281 16.9943 20.3063 17.4293 21.7354 17.4293C23.3199 17.4293 24.6247 17.0875 25.65 16.373C25.9296 16.1865 26.2403 15.8759 26.2403 15.5652C26.2403 15.1924 26.0849 14.9438 25.8675 14.7885ZM21.2383 9.22727C21.7665 8.79232 22.3257 8.57484 22.916 8.57484C23.9412 8.57484 24.4694 8.91659 24.4694 9.56902C24.4694 10.5011 23.0713 11.0292 20.2441 11.0603C20.3684 10.2836 20.7102 9.66223 21.2383 9.22727Z" fill="#53337C"/>
<path d="M68.027 14.7885C67.9027 14.6953 67.7163 14.6331 67.5299 14.6331C67.3435 14.6331 67.1571 14.7263 67.095 14.7574C66.194 15.1302 65.3552 15.3166 64.5474 15.3166C63.7085 15.3166 63.1182 15.0992 62.7765 14.6331C62.4347 14.1671 62.2794 13.4836 62.2794 12.5826C66.7222 12.4894 68.928 11.4331 68.928 9.38261C68.928 8.54377 68.6173 7.89134 67.9649 7.45639C67.3435 7.02143 66.5047 6.80396 65.4484 6.80396C63.8949 6.80396 62.559 7.36318 61.4406 8.45057C60.3221 9.53795 59.7318 10.9982 59.7318 12.8001C59.7318 14.1982 60.0736 15.3166 60.7571 16.1555C61.4406 16.9943 62.4658 17.4293 63.8949 17.4293C65.4794 17.4293 66.7843 17.0875 67.8095 16.373C68.0892 16.1865 68.3998 15.8759 68.3998 15.5652C68.3688 15.1924 68.2445 14.9438 68.027 14.7885ZM63.3979 9.22727C63.926 8.79232 64.4852 8.57484 65.0755 8.57484C66.1008 8.57484 66.6289 8.91659 66.6289 9.56902C66.6289 10.5011 65.2309 11.0292 62.4037 11.0603C62.5279 10.2836 62.8697 9.66223 63.3979 9.22727Z" fill="#487F9F"/>
<path d="M10.4887 16.0313C10.4887 15.9692 10.4887 15.9381 10.5198 15.876C10.4887 15.907 10.4887 15.9692 10.4887 16.0313Z" fill="#53337C"/>
<path d="M17.8208 7.14566C17.2305 6.89711 16.6092 6.89711 16.2674 6.89711C15.2732 6.89711 14.4033 7.3942 13.6888 8.38839H13.5334C13.5334 7.95343 13.4713 7.79809 13.4713 7.76702C13.4713 7.05245 12.881 6.46216 12.1664 6.46216C11.4519 6.46216 10.8616 7.05245 10.8616 7.76702C10.8616 7.86023 10.8926 8.0777 10.8926 8.0777C11.0169 9.13402 11.048 9.22723 11.048 9.94179C11.048 11.0292 10.8616 13.0175 10.4887 15.8758C10.4887 15.938 10.4887 15.969 10.4577 16.0312C10.4577 16.0622 10.4577 16.1244 10.4577 16.1554C10.4577 16.5593 10.6441 16.9321 10.9548 17.1496C11.1722 17.305 11.4208 17.3982 11.7004 17.3982C12.0111 17.3982 12.3218 17.2739 12.5392 17.0875C12.7878 16.87 12.9742 16.5282 12.9742 16.1554C12.9742 16.5282 13.1917 13.5146 13.4091 11.402C13.5645 10.035 14.248 9.3515 15.4907 9.3515C15.9257 9.3515 16.3296 9.41364 16.7334 9.50684C16.8577 9.56898 17.0131 9.60004 17.1684 9.60004C17.883 9.60004 18.4733 9.00975 18.4733 8.29518C18.5043 7.76702 18.349 7.36314 17.8208 7.14566Z" fill="#53337C"/>
<path d="M60.4153 2.26801C59.8871 2.20587 59.6386 2.1748 59.1104 2.1748C56.9046 2.1748 55.5997 3.91462 55.2269 7.39426C54.823 7.39426 54.2948 7.36319 53.6113 7.33212L53.3007 9.38262C54.0463 9.35155 54.6366 9.32048 55.0094 9.32048C54.8541 11.0603 54.6987 12.8001 54.5123 14.571C54.3259 16.3419 54.1084 17.6468 53.8288 18.4856C53.5803 19.2934 53.1764 19.9147 52.6172 20.3497C52.6172 20.3497 52.0269 20.7846 52.2443 21.3439C52.524 22.0584 53.4249 22.0274 53.7356 21.872C54.823 21.4992 56.2211 19.573 56.656 16.9322C57.122 14.105 57.122 11.5263 57.2774 9.32048C57.8366 9.32048 58.6133 9.35155 59.6075 9.38262L59.8871 7.33212C58.8619 7.39426 58.0541 7.42533 57.4638 7.42533C57.5881 6.12046 57.7745 5.21949 58.023 4.78453C58.2405 4.31851 58.6133 4.10103 59.0793 4.10103C59.4832 4.10103 59.9803 4.16317 60.2289 4.16317C60.4463 4.16317 61.0677 4.06996 61.1298 3.23112C61.223 2.82724 61.0677 2.36121 60.4153 2.26801Z" fill="#487F9F"/>
<path d="M9.40135 3.19993C8.59358 2.57857 7.59939 2.29895 6.44987 2.26788C5.92171 2.26788 5.26928 2.23682 4.55471 2.23682C3.84014 2.26788 3.6848 2.26788 3.15664 2.33002C2.47314 2.39216 1.97605 2.48536 1.6343 2.95138C1.29255 3.38634 1.26149 3.94557 1.23042 4.38052C1.07508 6.02713 1.07508 6.86597 0.8576 8.91647C0.546918 12.0854 0.143032 15.3476 0.0187589 15.9379C-0.136582 16.7767 0.702259 17.3981 1.4479 17.3981C2.19353 17.3981 2.78383 16.8389 2.9081 16.1243C2.9081 16.1243 3.09451 12.2097 3.24985 10.8738C3.37412 10.8738 3.5916 10.9048 3.84014 10.9048C5.89064 10.9048 7.53726 10.4699 8.77998 9.59997C10.0227 8.73007 10.6441 7.45627 10.6441 5.77859C10.613 4.6912 10.2091 3.82129 9.40135 3.19993ZM4.02655 9.00968C3.80908 9.00968 3.5916 9.00968 3.43626 8.97861C3.65374 6.55529 3.77801 5.03295 3.84014 4.44266C4.3683 4.34945 4.86539 4.28732 5.33142 4.28732C7.1023 4.28732 7.97221 4.93975 7.97221 6.24461C7.94114 8.07763 6.63628 9.00968 4.02655 9.00968Z" fill="#53337C"/>
<path d="M31.7394 8.76127C32.4539 8.76127 32.5782 8.85448 33.2928 8.94768C34.1627 9.07195 34.7219 8.79234 34.7841 8.10884C34.8462 7.61175 34.6598 7.23893 34.2248 7.08359C33.8831 6.95932 33.4792 6.77291 31.9569 6.80398C30.7452 6.80398 29.751 7.08359 28.9432 7.64282C28.1355 8.20204 27.7316 9.04088 27.7316 10.1593C27.7316 10.8739 28.0112 11.4953 28.6015 12.0234C29.0054 12.3962 29.6578 12.738 30.4967 13.1108C31.5219 13.5458 32.0501 14.0118 32.0501 14.5089C32.0501 15.1924 31.3044 15.5652 29.7821 15.5341C28.819 15.5341 28.1976 15.1302 27.6694 15.0992C27.0792 15.0681 26.5821 15.5963 26.5821 16.1866C26.5821 16.7458 27.017 17.1497 27.5762 17.274C28.2908 17.4293 28.6015 17.5225 29.5646 17.5225C32.7957 17.5225 34.4112 16.373 34.4112 14.0739C34.4112 12.8001 33.4792 11.7749 31.6462 11.0603C30.6209 10.6564 30.0928 10.2215 30.0928 9.75545C30.0928 9.10302 30.652 8.76127 31.7394 8.76127Z" fill="#53337C"/>
<path d="M41.7122 15.0681C41.7122 15.0681 41.4016 14.8506 40.8423 15.0681C40.4695 15.2234 40.0967 15.2855 39.7239 15.2855C39.32 15.2855 39.0404 15.1613 38.885 14.8817C38.7297 14.602 38.6676 14.105 38.6676 13.3593C38.6676 12.3651 38.8229 10.8739 39.1025 8.82336C39.7239 8.82336 40.5627 8.85443 41.5569 8.8855L41.8365 6.64859C40.7491 6.71073 39.9103 6.7418 39.3511 6.7418C39.5685 5.15732 39.6928 4.25634 39.8171 3.54177C39.8171 3.54177 40.0346 2.33011 38.6365 2.36118C37.6423 2.39225 37.487 3.60391 37.487 3.60391C37.2695 5.15732 37.1142 6.21364 37.0209 6.7418C36.586 6.7418 36.0889 6.71073 35.5607 6.67966L35.2501 8.8855C35.8714 8.85443 36.3685 8.82336 36.7103 8.82336C36.3685 11.371 36.1821 13.1108 36.1821 14.0428C36.1821 15.2855 36.3996 16.1555 36.8035 16.6836C37.2384 17.2118 37.953 17.4603 38.9472 17.4603C39.8792 17.4603 40.3142 17.3671 41.3084 16.6525C42.3647 15.969 41.9297 15.1923 41.7122 15.0681Z" fill="#53337C"/>
<path d="M51.157 14.5087C51.157 13.2971 51.3434 11.2466 51.7473 8.38831C52.1201 5.99607 49.5104 7.05238 49.5104 7.05238C47.056 7.11452 45.254 7.82909 44.0734 9.16502C42.9239 10.501 42.3336 11.9922 42.3336 13.6699C42.3336 14.8194 42.5511 15.7515 43.0171 16.4039C43.4831 17.0563 44.1356 17.3981 45.0365 17.3981C46.59 17.3981 47.7395 16.6835 48.5162 15.2544H48.6715C48.7958 16 49.1065 17.4602 50.3181 17.3981C52.1201 17.367 51.1881 15.5029 51.157 14.5087ZM47.988 14.0427C47.4599 14.9748 46.8696 15.4408 46.2482 15.4408C45.4404 15.4408 45.0055 14.7884 45.0055 13.4835C45.0055 12.0544 45.3472 10.9048 46.0307 10.066C46.7142 9.22716 47.8016 8.7922 49.2929 8.76113C49.2308 9.69318 49.1376 10.5631 48.9822 11.4019C48.8579 12.2408 48.5473 13.1107 47.988 14.0427Z" fill="#53337C"/>
</svg>
