<svg width="190" height="45" viewBox="0 0 190 45" fill="none" xmlns="http://www.w3.org/2000/svg">
<path d="M150.003 18.8053C148.355 17.2287 146.294 16.3746 143.891 16.3746C141.556 16.3746 139.495 17.163 137.778 18.8053C136.13 20.3819 135.237 22.3527 135.237 24.652C135.237 26.8856 136.061 28.8564 137.778 30.4987C139.426 32.0754 141.487 32.9294 143.891 32.9294C146.226 32.9294 148.286 32.1411 150.003 30.4987C151.651 28.9221 152.544 26.9513 152.544 24.652C152.544 22.4184 151.72 20.4476 150.003 18.8053ZM143.959 30.433C142.311 30.433 140.869 29.9075 139.701 28.725C138.534 27.6082 137.916 26.2287 137.916 24.652C137.916 23.0754 138.465 21.6958 139.701 20.579C140.869 19.4622 142.311 18.871 143.959 18.871C145.608 18.871 147.05 19.3965 148.217 20.579C149.385 21.6958 150.003 23.0754 150.003 24.652C150.003 26.2287 149.454 27.6082 148.217 28.725C147.05 29.8418 145.608 30.433 143.959 30.433Z" fill="#575756"/>
<path d="M124.729 16.7031C122.6 16.7031 120.608 17.5572 119.097 18.9367V17.6228C119.097 16.9659 118.548 16.4404 117.861 16.4404C117.174 16.4404 116.625 16.9659 116.625 17.6228V38.9075C116.625 39.6301 117.106 40.09 117.861 40.09C118.205 40.09 118.479 39.9586 118.754 39.7615C118.96 39.4988 119.097 39.236 119.097 38.9075V30.7615C120.54 32.1411 122.669 32.9294 124.729 32.9294C129.331 32.9294 132.833 29.1192 132.833 24.7834C132.833 20.4477 129.399 16.7031 124.729 16.7031ZM124.729 30.4988C121.57 30.4988 119.097 27.8053 119.097 24.8491C119.097 21.8272 121.433 19.1995 124.729 19.1338C127.957 19.1338 130.292 21.6958 130.292 24.7834C130.292 27.6739 127.957 30.4331 124.729 30.4988Z" fill="#575756"/>
<path d="M91.9005 16.4404H90.0461H89.222C87.2303 16.5718 85.582 17.5572 84.7578 18.8053V17.6228C84.7578 16.9659 84.2084 16.4404 83.5216 16.4404C82.8348 16.4404 82.2854 16.9659 82.2854 17.6228V31.6812C82.2854 32.3382 82.8348 32.8637 83.5216 32.8637C84.2084 32.8637 84.7578 32.3382 84.7578 31.6812V24.5863C84.7578 24.5207 84.7578 24.455 84.7578 24.455C84.7578 24.3893 84.7578 24.3236 84.7578 24.3236C84.7578 21.4988 87.0243 19.1338 89.9775 18.871C89.9775 18.871 89.9775 18.871 90.1835 18.871C90.2522 18.871 90.3209 18.871 90.4582 18.871C90.8703 18.871 91.6258 18.871 91.7631 18.871C92.4499 18.871 92.9993 18.3455 92.9993 17.6885C93.1367 16.9659 92.5873 16.4404 91.9005 16.4404Z" fill="#575756"/>
<path d="M189.974 21.4331C190.043 21.1046 189.974 20.7761 189.768 20.5134C188.395 18.2798 185.853 16.9659 183.106 16.9659C178.573 16.9659 175.071 20.6447 175.071 24.9148C175.071 29.1192 178.436 32.9294 183.038 32.9294C185.647 32.9294 188.051 31.6812 189.562 29.5791C189.768 29.2506 189.905 28.9878 189.768 28.6593C189.562 28.0681 189.013 27.7396 188.326 27.7396C187.982 27.8053 187.708 27.9367 187.502 28.2652C186.472 29.6447 184.823 30.4988 183.038 30.4988C181.389 30.4988 179.947 29.7761 178.986 28.725L189.356 22.2214C189.699 21.9586 189.905 21.7615 189.974 21.4331ZM177.818 26.5572C177.681 26.0316 177.543 25.4404 177.543 24.8491C177.543 21.9586 179.878 19.2652 183.106 19.2652C184.549 19.2652 185.785 19.7907 186.884 20.7761L177.818 26.5572Z" fill="#4E6695"/>
<path d="M78.1648 21.6958C77.8901 21.4987 77.6154 21.3674 77.272 21.3674H69.9233C69.5799 21.3674 69.3052 21.4987 69.0305 21.6958C68.8244 21.9586 68.6871 22.2214 68.6871 22.5498C68.6871 22.8783 68.8244 23.1411 69.0305 23.4039C69.2365 23.6666 69.5799 23.7323 69.9233 23.7323H74.8682C74.8682 23.7323 75.3489 23.7323 75.761 24.0608C76.1731 24.4549 76.1044 24.9805 76.1044 24.9805V27.871C76.1044 27.871 76.1044 28.1995 75.9671 28.3966C75.8297 28.5936 75.6923 28.725 75.555 28.7907C74.8682 29.3163 74.044 29.7104 73.2199 29.9732C72.1897 30.3017 71.0908 30.4987 69.992 30.4987C68.7558 30.4987 67.6569 30.236 66.558 29.8418C65.5278 29.382 64.5663 28.7907 63.8109 28.0024C63.0554 27.2141 62.4373 26.2944 61.9565 25.309C61.5445 24.3236 61.2697 23.2068 61.2697 22.09C61.2697 20.9075 61.4758 19.7907 61.9565 18.7396C62.4373 17.6885 63.0554 16.8345 63.8795 16.0462C64.7037 15.3236 65.5965 14.6666 66.6954 14.2725C67.7256 13.8126 68.8931 13.6155 70.0607 13.6155C71.1595 13.6155 72.3271 13.8126 73.4259 14.2725C74.5248 14.6666 75.4863 15.3236 76.3791 16.1119C76.6538 16.3747 76.9286 16.4404 77.2033 16.4404C77.3406 16.4404 77.5467 16.3747 77.684 16.3747C77.8214 16.309 77.9587 16.2433 78.0961 16.1119C78.2335 15.9805 78.3021 15.9148 78.3708 15.7177C78.4395 15.5863 78.5082 15.4549 78.5082 15.2579C78.5082 14.9951 78.3708 14.6666 78.1648 14.4038C77.0659 13.3528 75.761 12.4987 74.4561 11.9732C73.0825 11.4476 71.6403 11.1849 70.1293 11.1849C69.0991 11.1849 68.069 11.3163 67.1075 11.579C66.1459 11.8418 65.2531 12.236 64.429 12.6958C63.6048 13.1557 62.8494 13.7469 62.1626 14.4038C61.4758 15.0608 60.9263 15.7834 60.4456 16.5717C59.9648 17.3601 59.6214 18.2141 59.3467 19.1338C59.0033 20.1849 58.866 21.1046 58.866 22.09C58.866 23.0754 59.0033 24.0608 59.278 24.9148C59.5528 25.9002 59.8962 26.7542 60.3769 27.5425C60.8577 28.3309 61.4758 29.0535 62.0939 29.7104C62.7807 30.3674 63.5361 30.9586 64.3603 31.4184C65.1844 31.8783 66.0773 32.2725 67.0388 32.5352C68.0003 32.798 68.9618 32.9294 69.992 32.9294C71.4342 32.9294 72.8765 32.6666 74.2501 32.2068C75.6237 31.7469 76.9286 30.8929 78.1648 29.8418C78.3021 29.7104 78.3708 29.579 78.5082 29.4476C78.5769 29.3163 78.6455 29.1192 78.6455 28.9221V22.6155C78.5769 22.2214 78.4395 21.9586 78.1648 21.6958Z" fill="#575756"/>
<path d="M112.848 17.6228C112.848 16.9659 112.298 16.4404 111.611 16.4404C110.925 16.4404 110.375 16.9659 110.375 17.6228V24.8491C110.375 27.7396 108.04 30.4331 104.881 30.4331C102.683 30.4331 100.623 29.0535 99.8673 27.0827C99.5925 26.4258 99.3865 25.7031 99.3865 24.9148V17.6228C99.3865 16.9659 98.8371 16.4404 98.1503 16.4404C97.4635 16.4404 96.9141 16.9659 96.9141 17.6228V24.9805C96.9141 29.1192 100.417 32.9294 104.881 32.8637C109.414 32.8637 112.848 29.1849 112.848 24.8491V17.6228Z" fill="#575756"/>
<path d="M175.071 10.5936H167.86C165.387 10.5936 163.189 12.5644 163.189 15.0608V31.6812V31.7469C163.258 32.4038 163.739 32.8637 164.426 32.8637C165.112 32.8637 165.662 32.3382 165.662 31.6812C165.662 31.6812 165.662 24.7177 165.662 24.1922C165.662 23.6009 166.074 23.0097 166.898 23.0097C166.898 23.0097 166.898 23.0097 166.967 23.0097H171.362C172.049 23.0097 172.598 22.4841 172.598 21.8272C172.598 21.1703 172.049 20.6447 171.362 20.6447H166.967C166.898 20.6447 166.898 20.6447 166.898 20.6447C166.349 20.6447 165.662 20.1849 165.662 19.4622C165.662 19.1338 165.662 15.2579 165.662 15.2579C165.662 13.944 166.761 12.9586 168.066 12.9586H175.071C175.758 12.9586 176.307 12.433 176.307 11.7761C176.307 11.1192 175.758 10.5936 175.071 10.5936Z" fill="#4E6695"/>
<path d="M24.52 30.4817C26.3057 29.8248 27.7479 28.6423 28.7094 27.1971C29.1902 26.4744 29.4649 25.6861 29.6709 24.8978C29.877 24.1095 29.9456 23.3212 29.877 22.5328C29.8083 21.7445 29.5336 21.0219 29.1215 20.365C28.9841 20.0365 28.7781 19.708 28.5721 19.3796C28.5034 19.2482 28.366 19.0511 28.2973 18.9197C28.16 18.7883 28.0913 18.5912 28.0226 18.4598C27.954 18.2628 27.8166 18.1314 27.6792 18C27.6106 17.8029 27.4732 17.6715 27.3358 17.5401C27.1298 17.2117 26.8551 16.8832 26.5804 16.6204C26.0309 15.9635 25.3442 15.3723 24.5887 14.6496C24.52 14.5839 24.52 14.4525 24.5887 14.3869L24.6574 14.3212C25.7562 14.0584 26.9238 14.1898 27.954 14.5839C28.5034 14.781 28.9841 15.0438 29.4649 15.3066C29.7396 15.4379 29.9456 15.635 30.1517 15.8321L30.4951 16.0949C30.6324 16.1606 30.7011 16.292 30.8385 16.3577C31.6626 17.146 32.2121 18.1971 32.4868 19.3139C32.7615 20.4306 32.7615 21.5474 32.6928 22.5985C32.6241 23.6496 32.3494 24.7007 31.8687 25.6861C31.3879 26.6715 30.7698 27.5255 30.0143 28.2482C28.5034 29.6934 26.5117 30.6131 24.52 30.8102C24.4513 30.8102 24.314 30.7445 24.314 30.6788C24.4513 30.6131 24.4513 30.4817 24.52 30.4817Z" fill="#C5D1DF"/>
<path d="M20.5367 14.6497C18.8198 15.3723 17.3775 16.5548 16.4847 18C16.0039 18.7227 15.7292 19.4453 15.5232 20.2336C15.3171 21.0219 15.2485 21.8103 15.3858 22.5329C15.4545 23.3212 15.7292 24.0438 16.1413 24.7008C16.21 24.8322 16.2786 25.0292 16.416 25.1606C16.4847 25.292 16.5534 25.4891 16.6907 25.6205C16.7594 25.7519 16.8968 25.9489 16.9654 26.0803C17.0341 26.2117 17.1715 26.4088 17.2401 26.5402L17.3088 26.6716L17.3775 26.803L17.5149 27.0657L17.6522 27.3285L17.7896 27.5913C17.9956 27.9197 18.2703 28.2482 18.545 28.511C19.0945 29.1679 19.7126 29.7592 20.5367 30.4818C20.6054 30.5475 20.6054 30.6789 20.5367 30.7446L20.4681 30.8103C19.3692 31.073 18.2703 30.9416 17.1715 30.5475C16.622 30.3504 16.1413 30.0876 15.6605 29.8249C15.5232 29.7592 15.4545 29.6935 15.3171 29.5621L14.9737 29.2993L14.6303 29.0365L14.493 28.9052L14.3556 28.7738C13.5315 27.9854 12.982 26.9343 12.7073 25.8833C12.4326 24.8322 12.4326 23.7154 12.5013 22.6643C12.57 21.6132 12.8447 20.5621 13.2568 19.5767C13.6688 18.5913 14.2869 17.7373 15.0424 17.0146C16.4847 15.5694 18.4764 14.584 20.3994 14.3869C20.4681 14.3869 20.6054 14.4526 20.6054 14.5183C20.6054 14.584 20.6054 14.6497 20.5367 14.6497Z" fill="#C5D1DF"/>
<path d="M31.8 10.9051C28.7094 9.00003 25.0694 8.2774 21.6355 8.67156C19.9185 8.86864 18.2702 9.39419 16.7593 10.1168C15.2483 10.8394 13.8748 11.8248 12.7759 13.0073C11.677 14.1898 10.7842 15.5694 10.2348 17.0146C9.68535 18.4599 9.27327 19.9708 9.06723 21.4818C8.86119 22.9927 8.86119 24.6351 9.06723 26.2117C9.27327 27.854 9.75402 29.4307 10.4408 31.1387C10.5095 31.2044 10.4408 31.3358 10.3035 31.4015C10.2348 31.4015 10.1661 31.4015 10.0974 31.4015C8.58648 30.2847 7.35026 28.708 6.59479 26.9343C5.77064 25.1606 5.42725 23.1898 5.42725 21.2847C5.49593 19.3139 5.97668 17.3431 6.93818 15.6351C7.89969 13.927 9.20459 12.3504 10.6469 11.1022C12.0891 9.78835 13.8061 8.73725 15.6604 8.08032C17.5148 7.35769 19.4378 7.02922 21.4295 6.96353C23.3525 6.96353 25.2755 7.2263 27.0611 7.88324C27.4732 8.08032 27.954 8.21171 28.366 8.40879C28.7781 8.60587 29.1902 8.80295 29.6023 9.06572L30.7698 9.78835L31.8687 10.6424C31.9374 10.7081 31.9374 10.8394 31.8687 10.9051C32.006 10.9051 31.8687 10.9708 31.8 10.9051Z" fill="#88A1CB"/>
<path d="M13.2567 34.0292L14.4243 34.6861L15.6605 35.2773L16.9654 35.7372L18.2703 36.0657C20.056 36.4598 21.8416 36.5255 23.5586 36.3284C25.2756 36.1313 26.9925 35.6058 28.5035 34.8832C30.0144 34.1605 31.388 33.1095 32.5555 31.927C33.7231 30.7445 34.5472 29.2992 35.0967 27.7883C35.6461 26.2773 36.0582 24.7664 36.2642 23.1897C36.4703 21.6131 36.4016 19.9708 36.1269 18.3941C35.8521 16.7518 35.3027 15.1095 34.5472 13.4671C34.4786 13.4014 34.5472 13.27 34.6159 13.2043C34.6846 13.2043 34.7533 13.2043 34.822 13.2043C36.4016 14.3211 37.6378 15.8978 38.5306 17.6715C39.3548 19.4452 39.8355 21.416 39.8355 23.3868C39.8355 25.3576 39.2861 27.3941 38.3933 29.1678C37.4318 30.9416 36.1269 32.5182 34.6159 33.8321C33.105 35.1459 31.388 36.197 29.5337 36.9197C27.6793 37.6423 25.6876 37.9708 23.696 38.0365C21.7043 38.0365 19.7812 37.708 17.9269 37.0511C17.5148 36.854 17.0341 36.7226 16.622 36.5255C16.2099 36.3284 15.7979 36.0657 15.3858 35.8686L14.2182 35.0803L13.1194 34.2262C13.0507 34.1605 13.0507 34.0292 13.1194 33.9635C13.0507 34.0292 13.1881 33.9635 13.2567 34.0292Z" fill="#88A1CB"/>
<path d="M39.286 35.7372C40.1101 34.6861 40.7969 33.635 41.3463 32.5182C41.9645 31.4015 42.4452 30.219 42.7886 29.0365C43.5441 26.6058 43.7501 24.1095 43.5441 21.6788C43.338 19.2482 42.6512 16.8175 41.5524 14.6496C40.4535 12.4818 38.9426 10.5109 37.0882 8.86861C35.2339 7.22628 33.1049 5.9781 30.7698 5.12409C28.4347 4.27007 26.0309 3.74453 23.6271 3.54745C21.086 3.21898 18.6136 3.35036 16.1411 3.94161C13.6687 4.46715 11.2649 5.38686 8.86115 6.63504C8.79247 6.70073 8.65511 6.63504 8.58643 6.56934C8.51775 6.50365 8.58643 6.43796 8.58643 6.37226C10.3721 4.33577 12.7072 2.69343 15.317 1.64234C17.9268 0.525547 20.8113 0 23.7645 0C25.2068 0 26.649 0.19708 28.0913 0.525547C28.7781 0.656934 29.4649 0.919708 30.1517 1.11679C30.8384 1.37956 31.5252 1.64234 32.1434 1.90511C34.7532 3.15328 37.0882 4.86131 39.0799 6.83212C41.0716 8.80292 42.5826 11.1679 43.6814 13.6642C44.7116 16.1606 45.261 18.854 45.3297 21.5474C45.3984 26.8686 43.2694 32.1898 39.5607 36C39.492 36.0657 39.3546 36.0657 39.286 36C39.2173 35.9343 39.2173 35.8029 39.286 35.7372Z" fill="#6F7C9B"/>
<path d="M5.97669 9.32848C5.15254 10.3796 4.46575 11.4307 3.91631 12.5475C3.2982 13.6642 2.81745 14.8467 2.47406 16.0292C1.71859 18.4599 1.51255 20.9562 1.71859 23.3869C1.92463 25.8175 2.61142 28.2482 3.77896 30.4161C4.87782 32.584 6.38876 34.5548 8.2431 36.1971C10.0974 37.8394 12.2265 39.0876 14.5616 39.9416C16.828 40.7956 19.2317 41.3212 21.7042 41.5183C24.1766 41.7153 26.6491 41.584 29.1215 41.0584C31.594 40.5329 33.9977 39.6132 36.4015 38.365C36.4702 38.2993 36.6075 38.365 36.6762 38.4307C36.7449 38.4964 36.6762 38.5621 36.6762 38.6277C34.8906 40.6642 32.5555 42.3066 29.9457 43.3577C27.3359 44.4745 24.4514 45 21.4982 45C20.0559 45 18.6136 44.8029 17.1714 44.4745C16.4846 44.3431 15.7978 44.0803 15.111 43.8832C14.4242 43.6205 13.7374 43.3577 13.1193 43.0949C10.5095 41.8467 8.17442 40.1387 6.2514 38.1679C4.25971 36.1971 2.74877 33.8321 1.64991 31.3358C0.619724 28.8394 0.0702911 26.146 0.00161203 23.4526C-0.067067 18.1314 2.06198 12.8102 5.77065 9.00001C5.83933 8.93432 5.97669 8.93432 6.04537 9.00001C6.04537 9.19709 6.04536 9.26279 5.97669 9.32848Z" fill="#6F7C9B"/>
</svg>
