<svg width="20" height="20" viewBox="0 0 20 20" fill="none" xmlns="http://www.w3.org/2000/svg">
<g clip-path="url(#clip0_77_805)">
<path d="M9.99984 15.8334C13.2215 15.8334 15.8332 13.2217 15.8332 10.0001C15.8332 6.77842 13.2215 4.16675 9.99984 4.16675C6.77818 4.16675 4.1665 6.77842 4.1665 10.0001C4.1665 13.2217 6.77818 15.8334 9.99984 15.8334Z" stroke="#FFAD06" stroke-width="2" stroke-linecap="round" stroke-linejoin="round"/>
<path d="M10 7.5V10L11.25 11.25" stroke="#FFAD06" stroke-width="2" stroke-linecap="round" stroke-linejoin="round"/>
<path d="M13.7584 14.4583L13.4667 17.6499C13.4292 18.0655 13.2371 18.4518 12.9286 18.7326C12.62 19.0134 12.2173 19.1683 11.8001 19.1666H8.19173C7.77451 19.1683 7.37182 19.0134 7.06323 18.7326C6.75465 18.4518 6.56261 18.0655 6.52507 17.6499L6.2334 14.4583M6.24173 5.5416L6.5334 2.34993C6.57082 1.93583 6.76167 1.55067 7.06849 1.27006C7.37531 0.98945 7.77594 0.833657 8.19173 0.833266H11.8167C12.234 0.831573 12.6366 0.986431 12.9452 1.26724C13.2538 1.54806 13.4459 1.9344 13.4834 2.34993L13.7751 5.5416" stroke="#FFAD06" stroke-width="2" stroke-linecap="round" stroke-linejoin="round"/>
</g>
<defs>
<clipPath id="clip0_77_805">
<rect width="20" height="20" fill="white"/>
</clipPath>
</defs>
</svg>
