<svg width="22" height="22" viewBox="0 0 22 22" fill="none" xmlns="http://www.w3.org/2000/svg">
<path fill-rule="evenodd" clip-rule="evenodd" d="M10.5992 0.5C8.69365 0.5 6.86377 1.23839 5.51269 2.55651C4.16119 3.87504 3.39959 5.66602 3.39959 7.53617V9.16883C3.39544 9.88674 3.12509 10.5809 2.63541 11.1226L2.62205 11.1373L2.60991 11.1531L1.27 12.8961L1.26999 12.8961L1.268 12.8987C0.485685 13.9303 0.0584237 15.1793 0.0498159 16.4656H0.0498047V16.4689V17.3404V17.8404H0.549805H20.6485H21.1485V17.3404L21.1485 16.4689L21.1485 16.4656C21.1399 15.1793 20.7126 13.9303 19.9303 12.8987L19.9283 12.8961L18.5884 11.1531L18.5763 11.1373L18.5629 11.1226C18.0732 10.5808 17.8028 9.88658 17.7987 9.16858V7.53617C17.7987 5.66602 17.0371 3.87504 15.6856 2.55651C14.3346 1.23839 12.5047 0.5 10.5992 0.5ZM6.21101 3.27229C7.37277 2.13888 8.95101 1.5 10.5992 1.5C12.2473 1.5 13.8256 2.13888 14.9873 3.27229C16.1487 4.4053 16.7987 5.93932 16.7987 7.53617V9.17021L16.7987 9.17288C16.8039 10.1334 17.1631 11.0578 17.8073 11.7779L19.1335 13.503L19.1345 13.5043C19.7867 14.3649 20.1411 15.4036 20.1485 16.4709V16.8404H1.0498V16.4706C1.0573 15.4035 1.41165 14.3648 2.06379 13.5043L2.0648 13.503L3.39099 11.7779C4.03525 11.0578 4.39446 10.1334 4.39958 9.17288L4.39959 9.17021V7.53617C4.39959 5.93932 5.04968 4.4053 6.21101 3.27229ZM8.57981 19.838C8.04668 19.3179 7.74952 18.6151 7.74952 17.885H6.74952C6.74952 18.8884 7.15819 19.8481 7.88148 20.5538C8.60435 21.259 9.5822 21.6531 10.5993 21.6531C11.6164 21.6531 12.5943 21.259 13.3171 20.5538C14.0404 19.8481 14.4491 18.8884 14.4491 17.885H13.4491C13.4491 18.6151 13.1519 19.3179 12.6188 19.838C12.0853 20.3585 11.359 20.6531 10.5993 20.6531C9.83956 20.6531 9.11335 20.3585 8.57981 19.838Z" fill="#F9F9F9"/>
</svg>
