<svg width="29" height="27" viewBox="0 0 29 27" fill="none" xmlns="http://www.w3.org/2000/svg">
<path d="M7.05088 26.2222C6.75141 26.2222 6.45403 26.1311 6.20024 25.952C5.72747 25.6178 5.50663 25.0432 5.6353 24.4888L7.39372 16.9318L1.43026 11.8296C0.991903 11.4562 0.824444 10.865 1.00442 10.324C1.18439 9.78404 1.67404 9.40174 2.25379 9.34946L10.1442 8.65059L13.2638 1.52822C13.4938 1.00493 14.0176 0.666992 14.5997 0.666992C15.1817 0.666992 15.7056 1.00493 15.9356 1.527L19.0552 8.65059L26.9443 9.34946C27.5253 9.40052 28.015 9.78404 28.1949 10.324C28.3749 10.864 28.2085 11.4562 27.7701 11.8296L21.8067 16.9308L23.5651 24.4876C23.694 25.0432 23.4729 25.6178 23.0004 25.951C22.5289 26.2843 21.9001 26.3099 21.4036 26.0188L14.5997 22.052L7.79579 26.021C7.56577 26.1543 7.30947 26.2222 7.05088 26.2222ZM14.5997 20.3432C14.8583 20.3432 15.1144 20.4109 15.3446 20.5442L21.7658 24.291L20.1062 17.1585C19.9878 16.6509 20.1644 16.1209 20.5665 15.7774L26.1973 10.9596L18.7476 10.2996C18.2112 10.2518 17.7499 9.92279 17.5403 9.4406L14.5997 2.71925L11.6555 9.44162C11.4482 9.92056 10.9869 10.2495 10.4518 10.2974L3.001 10.9574L8.63163 15.7752C9.03495 16.1196 9.21137 16.6486 9.09188 17.1575L7.43355 24.2898L13.8548 20.5442C14.0848 20.4109 14.3411 20.3432 14.5997 20.3432ZM10.0839 8.78833C10.0839 8.78833 10.0839 8.78955 10.0827 8.79056L10.0839 8.78833ZM19.1132 8.78507L19.1144 8.78731C19.1144 8.78609 19.1144 8.78609 19.1132 8.78507Z" fill="#F9F9F9"/>
</svg>
