<svg width="76" height="27" viewBox="0 0 76 27" fill="none" xmlns="http://www.w3.org/2000/svg">
<path d="M8.51594 26.2369C8.39288 26.2369 9.64812 25.6709 10.8295 24.6863C11.7648 23.948 12.7493 22.7173 13.2416 21.6344C13.5369 20.6745 14.0045 20.2315 14.3983 19.7146C14.6445 19.3946 15.0875 18.7547 15.2598 18.5086C15.8751 17.8194 16.5396 16.8349 17.0319 16.5396C17.6472 16.2196 18.804 15.8258 18.8532 15.8997C18.8778 17.0318 18.4102 18.7547 17.8687 20.01C17.2534 21.4621 16.0966 23.0619 15.0383 24.1941C13.7338 25.6955 12.3063 26.0893 11.0756 26.3846C10.4849 26.5815 8.51594 26.4092 8.51594 26.2369C8.51594 26.4092 8.51594 26.2369 8.51594 26.2369Z" fill="#487F48"/>
<path d="M18.9271 14.7674C18.9271 14.7674 17.9672 13.9552 16.8596 13.8814C15.9489 13.7337 14.7429 14.1521 14.2507 14.9397C13.7338 15.3335 12.2571 16.7118 11.6171 17.3025C11.2726 19.2223 11.4941 19.813 11.4941 21.6344C11.4941 21.6836 13.0939 21.3144 13.4877 21.2406C13.9307 20.7729 14.4968 19.5915 15.0137 18.927C15.5551 18.3609 16.2935 17.3518 16.9334 16.6134L18.9025 15.8012L18.9271 14.7674Z" fill="#487F48"/>
<path d="M10.7311 0.393853C10.7311 0.393853 11.3218 0.418466 11.7648 0.615367C12.0602 0.713817 12.3555 0.93533 12.454 1.18146L12.4786 1.27991C12.9462 2.14135 12.3801 4.72567 12.3801 5.26714C12.3801 5.88246 12.1094 8.44217 11.9863 8.93442C11.8633 9.42667 11.6417 10.4358 11.6417 11.2972C11.6417 11.691 11.6171 13.98 11.5433 16.0967C11.4695 18.238 11.5679 21.413 11.4941 21.6345C11.4941 21.6345 10.928 21.7083 10.7065 21.7083C10.6326 21.7083 9.94347 21.6345 9.402 20.6746C8.83591 19.6901 8.22059 18.361 8.09753 17.7949C8.02369 17.1304 8.09753 16.1459 8.09753 15.2352C8.09753 12.7248 8.41749 7.85146 8.41749 7.70379C8.41749 7.60534 8.39288 6.96541 8.34366 6.3501C8.34366 5.80862 8.44211 5.24253 8.41749 4.77489C8.26982 3.66733 7.75295 2.38747 7.75295 2.14135C7.75295 1.82138 7.18686 0.516916 8.49133 0.566141C8.86052 0.393853 10.3619 0.295403 10.7311 0.393853C10.3619 0.295403 10.7311 0.393853 10.7311 0.393853Z" fill="#F0C72F"/>
<path d="M7.45761 0.885986C6.2762 0.984437 2.73199 4.08562 2.83044 5.0209C2.83044 5.31625 3.27347 6.10385 3.27347 6.44843C3.49498 6.59611 3.44576 7.87596 3.74111 7.80212L4.87329 6.91607L5.90701 6.86684C6.4731 6.84223 7.67912 6.62072 8.34366 6.37459L8.4175 5.4147C8.49134 5.09474 8.34366 4.60249 8.34366 4.2333C8.34366 3.6426 7.75296 2.70732 7.75296 2.16584C7.75296 2.04278 7.77757 0.935211 7.45761 0.885986C7.77757 0.935211 7.45761 0.885986 7.45761 0.885986Z" fill="#345C91"/>
<path d="M12.454 1.23077C12.2078 1.23077 12.3555 4.7996 12.3063 5.3903C12.2078 5.68565 12.0848 7.67927 12.0848 7.67927C12.0848 7.67927 13.783 7.60543 13.8569 7.60543L16.0474 7.11318C16.0474 7.11318 17.0319 7.06396 17.598 6.96551C17.598 6.1779 16.7366 4.57809 15.7767 3.54436C14.5953 2.14144 12.8232 1.00926 12.454 1.23077C12.8232 1.00926 12.454 1.23077 12.454 1.23077Z" fill="#B74330"/>
<path d="M11.5679 10.6326C11.5679 10.7064 13.7338 10.3865 13.8569 10.3865C14.7922 10.3865 15.5551 10.4603 16.3674 10.5342C16.9088 10.5588 18.0656 11.0264 18.804 11.1987C18.804 10.5342 18.0656 6.96533 17.598 6.96533C16.4412 6.96533 15.2352 7.13762 14.0784 7.43297L12.0848 7.6791C12.0355 7.85139 11.5679 10.4111 11.5679 10.6326C11.5679 10.4111 11.5679 10.6326 11.5679 10.6326Z" fill="#F0C72F"/>
<path d="M11.6418 10.6326L11.4941 17.2288V17.9425L11.5433 17.8933C11.5433 17.8933 11.5679 17.4995 12.0109 16.958C12.577 16.5888 13.7338 15.432 13.8569 15.3582C14.7183 14.546 15.2352 13.8568 16.9088 13.8568C17.3765 13.8568 18.4102 14.546 18.8779 14.6691C19.247 14.6691 19.0994 11.494 18.804 11.1495C17.8934 10.7803 16.3674 10.4111 15.1614 10.3619C13.98 10.3126 12.5278 10.3619 11.6418 10.6326C12.5278 10.3619 11.6418 10.6326 11.6418 10.6326Z" fill="#345C91"/>
<path d="M13.5615 21.1176C13.5615 21.1176 11.8387 21.7329 10.7311 21.6837C10.0173 21.6344 9.3774 20.7976 9.20511 20.2561C8.95898 19.2716 8.31905 18.361 8.07293 17.721C7.48223 17.598 5.78396 18.5332 5.24248 18.927C3.88879 19.8131 2.19052 20.9945 2.28897 21.216C2.28897 21.216 4.08569 24.4157 5.8578 25.2771C6.47311 25.5478 7.45761 26.3354 8.46673 26.237C9.3774 25.8924 10.7803 24.8587 11.814 23.9234C12.8232 22.7174 13.5615 21.1176 13.5615 21.1176Z" fill="#487F48"/>
<path d="M2.26436 21.1915C3.02735 20.65 5.24248 19.0502 5.66089 18.7303C5.0948 18.1642 4.57794 17.1304 4.57794 16.2936C4.57794 16.1213 4.1103 14.7676 4.06108 14.6446C4.03646 14.5461 3.59344 14.7922 3.44576 14.7922C3.22425 14.7922 2.75661 14.5707 2.5351 14.5707C2.28897 14.5707 0.76299 14.0785 0.615315 13.9554C0.467639 13.8816 0.664541 14.5707 0.664541 15.0876C0.664541 15.6291 0.984503 17.2781 0.984503 17.5242C0.959891 17.7211 2.21513 21.2161 2.26436 21.1915C2.21513 21.2161 2.26436 21.1915 2.26436 21.1915Z" fill="#487F48"/>
<path d="M4.01186 14.7429C3.86419 15.1613 1.08297 14.2753 0.566102 14.0291L0.418427 12.9216C0.443039 12.8477 0.713777 11.1741 0.713777 10.608C0.713777 10.0173 1.3537 7.53142 1.57522 7.26068C1.79673 6.94072 2.60895 5.11938 2.80585 5.11938C3.495 5.21784 3.27348 6.89149 3.56884 7.43297C3.66729 7.50681 4.23338 9.42659 3.96264 10.5342C3.74113 11.6417 3.51961 12.4539 3.74112 13.3892C3.74112 13.3646 4.0857 14.5214 4.01186 14.7429C4.0857 14.5214 4.01186 14.7429 4.01186 14.7429Z" fill="#B74330"/>
<path d="M5.53783 10.0172C5.53783 10.0172 4.13492 9.30343 4.01185 9.72184C3.9134 10.1895 3.27348 12.4046 3.96263 14.5213C4.62717 16.6134 4.47949 17.0072 4.77484 17.4748C4.99636 17.8686 5.31632 18.9023 5.48861 18.7547C6.17776 18.4839 7.75297 17.9671 8.07293 17.7209C7.99909 16.6626 8.17138 13.1922 8.17138 12.7984C8.19599 11.7893 8.51596 10.9032 8.29444 10.6817C7.99909 10.4602 7.2361 10.5094 7.08843 10.5094C6.91614 10.5094 5.53783 10.0172 5.53783 10.0172Z" fill="#345C91"/>
<path d="M8.31906 6.39917C8.31906 6.39917 8.63902 6.79297 8.51596 7.38367C8.46674 7.80209 8.31906 8.83582 8.31906 9.45113L8.29445 10.6571C8.29445 10.6571 7.26072 10.6079 6.84231 10.4602C6.15315 10.2387 4.75024 9.74648 4.70101 9.74648C4.65179 9.74648 3.91341 9.82032 3.91341 9.42652C3.91341 8.98349 3.59344 8.29434 3.66728 7.85131C3.69189 7.65441 4.06108 6.8422 4.70101 6.8422C5.39016 6.8422 5.8578 6.8422 6.22699 6.76836C6.59618 6.74375 8.31906 6.39917 8.31906 6.39917Z" fill="#F0C72F"/>
<path d="M9.54969 8.07285C9.54969 8.07285 9.67275 7.72827 9.91888 7.72827C10.0419 7.72827 10.2388 7.85133 10.3619 8.19591C10.608 8.762 10.8049 9.22964 10.8049 9.5496C10.8049 10.0419 10.5834 10.3126 10.5834 10.4849C10.5834 10.6818 10.3619 10.9771 10.1896 11.051C10.0419 11.0756 9.82043 10.9525 9.77121 10.8048C9.69737 10.6326 9.40202 10.2141 9.30357 9.91879C9.1805 9.47576 9.13128 9.08196 9.32818 8.86045C9.40202 8.61432 9.54969 8.07285 9.54969 8.07285Z" fill="#B74330"/>
<path d="M62.2206 16.0834L62.196 16.1573C61.9991 16.9449 61.6053 18.1755 60.8423 18.5939C60.8177 18.6185 60.7931 18.6185 60.7685 18.6431C60.5469 18.7662 60.3254 18.7908 60.0793 18.7662C60.0301 18.7662 59.9809 18.7416 59.9562 18.717C59.5624 18.5693 59.3902 17.9786 59.3409 17.5848C59.2425 16.8956 59.3163 16.108 59.4886 15.4189C59.6609 14.6559 60.1039 13.376 60.8423 12.9084C60.8669 12.8838 60.8915 12.8838 60.9161 12.8592C61.1376 12.7607 61.3592 12.7361 61.5807 12.7853C61.9991 12.8592 62.2206 13.4499 62.2944 13.8191C62.4667 14.5574 62.3929 15.3943 62.2206 16.0834ZM62.8359 12.2931C62.639 12.1208 62.3929 11.9977 62.1468 11.9239C61.7283 11.8008 61.2853 11.8747 60.8669 12.0716C60.8423 12.0962 60.8177 12.0962 60.7931 12.1208C59.7101 12.6869 58.9717 13.9421 58.6025 15.0497C58.4056 15.6404 58.258 16.3296 58.2334 16.9941V17.4371C58.2826 18.3724 58.6272 19.2092 59.6117 19.6523C60.0055 19.8492 60.4977 19.7015 60.8669 19.5046C60.8915 19.5046 60.9161 19.48 60.9407 19.4554C61.9745 18.8646 62.7867 17.6586 63.1313 16.5265C63.5251 15.3204 63.8943 13.253 62.8359 12.2931ZM71.4257 11.8993H70.072C70.1951 11.0625 70.2935 10.201 70.3674 9.33958C70.392 8.99501 70.6135 8.87194 70.9334 8.84733C71.155 8.82272 71.4749 8.87194 71.6964 8.92117L71.918 8.99501V7.91205L71.7703 7.88744C70.6627 7.78899 69.8997 8.33047 69.4075 9.29036C69.0875 9.93028 68.8906 10.7917 68.866 11.5055C68.8414 11.9239 68.546 12.17 68.1276 12.1454L67.9307 12.1208V12.6131H68.7183C68.5706 14.0652 68.3984 15.5173 68.2261 16.9941C68.1276 17.8801 68.0292 18.7662 67.9061 19.6523C67.8323 20.2183 67.783 20.7844 67.66 21.3259C67.5369 22.0397 67.02 22.8519 66.4293 23.2949L66.3555 23.3441V23.861L66.5278 23.8364C67.1923 23.7872 67.7092 23.4426 68.0784 22.9011C68.4722 22.335 68.7922 21.449 68.8906 20.7598C69.2106 18.0278 69.5551 15.2958 69.8997 12.5638H71.3765V11.8993H71.4257ZM56.4613 16.5018C56.1167 17.2156 55.6983 17.8063 55.2798 18.2247C54.7876 18.717 54.32 18.9139 53.9754 18.7416C53.3108 18.4216 53.4093 16.871 54.1231 15.3204C54.4676 14.6067 54.8614 13.9914 55.2798 13.5976C55.7721 13.1053 56.2644 12.8838 56.6089 13.0561C57.2489 13.4007 57.1996 14.9266 56.4613 16.5018ZM56.5105 16.428C56.5351 16.3788 56.5351 16.3542 56.5597 16.3296C56.5351 16.3788 56.5105 16.4034 56.5105 16.428ZM57.175 12.047C56.5351 11.7516 55.8213 12.1454 55.3045 12.5884C55.2306 12.6377 55.1814 12.7115 55.1076 12.7607C54.6399 13.2038 54.2461 13.7452 53.9015 14.3113C53.9754 13.5976 54.0492 12.9084 54.1231 12.2193C54.1969 11.5301 53.9508 11.8993 53.6308 12.047C53.2616 12.2193 52.474 12.4162 52.2525 12.4654L52.1294 12.49V13.0807L52.3263 13.0315C52.5232 13.0069 52.6955 12.9576 52.8924 12.933C52.6955 14.6805 52.474 16.4526 52.2771 18.2247C52.1294 19.4061 52.0064 20.5875 51.8587 21.7689C51.7849 22.4089 51.711 23.0488 51.6126 23.6887L51.588 23.9348L51.8341 23.8856C52.0556 23.8364 52.2771 23.7872 52.5232 23.7379L52.6463 23.7133L52.6709 23.5903C52.8186 22.5565 52.9663 21.5228 53.1632 20.4891C53.2124 20.2183 53.2616 19.923 53.3108 19.6523C53.9754 19.9968 54.7138 19.6769 55.2798 19.2338L55.3045 19.2092C56.0921 18.5939 56.732 17.6586 57.175 16.7726C57.5934 15.8865 57.938 14.8282 57.938 13.8683C57.9872 13.2038 57.8396 12.3669 57.175 12.047ZM74.5023 14.139C74.3792 14.459 73.9116 15.0251 73.2716 15.4927C72.8778 15.7881 72.4102 16.0342 71.918 16.1819C72.041 14.2129 72.6071 13.7206 72.7548 13.5237C72.9025 13.3022 73.0747 13.1299 73.2716 12.9822C73.6162 12.7607 73.9608 12.6869 74.2315 12.81C74.6499 13.0315 74.7484 13.5976 74.5023 14.139ZM75.1668 12.047C75.093 11.9977 75.0191 11.9485 74.9207 11.9239C74.3546 11.7024 73.7639 11.8501 73.247 12.1454C73.1978 12.17 73.1486 12.2193 73.0994 12.2439C72.2133 12.8592 71.5488 13.9175 71.1796 14.902C70.9088 15.5912 70.7365 16.3542 70.7119 17.0925V17.2894C70.7119 17.4371 70.7365 17.5602 70.7365 17.6832C70.8104 18.3724 71.0565 19.16 71.6964 19.5292C71.7949 19.5784 71.8933 19.6276 71.9672 19.6523C72.3856 19.7999 72.8532 19.7015 73.247 19.5046H73.2716C73.9854 19.16 74.7484 18.3724 75.216 17.7325L75.3145 17.5848L75.1668 17.4863C75.093 17.4371 75.0191 17.3879 74.9207 17.3387L74.7976 17.2648L74.6992 17.3633C74.3054 17.7817 73.7639 18.3232 73.247 18.5939C73.1978 18.6185 73.1732 18.6431 73.124 18.6431H73.0994C72.361 18.9877 72.0902 18.4955 71.9918 17.8309C71.9426 17.511 71.918 17.1172 71.9426 16.7726C72.3856 16.6249 72.8286 16.4526 73.247 16.2311H73.2716C74.2069 15.7389 75.093 14.9513 75.4622 13.9421C75.536 13.696 75.6098 13.4253 75.6098 13.1299V13.1053C75.6344 12.6869 75.5114 12.2931 75.1668 12.047ZM72.7056 13.5976C72.7056 13.5976 72.6809 13.5976 72.7056 13.5976C72.6809 13.5976 72.7056 13.5976 72.7056 13.5976ZM52.0064 18.2001C52.0802 18.1263 52.2033 18.0032 52.1048 17.8555C52.0064 17.7079 51.8095 17.8309 51.6864 17.9048C51.4649 18.0278 51.268 18.1755 51.0711 18.2986C50.9726 18.3724 50.3081 18.8154 50.1604 18.6924C50.0866 18.6185 50.1112 18.2493 50.1112 18.1509C50.1604 17.7571 50.2343 17.3879 50.2835 16.9941C50.3081 16.7726 50.3081 16.5511 50.3327 16.3296C50.3573 16.1327 50.4066 15.9358 50.4312 15.7635C50.5542 15.0497 50.6527 14.3605 50.7757 13.6468C50.8496 13.1791 50.8742 12.2685 50.3819 12.0224C50.0374 11.8501 49.6436 12.0716 49.3728 12.2931C48.856 12.7115 48.3637 13.4253 48.0191 13.9914C47.9207 14.1636 47.8222 14.3605 47.7238 14.5574C47.5761 14.8528 47.453 15.1481 47.3054 15.4435C47.2069 15.665 47.1085 15.8619 47.01 16.0834C47.0592 15.6404 47.0839 15.1974 47.1331 14.779C47.1823 14.1883 47.2315 13.5729 47.2808 12.9822C47.3054 12.6623 47.2315 12.2931 46.9608 12.1208C46.4193 11.7762 45.6071 12.3915 45.2379 12.7607C44.8441 13.1545 44.4749 13.7945 44.2042 14.2867C43.9581 14.7051 43.7365 15.1728 43.515 15.6404C43.5643 15.1481 43.6135 14.6559 43.6873 14.1636C43.7365 13.7452 43.7858 13.3022 43.835 12.8838C43.8596 12.6623 43.8842 12.4408 43.9334 12.2193C44.0073 11.8008 43.8596 11.8255 43.5643 12.0224C43.2689 12.2193 42.3829 12.4408 42.1613 12.5146L42.0383 12.5392V13.0561L42.2352 13.0315C42.4075 13.0069 42.5798 12.9822 42.752 12.9576C42.5059 15.1235 42.2844 17.2894 42.0383 19.4307L42.0137 19.6523L42.2106 19.6276C42.4321 19.603 42.629 19.603 42.8505 19.5784H42.9489L42.9736 19.48C43.1458 18.9139 43.3427 18.3724 43.515 17.8063C43.7365 17.2156 43.9581 16.6249 44.2042 16.0096C44.3026 15.7635 44.4503 15.4927 44.5734 15.2712C44.918 14.6559 45.3364 14.0406 45.804 13.4991C45.8532 13.4499 46.0501 13.2038 46.1486 13.2038C46.247 13.3022 46.1978 13.9667 46.1978 14.0898C46.1732 14.3359 46.1486 14.5574 46.0994 14.8036C46.0994 14.8774 46.0501 15.0743 46.0501 15.1481C46.0255 15.3943 45.9763 15.6158 45.9517 15.8619C45.8778 16.3542 45.8286 16.871 45.7794 17.3633C45.6809 18.1017 45.6071 18.84 45.5087 19.603L45.484 19.7999H45.6809C45.9271 19.7999 46.1978 19.7507 46.4193 19.7015L46.4932 19.6769L46.5178 19.6276C46.6654 19.4061 46.7393 18.9877 46.7639 18.7416C46.8377 18.4462 46.9854 18.1017 47.0839 17.8063C47.1823 17.5602 47.3054 17.3141 47.4038 17.0679C47.453 16.9695 47.5515 16.748 47.5761 16.6249C47.6746 16.3788 47.8468 16.0342 47.9699 15.8127C48.3145 15.1728 48.6837 14.5328 49.0775 13.9421C49.1513 13.8437 49.4959 13.3514 49.6436 13.3268C49.7174 13.4007 49.7174 13.7206 49.7174 13.8191C49.4959 15.3204 49.2744 16.8464 49.0283 18.3478C48.8314 19.7015 49.4467 20.1199 50.5542 19.4307C50.8496 19.2585 51.1942 18.9877 51.4403 18.7662C51.5633 18.6677 51.6618 18.5693 51.7849 18.4708C51.8587 18.3478 51.9325 18.274 52.0064 18.2001ZM39.6016 13.7945C39.4293 14.2867 38.691 16.1819 37.9526 17.4371C37.6572 17.954 37.3373 18.3724 37.0912 18.5201C36.2543 19.0369 36.0574 18.2739 36.2297 16.6495C36.3774 15.0251 37.3865 13.5976 37.8541 13.253C37.8788 13.2284 37.9034 13.2038 37.9526 13.1791C38.5433 12.81 39.6262 13.0069 39.6262 13.0069C39.6262 13.0069 39.8231 13.0315 39.6016 13.7945ZM39.6016 13.7698C39.6016 13.7452 39.6262 13.7206 39.6262 13.696C39.6262 13.7206 39.6016 13.7452 39.6016 13.7698ZM40.9061 18.2986L40.783 18.2247L40.6846 18.3232C40.6108 18.4216 40.2908 18.6924 40.1677 18.6431C40.0447 18.5939 40.0693 18.077 40.0693 18.0032C40.1431 17.1172 40.2416 16.2065 40.3646 15.3204C40.4877 14.2375 40.6354 13.1545 40.783 12.0716C40.8323 11.6532 40.1677 11.9977 40.02 12.17C39.9954 12.17 39.9708 12.1454 39.9708 12.1454C39.4786 11.8993 38.7894 11.9485 38.2972 12.17C38.1741 12.2439 38.0757 12.2931 37.9526 12.3423C37.9034 12.3669 37.8541 12.3915 37.8049 12.4162C36.3282 13.3268 35.5898 14.902 35.2698 16.5511C35.1468 17.2402 35.0483 18.1509 35.319 18.8154C35.4913 19.2338 35.8113 19.5784 36.3035 19.6523C36.722 19.7015 37.1404 19.5538 37.4357 19.2831C37.6326 19.1354 37.8049 18.9139 37.9526 18.717C37.9772 18.6677 38.0018 18.6431 38.051 18.5939C38.4448 18.0278 38.814 17.3387 39.134 16.6741C39.0848 17.1664 39.0602 17.6586 39.0602 17.8309C39.0109 18.0524 39.0109 18.4955 39.0355 18.717C39.0602 19.0123 39.1586 19.3815 39.4047 19.5538C39.6509 19.7261 39.9708 19.6523 40.217 19.5046C40.5615 19.3323 41.0292 18.9877 41.1522 18.6185L41.1768 18.5447L41.1276 18.4708C41.0784 18.4462 40.9799 18.3724 40.9061 18.2986ZM34.5068 17.7571L34.4822 17.4617L34.2361 17.634C33.2024 18.3478 31.9225 18.6677 30.6673 18.4216C29.0921 18.1263 27.886 17.0187 27.2461 15.5666C26.3847 13.6222 26.5077 11.5055 28.1322 10.0287C28.7475 9.48726 29.5105 9.09346 30.3473 8.94578C31.0611 8.82272 31.8487 8.87194 32.4886 9.24113C33.2024 9.65954 33.5716 10.3487 33.7192 11.1363V11.1609V11.1855C33.7931 11.3578 33.99 11.3332 34.1376 11.284L34.2361 11.2348V8.79811L34.1623 8.74888C33.2516 8.18279 32.2425 7.93667 31.1841 7.93667C27.9599 7.93667 25.351 10.5456 25.351 13.7698C25.351 16.9941 27.9599 19.6523 31.1841 19.6523C32.144 19.6523 33.6208 19.0616 34.4822 18.6185L34.5807 18.5693L34.5561 18.4708C34.5561 18.2247 34.5314 17.9786 34.5068 17.7571Z" fill="#0F1B21"/>
<path d="M9.40201 8.88514C9.57429 8.51595 9.62352 8.24521 9.62352 8.24521C9.62352 8.24521 9.72197 7.87603 9.89426 7.85141C9.91887 7.85141 9.9681 7.85141 9.99271 7.87603C9.99271 7.87603 9.9681 7.85141 9.99271 7.87603C10.0912 7.92525 10.2142 8.04831 10.3127 8.26983C10.5834 8.86053 10.6819 9.27894 10.7065 9.54968C10.7065 9.96809 10.5834 10.165 10.5096 10.4111C10.4357 10.6819 10.3127 10.8541 10.2142 10.9034C10.1404 10.9526 10.0665 10.928 9.99271 10.8788C9.94348 10.8541 9.86964 10.7803 9.82042 10.6572C9.59891 10.3127 9.40201 9.94348 9.32817 9.57429C9.27894 9.35278 9.27894 9.10665 9.40201 8.88514ZM9.74658 10.9772C9.82042 11.1003 9.91887 11.1741 9.99271 11.2233C10.0912 11.2479 10.1404 11.2726 10.2142 11.2479C10.4111 11.2233 10.5834 10.9772 10.6819 10.6326C10.7557 10.3865 10.928 10.165 10.9526 9.77119C10.9772 9.42662 10.8541 8.90975 10.4111 8.09754C10.2634 7.80219 10.1158 7.67912 9.99271 7.60529C9.94348 7.58067 9.89426 7.58067 9.86965 7.58067C9.62352 7.6299 9.47584 8.04831 9.47584 8.04831C9.47584 8.04831 9.45123 8.39289 9.2051 8.8113C8.78669 9.47584 9.22972 10.2634 9.74658 10.9772ZM4.23336 4.13491C4.23336 4.15953 4.20875 4.15953 4.23336 4.13491C4.20875 4.15953 4.23336 4.13491 4.23336 4.13491ZM4.20875 4.15953C4.20875 4.18414 4.18414 4.20875 4.15953 4.23336C4.18414 4.20875 4.20875 4.18414 4.20875 4.15953ZM14.6691 1.87056C14.6937 1.89517 14.6937 1.89517 14.6691 1.87056C14.6937 1.89517 14.6691 1.87056 14.6691 1.87056ZM18.1395 13.66C17.6718 13.66 17.3765 13.3646 16.9088 13.3646C16.515 13.3646 16.2689 13.4631 15.8505 13.5123C15.6044 13.5369 15.3829 13.5369 15.186 13.5861C15.0137 13.6108 14.866 13.6846 14.7183 13.8077L14.6691 13.8569C13.9307 14.5953 13.5369 15.4075 12.5032 15.4075C12.4047 15.4075 12.3555 15.3582 12.3063 15.2844C12.2817 15.2352 12.2325 15.2106 12.2078 15.186L12.2817 11.3956C12.2817 11.3956 12.2817 11.3956 12.3063 11.3956C13.0693 11.0264 13.783 10.7803 14.6691 10.7065C14.8168 10.6819 14.9891 10.6819 15.1614 10.6819H15.186C16.3674 10.6819 17.1796 10.7557 18.0656 11.4695C18.5825 11.8633 18.5333 12.4294 18.5333 13.0693C18.5087 13.34 18.3364 13.66 18.1395 13.66ZM15.1614 22.7174C14.9891 22.9143 14.8168 23.0866 14.6445 23.2589C13.8323 24.0957 12.9954 24.7849 12.2817 25.2033C12.1094 25.3017 11.9371 25.4002 11.7894 25.474C11.6664 25.5232 11.5679 25.5725 11.4448 25.5971C11.2726 25.6463 11.1003 25.6709 10.9526 25.6463C10.8541 25.6463 11.0757 25.5232 11.4448 25.2279C11.5433 25.1541 11.6664 25.0556 11.7894 24.9572C11.9371 24.8095 12.1094 24.6618 12.2817 24.4895C12.7985 23.948 13.3892 23.1604 13.7584 22.1021C14.0538 21.2899 14.3491 20.5761 14.6445 20.01C14.8168 19.6901 14.9891 19.3947 15.1614 19.124C16.7612 16.6873 18.3364 16.6873 18.3364 16.8104C18.2133 18.6317 16.7858 20.9207 15.1614 22.7174ZM10.1158 24.6126C10.1404 24.6126 10.1404 24.588 10.165 24.588C10.1404 24.588 10.1404 24.588 10.1158 24.6126ZM7.55606 25.2279C6.89152 25.1294 6.30082 24.8587 5.75934 24.4895C5.19325 24.0957 4.67639 23.5789 4.25798 23.0866L4.23336 23.062C4.06108 22.8405 3.9134 22.6436 3.76573 22.4467C3.34731 21.856 3.10119 21.3883 3.10119 21.3883C3.10119 21.3883 3.34731 21.1914 3.76573 20.8961C3.88879 20.7976 4.06108 20.6746 4.23336 20.5515L4.25798 20.5269C4.67639 20.2069 5.21787 19.8131 5.75934 19.4193C5.78396 19.3947 5.80857 19.3947 5.80857 19.3701C7.28532 18.3118 8.26983 18.804 8.83592 20.8961C9.03282 21.6098 9.52507 21.9298 10.0665 22.1021C10.5096 22.2005 11.0018 22.2005 11.4202 22.1513C11.5433 22.1267 11.6664 22.1267 11.7648 22.1021C11.9617 22.0775 12.134 22.0283 12.2571 22.0036C12.4786 21.9544 12.6016 21.9052 12.6016 21.9052C12.6016 21.9052 12.6016 21.9298 12.2571 22.3236V22.3482C12.134 22.4959 11.9863 22.6928 11.7648 22.9635C11.691 23.062 11.5925 23.185 11.4941 23.3081L11.4202 23.382C10.9772 23.948 10.5096 24.3418 10.0665 24.6372C9.22972 25.2033 8.34367 25.351 7.55606 25.2279ZM2.23975 19.4686C2.23975 19.4932 2.23975 19.4932 2.23975 19.4686C2.23975 19.3947 2.23975 19.3209 2.23975 19.3209C2.21513 19.247 2.09207 18.9025 1.99362 18.5333C1.84594 18.1149 1.52598 17.5734 1.42753 17.2534C1.32908 16.9335 1.10757 15.6536 1.10757 15.1121C1.10757 14.5706 1.40292 14.8414 1.69827 15.0875C1.89517 15.2352 2.06746 15.309 2.23975 15.3336H2.26436C2.38742 15.3582 2.48587 15.3583 2.58432 15.3829C2.83045 15.3829 3.05196 15.6044 3.47038 15.3829C3.83956 15.2106 3.79034 15.5305 3.83956 15.629C3.86418 15.7274 3.96263 15.9736 4.01185 16.2689C4.03646 16.515 4.03646 17.2534 4.28259 17.7949C4.28259 17.8195 4.3072 17.8195 4.3072 17.8441C4.33181 17.8687 4.35643 17.918 4.35643 17.9426C4.60255 18.3856 4.38104 18.5825 4.3072 18.6563H4.28259C4.25798 18.7056 4.13491 18.8778 3.81495 19.1732C3.64266 19.3209 3.42115 19.5178 3.15041 19.7147C2.46126 20.2315 2.28897 19.7393 2.23975 19.4686ZM0.959891 12.8724C0.984504 12.7985 1.1814 11.1249 1.1814 10.5096C1.20602 9.89426 1.57521 7.87603 1.94439 7.45761C2.06746 7.28532 2.16591 7.11304 2.21513 6.94075L2.23975 6.91614C2.3382 6.67001 2.41203 6.52233 2.60893 6.59617C2.90429 6.69462 2.85506 6.94075 2.70738 7.2361C2.55971 7.50684 2.78122 8.26983 3.10119 8.44211C3.39654 8.58979 3.7165 9.64813 3.3227 10.9034C2.95351 12.1586 3.00274 12.577 3.22425 13.5123C3.22425 13.5123 3.39654 13.8815 3.3227 14.0784C3.22425 14.3737 2.75661 14.0538 2.23975 13.783H2.21513C1.96901 13.6354 1.67366 13.5123 1.47675 13.5123C0.812215 13.4631 0.959891 12.9462 0.959891 12.8724ZM3.79034 5.07019C3.86418 4.72562 4.06108 4.45488 4.23336 4.13491C4.23336 4.1103 4.25798 4.08569 4.25798 4.06108L4.28259 4.01185C4.45488 3.66727 4.60255 3.34731 4.97174 3.17502C5.19326 3.07657 5.51322 2.83045 5.66089 2.68277C5.73473 2.63355 5.78396 2.55971 5.83318 2.51048C6.17776 2.11668 6.39927 1.96901 7.01458 1.87056C7.33455 1.91978 7.28532 2.28897 7.33455 2.65816C7.55606 3.24886 7.80219 3.54421 7.80219 4.1103C7.80219 4.47949 7.72835 4.67639 7.65451 4.99635V5.75934C6.98997 5.75934 6.52233 5.90702 5.98086 6.15315H4.97174L4.5041 6.39927C4.43026 6.42388 4.35643 6.42388 4.3072 6.42388H4.28259C4.15953 6.42388 4.08569 6.35005 3.93801 6.2516C3.93801 6.03008 3.86417 5.85779 3.81495 5.66089C3.79034 5.58706 3.76573 5.48861 3.76573 5.36554C3.74111 5.26709 3.76572 5.16864 3.79034 5.07019ZM7.60529 13.2416C7.90064 13.66 7.65451 15.1121 7.70374 16.1705C7.77758 17.2288 7.48223 17.1796 6.67001 17.5734C6.20237 17.8195 5.95624 17.7949 5.75934 17.6226C5.61167 17.4995 5.51322 17.3026 5.34093 17.0319C4.87329 16.392 5.11942 16.2935 4.40565 14.103C4.35643 13.9799 4.33181 13.8323 4.28259 13.7338C4.28259 13.7092 4.25798 13.6846 4.25798 13.66C3.96263 12.5524 4.06108 11.9125 4.25798 11.4448C4.25798 11.4202 4.28259 11.4202 4.28259 11.3956C4.40565 11.1249 4.55333 10.928 4.62717 10.7065C4.79945 10.3373 5.39015 10.485 5.78396 10.6326C5.98086 10.7065 6.12853 10.7803 6.12853 10.7803C6.12853 10.7803 6.81768 11.1003 7.11304 11.2479C7.40839 11.3464 7.433 11.2233 7.72835 11.4695C7.90064 11.5925 7.70374 11.8387 7.70374 12.1586C7.67913 12.6755 7.55606 12.7247 7.60529 13.2416ZM7.85141 7.433C7.77758 7.92525 7.77758 8.36828 7.70374 9.03282C7.6299 9.64813 7.6299 10.2388 6.67001 9.84503C6.37466 9.72197 6.05469 9.62352 5.75934 9.52507C5.2917 9.35278 4.92252 9.25433 4.8979 9.25433C4.84868 9.25433 4.40565 9.22972 4.3072 8.86053C4.25798 8.78669 4.3072 8.73747 4.25798 8.71285C4.25798 8.71285 4.23336 8.68824 4.23336 8.66363C4.18414 8.58979 4.15953 8.39289 4.23336 8.17138V8.14676C4.23336 8.12215 4.25798 8.09754 4.25798 8.04831C4.3072 7.77758 4.23337 7.58067 4.82407 7.58067C5.24248 7.58067 5.51322 7.58067 5.75934 7.53145C5.93163 7.50684 6.0547 7.50684 6.20237 7.45761C6.57156 7.38377 6.94075 7.33455 6.94075 7.33455C6.94075 7.33455 7.92525 6.96536 7.85141 7.433ZM7.87603 7.2361C7.90064 7.21149 7.90064 7.21149 7.87603 7.2361V7.2361ZM8.93437 1.32908C9.45123 1.32908 9.82042 1.32908 10.0912 1.30447C10.3373 1.30447 10.4603 1.27985 10.4603 1.27985C10.4603 1.27985 11.0018 1.23063 11.4448 1.40292C11.5679 1.45214 11.691 1.52598 11.7894 1.62443C11.8879 1.77211 11.9617 1.94439 11.9125 2.19052C11.7402 3.29809 11.9125 4.62717 11.9125 5.19325C11.8879 5.53783 11.8633 6.32543 11.7894 7.08842C11.7402 7.72835 11.6418 8.34366 11.5187 8.63902C11.4941 8.68824 11.4695 8.73747 11.4448 8.78669C11.1987 9.47584 11.0757 10.4111 11.1495 11.1987C11.1741 12.1094 10.7803 20.33 10.7803 20.33C10.7803 20.33 10.7065 21.856 10.0912 20.8961C10.0173 20.773 9.91887 20.5761 9.82042 20.33C8.98359 18.361 8.36828 17.6964 8.46673 15.1613C8.56518 12.6263 8.71285 8.26983 8.90975 7.92525C9.08204 7.55606 9.13127 5.95624 8.90975 4.65178C8.68824 3.37192 8.36828 2.46126 8.36828 2.14129C8.31905 1.87056 7.94986 1.32908 8.93437 1.32908ZM12.3063 18.3118V18.2871C12.454 18.0164 12.6755 17.6718 12.9708 17.2042C13.5615 16.2935 14.1522 15.6536 14.6691 15.2352C14.8414 15.0875 15.0137 14.9891 15.186 14.8906C16.9827 13.8323 18.1395 15.2844 18.1395 15.2844C18.1395 15.2844 16.1212 16.3181 15.186 17.7949C15.0137 18.0656 14.866 18.3364 14.7922 18.6563C14.7675 18.7794 14.7183 18.8778 14.6691 19.0009C14.2015 20.0839 12.9462 20.7484 12.3063 20.9453C12.1094 21.0191 11.9863 21.0191 11.9863 20.9453C12.0109 19.4686 11.7648 19.3455 12.3063 18.3118C12.2078 18.4594 11.814 19.2224 12.3063 18.3118ZM12.4294 9.62352C12.4294 9.22972 12.6509 9.0082 12.6509 8.6144C12.6509 8.36828 12.6755 8.07293 12.9462 8.07293H14.2999C14.423 8.0237 14.546 7.99909 14.6937 7.97448C14.866 7.92525 15.0383 7.90064 15.2106 7.85141C15.8751 7.70374 16.4166 7.6299 17.2534 7.6299C17.6964 7.6299 17.7949 8.04831 17.9426 8.49134C18.1149 9.05743 18.1887 9.35278 18.1887 9.94348V10.5096C17.4749 10.3373 17.0565 10.2881 16.3674 10.1896C15.8997 10.1158 15.5305 10.0419 15.186 9.96809C15.0137 9.94348 14.8414 9.91887 14.6691 9.89426C14.4476 9.86964 14.2261 9.84503 13.9553 9.84503C13.4385 9.84503 12.8232 9.74658 12.5032 10.1158C12.3063 10.0665 12.4294 9.84503 12.4294 9.62352ZM12.6016 6.17776C12.6509 5.85779 12.6016 5.71012 12.7247 5.43938L12.7985 3.15041C12.7985 2.90428 12.5032 2.58432 12.6509 2.51048C12.9708 2.38742 13.8323 2.83045 14.6691 3.49499C14.8414 3.64266 15.0137 3.79034 15.186 3.93801C15.9982 4.701 16.6873 5.63628 16.7119 6.39927C16.7119 6.54695 16.0228 6.49772 16.0228 6.49772L15.1614 6.67001L14.6445 6.79307L13.8323 6.96536C13.8323 6.96536 12.7493 7.11304 12.6016 6.96536C12.4294 6.79307 12.6016 6.17776 12.6016 6.17776ZM15.1614 2.31358C14.9891 2.16591 14.8168 2.01823 14.6445 1.87056C13.8815 1.30447 13.1185 0.812215 12.2817 0.492252C12.1094 0.418414 11.9617 0.369189 11.7894 0.319964C11.6664 0.295351 11.5679 0.246126 11.4448 0.221513C11.0018 0.0984503 10.5588 0.0492252 10.0912 0.0246126C9.96809 0.0246126 9.84503 0 9.72197 0C8.31905 0 6.98997 0.418414 5.78396 1.1814C5.26709 1.50137 4.77484 1.89517 4.28259 2.3382L4.25798 2.36281C4.1103 2.51048 3.93801 2.68277 3.79034 2.83045C3.22425 3.44576 2.70739 4.13491 2.23975 4.8979L2.21513 4.92252C0.836828 7.26071 0 10.2388 0 13.4877C0 16.7366 0.836828 19.7393 2.21513 22.0775L2.23975 22.1021C2.70739 22.8897 3.22425 23.5789 3.79034 24.1942C3.93801 24.3665 4.08569 24.5141 4.25798 24.6618L4.28259 24.6864C4.77484 25.1294 5.26709 25.5232 5.78396 25.8432C6.98997 26.5816 8.34367 27 9.74658 27C9.86965 27 9.99271 27 10.1158 27C10.5834 26.9754 11.0264 26.9262 11.4695 26.8031C11.5925 26.7785 11.691 26.7293 11.814 26.7046C11.9863 26.6554 12.134 26.6062 12.3063 26.5324C13.1431 26.2124 13.9307 25.7448 14.6691 25.1541C14.8414 25.0064 15.0137 24.8587 15.186 24.711C17.7703 22.2744 19.4932 18.1641 19.4932 13.5123C19.4685 8.86053 17.7703 4.75023 15.1614 2.31358ZM4.13491 4.28259C4.13491 4.3072 4.1103 4.33181 4.13491 4.28259Z" fill="#0F1B21"/>
</svg>
