<?xml version="1.0" encoding="UTF-8"?>
<!-- Generator: Adobe Illustrator 19.0.0, SVG Export Plug-In . SVG Version: 6.00 Build 0)  -->
<svg version="1.1" id="Capa_1" xmlns="http://www.w3.org/2000/svg" xmlns:xlink="http://www.w3.org/1999/xlink" x="0px" y="0px" viewBox="0 0 204.3 174.3" style="enable-background:new 0 0 204.3 174.3;" xml:space="preserve">
<style type="text/css">
	.st0{fill:#487F48;}
	.st1{fill:#F0C72F;}
	.st2{fill:#345C91;}
	.st3{fill:#B74330;}
	.st4{fill:#0F1B21;}
</style>
<g id="XMLID_23_">
	<path id="XMLID_94_" class="st0" d="M98.8,106.6c-0.5,0,4.6-2.3,9.4-6.3c3.8-3,7.8-8,9.8-12.4c1.2-3.9,3.1-5.7,4.7-7.8   c1-1.3,2.8-3.9,3.5-4.9c2.5-2.8,5.2-6.8,7.2-8c2.5-1.3,7.2-2.9,7.4-2.6c0.1,4.6-1.8,11.6-4,16.7c-2.5,5.9-7.2,12.4-11.5,17   c-5.3,6.1-11.1,7.7-16.1,8.9C106.8,108,98.8,107.3,98.8,106.6C98.8,106.6,98.8,107.3,98.8,106.6"/>
	<path id="XMLID_93_" class="st0" d="M141.1,60c0,0-3.9-3.3-8.4-3.6c-3.7-0.6-8.6,1.1-10.6,4.3c-2.1,1.6-8.1,7.2-10.7,9.6   c-1.4,7.8-0.5,10.2-0.5,17.6c0,0.2,6.5-1.3,8.1-1.6c1.8-1.9,4.1-6.7,6.2-9.4c2.2-2.3,5.2-6.4,7.8-9.4l8-3.3L141.1,60z"/>
	<path id="XMLID_92_" class="st1" d="M107.8,1.6c0,0,2.4,0.1,4.2,0.9c1.2,0.4,2.4,1.3,2.8,2.3l0.1,0.4c1.9,3.5-0.4,14-0.4,16.2   c0,2.5-1.1,12.9-1.6,14.9c-0.5,2-1.4,6.1-1.4,9.6c0,1.6-0.1,10.9-0.4,19.5c-0.3,8.7,0.1,21.6-0.2,22.5c0,0-2.3,0.3-3.2,0.3   c-0.3,0-3.1-0.3-5.3-4.2c-2.3-4-4.8-9.4-5.3-11.7c-0.3-2.7,0-6.7,0-10.4c0-10.2,1.3-30,1.3-30.6c0-0.4-0.1-3-0.3-5.5   c0-2.2,0.4-4.5,0.3-6.4c-0.6-4.5-2.7-9.7-2.7-10.7c0-1.3-2.3-6.6,3-6.4C100.2,1.6,106.3,1.2,107.8,1.6   C107.8,1.6,106.3,1.2,107.8,1.6"/>
	<path id="XMLID_91_" class="st2" d="M94.5,3.6c-4.8,0.4-19.2,13-18.8,16.8c0,1.2,1.8,4.4,1.8,5.8c0.9,0.6,0.7,5.8,1.9,5.5l4.6-3.6   l4.2-0.2c2.3-0.1,7.2-1,9.9-2l0.3-3.9c0.3-1.3-0.3-3.3-0.3-4.8c0-2.4-2.4-6.2-2.4-8.4C95.7,8.3,95.8,3.8,94.5,3.6   C94.5,3.6,95.8,3.8,94.5,3.6"/>
	<path id="XMLID_90_" class="st3" d="M114.8,5c-1,0-0.4,14.5-0.6,16.9c-0.4,1.2-0.9,9.3-0.9,9.3s6.9-0.3,7.2-0.3l8.9-2   c0,0,4-0.2,6.3-0.6c0-3.2-3.5-9.7-7.4-13.9C123.5,8.7,116.3,4.1,114.8,5C114.8,5,116.3,4.1,114.8,5"/>
	<path id="XMLID_89_" class="st1" d="M111.2,43.2c0,0.3,8.8-1,9.3-1c3.8,0,6.9,0.3,10.2,0.6c2.2,0.1,6.9,2,9.9,2.7   c0-2.7-3-17.2-4.9-17.2c-4.7,0-9.6,0.7-14.3,1.9l-8.1,1C113.1,31.9,111.2,42.3,111.2,43.2C111.2,43.2,111.2,42.3,111.2,43.2"/>
	<path id="XMLID_88_" class="st2" d="M111.5,43.2L110.9,70v2.9l0.2-0.2c0,0,0.1-1.6,1.9-3.8c2.3-1.5,7-6.2,7.5-6.5   c3.5-3.3,5.6-6.1,12.4-6.1c1.9,0,6.1,2.8,8,3.3c1.5,0,0.9-12.9-0.3-14.3c-3.7-1.5-9.9-3-14.8-3.2C121,41.9,115.1,42.1,111.5,43.2   C111.5,43.2,115.1,42.1,111.5,43.2"/>
	<path id="XMLID_87_" class="st0" d="M119.3,85.8c0,0-7,2.5-11.5,2.3c-2.9-0.2-5.5-3.6-6.2-5.8c-1-4-3.6-7.7-4.6-10.3   c-2.4-0.5-9.3,3.3-11.5,4.9c-5.5,3.6-12.4,8.4-12,9.3c0,0,7.3,13,14.5,16.5c2.5,1.1,6.5,4.3,10.6,3.9c3.7-1.4,9.4-5.6,13.6-9.4   C116.3,92.3,119.3,85.8,119.3,85.8"/>
	<path id="XMLID_86_" class="st0" d="M73.4,86.1c3.1-2.2,12.1-8.7,13.8-10c-2.3-2.3-4.4-6.5-4.4-9.9c0-0.7-1.9-6.2-2.1-6.7   c-0.1-0.4-1.9,0.6-2.5,0.6c-0.9,0-2.8-0.9-3.7-0.9c-1,0-7.2-2-7.8-2.5c-0.6-0.3,0.2,2.5,0.2,4.6c0,2.2,1.3,8.9,1.3,9.9   C68.1,72,73.2,86.2,73.4,86.1C73.4,86.1,73.2,86.2,73.4,86.1"/>
	<path id="XMLID_85_" class="st3" d="M80.5,59.9c-0.6,1.7-11.9-1.9-14-2.9l-0.6-4.5c0.1-0.3,1.2-7.1,1.2-9.4   c0-2.4,2.6-12.5,3.5-13.6c0.9-1.3,4.2-8.7,5-8.7c2.8,0.4,1.9,7.2,3.1,9.4c0.4,0.3,2.7,8.1,1.6,12.6c-0.9,4.5-1.8,7.8-0.9,11.6   C79.4,54.3,80.8,59,80.5,59.9C80.5,59.9,80.8,59,80.5,59.9"/>
	<path id="XMLID_84_" class="st2" d="M86.7,40.7c0,0-5.7-2.9-6.2-1.2c-0.4,1.9-3,10.9-0.2,19.5c2.7,8.5,2.1,10.1,3.3,12   c0.9,1.6,2.2,5.8,2.9,5.2C89.3,75.1,95.7,73,97,72c-0.3-4.3,0.4-18.4,0.4-20c0.1-4.1,1.4-7.7,0.5-8.6c-1.2-0.9-4.3-0.7-4.9-0.7   C92.3,42.7,86.7,40.7,86.7,40.7"/>
	<path id="XMLID_83_" class="st1" d="M98,26c0,0,1.3,1.6,0.8,4c-0.2,1.7-0.8,5.9-0.8,8.4l-0.1,4.9c0,0-4.2-0.2-5.9-0.8   c-2.8-0.9-8.5-2.9-8.7-2.9c-0.2,0-3.2,0.3-3.2-1.3c0-1.8-1.3-4.6-1-6.4c0.1-0.8,1.6-4.1,4.2-4.1c2.8,0,4.7,0,6.2-0.3   C91,27.4,98,26,98,26"/>
	<path id="XMLID_82_" class="st3" d="M103,32.8c0,0,0.5-1.4,1.5-1.4c0.5,0,1.3,0.5,1.8,1.9c1,2.3,1.8,4.2,1.8,5.5   c0,2-0.9,3.1-0.9,3.8c0,0.8-0.9,2-1.6,2.3c-0.6,0.1-1.5-0.4-1.7-1c-0.3-0.7-1.5-2.4-1.9-3.6c-0.5-1.8-0.7-3.4,0.1-4.3   C102.4,35,103,32.8,103,32.8"/>
	<g id="XMLID_24_">
		<path id="XMLID_66_" class="st4" d="M149.8,142.5l-0.1,0.3c-0.8,3.2-2.4,8.2-5.5,9.9c-0.1,0.1-0.2,0.1-0.3,0.2    c-0.9,0.5-1.8,0.6-2.8,0.5c-0.2,0-0.4-0.1-0.5-0.2c-1.6-0.6-2.3-3-2.5-4.6c-0.4-2.8-0.1-6,0.6-8.8c0.7-3.1,2.5-8.3,5.5-10.2    c0.1-0.1,0.2-0.1,0.3-0.2c0.9-0.4,1.8-0.5,2.7-0.3c1.7,0.3,2.6,2.7,2.9,4.2C150.8,136.3,150.5,139.7,149.8,142.5 M152.3,127.1    c-0.8-0.7-1.8-1.2-2.8-1.5c-1.7-0.5-3.5-0.2-5.2,0.6c-0.1,0.1-0.2,0.1-0.3,0.2c-4.4,2.3-7.4,7.4-8.9,11.9    c-0.8,2.4-1.4,5.2-1.5,7.9v1.8c0.2,3.8,1.6,7.2,5.6,9c1.6,0.8,3.6,0.2,5.1-0.6c0.1,0,0.2-0.1,0.3-0.2c4.2-2.4,7.5-7.3,8.9-11.9    C155.1,139.4,156.6,131,152.3,127.1 M187.2,125.5h-5.5c0.5-3.4,0.9-6.9,1.2-10.4c0.1-1.4,1-1.9,2.3-2c0.9-0.1,2.2,0.1,3.1,0.3    l0.9,0.3v-4.4l-0.6-0.1c-4.5-0.4-7.6,1.8-9.6,5.7c-1.3,2.6-2.1,6.1-2.2,9c-0.1,1.7-1.3,2.7-3,2.6l-0.8-0.1v2h3.2    c-0.6,5.9-1.3,11.8-2,17.8c-0.4,3.6-0.8,7.2-1.3,10.8c-0.3,2.3-0.5,4.6-1,6.8c-0.5,2.9-2.6,6.2-5,8l-0.3,0.2v2.1l0.7-0.1    c2.7-0.2,4.8-1.6,6.3-3.8c1.6-2.3,2.9-5.9,3.3-8.7c1.3-11.1,2.7-22.2,4.1-33.3h6V125.5z M126.4,144.2c-1.4,2.9-3.1,5.3-4.8,7    c-2,2-3.9,2.8-5.3,2.1c-2.7-1.3-2.3-7.6,0.6-13.9c1.4-2.9,3-5.4,4.7-7c2-2,4-2.9,5.4-2.2C129.6,131.6,129.4,137.8,126.4,144.2     M126.6,143.9c0.1-0.2,0.1-0.3,0.2-0.4C126.7,143.7,126.6,143.8,126.6,143.9 M129.3,126.1c-2.6-1.2-5.5,0.4-7.6,2.2    c-0.3,0.2-0.5,0.5-0.8,0.7c-1.9,1.8-3.5,4-4.9,6.3c0.3-2.9,0.6-5.7,0.9-8.5c0.3-2.8-0.7-1.3-2-0.7c-1.5,0.7-4.7,1.5-5.6,1.7    l-0.5,0.1v2.4l0.8-0.2c0.8-0.1,1.5-0.3,2.3-0.4c-0.8,7.1-1.7,14.3-2.5,21.5c-0.6,4.8-1.1,9.6-1.7,14.4c-0.3,2.6-0.6,5.2-1,7.8    l-0.1,1l1-0.2c0.9-0.2,1.8-0.4,2.8-0.6l0.5-0.1l0.1-0.5c0.6-4.2,1.2-8.4,2-12.6c0.2-1.1,0.4-2.3,0.6-3.4c2.7,1.4,5.7,0.1,8-1.7    l0.1-0.1c3.2-2.5,5.8-6.3,7.6-9.9c1.7-3.6,3.1-7.9,3.1-11.8C132.6,130.8,132,127.4,129.3,126.1 M199.7,134.6    c-0.5,1.3-2.4,3.6-5,5.5v0c-1.6,1.2-3.5,2.2-5.5,2.8c0.5-8,2.8-10,3.4-10.8c0.6-0.9,1.3-1.6,2.1-2.2v0c1.4-0.9,2.8-1.2,3.9-0.7    C200.3,130.1,200.7,132.4,199.7,134.6 M202.4,126.1c-0.3-0.2-0.6-0.4-1-0.5c-2.3-0.9-4.7-0.3-6.8,0.9c-0.2,0.1-0.4,0.3-0.6,0.4    c-3.6,2.5-6.3,6.8-7.8,10.8c-1.1,2.8-1.8,5.9-1.9,8.9v0.8c0,0.6,0.1,1.1,0.1,1.6c0.3,2.8,1.3,6,3.9,7.5c0.4,0.2,0.8,0.4,1.1,0.5    c1.7,0.6,3.6,0.2,5.2-0.6l0.1,0c2.9-1.4,6-4.6,7.9-7.2l0.4-0.6l-0.6-0.4c-0.3-0.2-0.6-0.4-1-0.6l-0.5-0.3l-0.4,0.4    c-1.6,1.7-3.8,3.9-5.9,5c-0.2,0.1-0.3,0.2-0.5,0.2l-0.1,0c-3,1.4-4.1-0.6-4.5-3.3c-0.2-1.3-0.3-2.9-0.2-4.3    c1.8-0.6,3.6-1.3,5.3-2.2l0.1,0c3.8-2,7.4-5.2,8.9-9.3c0.3-1,0.6-2.1,0.6-3.3v-0.1C204.3,128.7,203.8,127.1,202.4,126.1     M192.6,132.1C192.6,132.1,192.6,132.1,192.6,132.1C192.6,132.1,192.6,132.1,192.6,132.1 M192.4,132.4    C192.4,132.4,192.3,132.4,192.4,132.4C192.3,132.4,192.4,132.4,192.4,132.4 M108.3,151.1c0.3-0.3,0.8-0.8,0.4-1.4    c-0.4-0.6-1.2-0.1-1.7,0.2c-0.9,0.5-1.7,1.1-2.5,1.6c-0.4,0.3-3.1,2.1-3.7,1.6c-0.3-0.3-0.2-1.8-0.2-2.2c0.2-1.6,0.5-3.1,0.7-4.7    c0.1-0.9,0.1-1.8,0.2-2.7c0.1-0.8,0.3-1.6,0.4-2.3c0.5-2.9,0.9-5.7,1.4-8.6c0.3-1.9,0.4-5.6-1.6-6.6c-1.4-0.7-3,0.2-4.1,1.1    c-2.1,1.7-4.1,4.6-5.5,6.9c-0.4,0.7-0.8,1.5-1.2,2.3c-0.6,1.2-1.1,2.4-1.7,3.6c-0.4,0.9-0.8,1.7-1.2,2.6c0.2-1.8,0.3-3.6,0.5-5.3    c0.2-2.4,0.4-4.9,0.6-7.3c0.1-1.3-0.2-2.8-1.3-3.5c-2.2-1.4-5.5,1.1-7,2.6c-1.6,1.6-3.1,4.2-4.2,6.2c-1,1.7-1.9,3.6-2.8,5.5    c0.2-2,0.4-4,0.7-6c0.2-1.7,0.4-3.5,0.6-5.2c0.1-0.9,0.2-1.8,0.4-2.7c0.3-1.7-0.3-1.6-1.5-0.8c-1.2,0.8-4.8,1.7-5.7,2l-0.5,0.1    v2.1l0.8-0.1c0.7-0.1,1.4-0.2,2.1-0.3c-1,8.8-1.9,17.6-2.9,26.3l-0.1,0.9l0.8-0.1c0.9-0.1,1.7-0.1,2.6-0.2l0.4,0l0.1-0.4    c0.7-2.3,1.5-4.5,2.2-6.8c0.9-2.4,1.8-4.8,2.8-7.3c0.4-1,1-2.1,1.5-3c1.4-2.5,3.1-5,5-7.2c0.2-0.2,1-1.2,1.4-1.2    c0.4,0.4,0.2,3.1,0.2,3.6c-0.1,1-0.2,1.9-0.4,2.9c0,0.3-0.2,1.1-0.2,1.4c-0.1,1-0.3,1.9-0.4,2.9c-0.3,2-0.5,4.1-0.7,6.1    c-0.4,3-0.7,6-1.1,9.1l-0.1,0.8h0.8c1,0,2.1-0.2,3-0.4l0.3-0.1l0.1-0.2c0.6-0.9,0.9-2.6,1-3.6c0.3-1.2,0.9-2.6,1.3-3.8    c0.4-1,0.9-2,1.3-3c0.2-0.4,0.6-1.3,0.7-1.8c0.4-1,1.1-2.4,1.6-3.3c1.4-2.6,2.9-5.2,4.5-7.6c0.3-0.4,1.7-2.4,2.3-2.5    c0.3,0.3,0.3,1.6,0.3,2c-0.9,6.1-1.8,12.3-2.8,18.4c-0.8,5.5,1.7,7.2,6.2,4.4c1.2-0.7,2.6-1.8,3.6-2.7c0.5-0.4,0.9-0.8,1.4-1.2    C107.7,151.7,108,151.4,108.3,151.1 M57.9,133.2c-0.7,2-3.7,9.7-6.7,14.8v0c-1.2,2.1-2.5,3.8-3.5,4.4c-3.4,2.1-4.2-1-3.5-7.6    c0.6-6.6,4.7-12.4,6.6-13.8c0.1-0.1,0.2-0.2,0.4-0.3c2.4-1.5,6.8-0.7,6.8-0.7S58.8,130.1,57.9,133.2 M57.9,133.1    c0-0.1,0.1-0.2,0.1-0.3C58,132.9,57.9,133,57.9,133.1 M63.2,151.5l-0.5-0.3l-0.4,0.4c-0.3,0.4-1.6,1.5-2.1,1.3    c-0.5-0.2-0.4-2.3-0.4-2.6c0.3-3.6,0.7-7.3,1.2-10.9c0.5-4.4,1.1-8.8,1.7-13.2c0.2-1.7-2.5-0.3-3.1,0.4c-0.1,0-0.2-0.1-0.2-0.1    c-2-1-4.8-0.8-6.8,0.1c-0.5,0.3-0.9,0.5-1.4,0.7c-0.2,0.1-0.4,0.2-0.6,0.3c-6,3.7-9,10.1-10.3,16.8c-0.5,2.8-0.9,6.5,0.2,9.2    c0.7,1.7,2,3.1,4,3.4c1.7,0.2,3.4-0.4,4.6-1.5c0.8-0.6,1.5-1.5,2.1-2.3c0.1-0.2,0.2-0.3,0.4-0.5c1.6-2.3,3.1-5.1,4.4-7.8    c-0.2,2-0.3,4-0.3,4.7c-0.2,0.9-0.2,2.7-0.1,3.6c0.1,1.2,0.5,2.7,1.5,3.4c1,0.7,2.3,0.4,3.3-0.2c1.4-0.7,3.3-2.1,3.8-3.6l0.1-0.3    l-0.2-0.3C63.9,152.1,63.5,151.8,63.2,151.5 M37.2,149.3l-0.1-1.2l-1,0.7c-4.2,2.9-9.4,4.2-14.5,3.2c-6.4-1.2-11.3-5.7-13.9-11.6    c-3.5-7.9-3-16.5,3.6-22.5c2.5-2.2,5.6-3.8,9-4.4c2.9-0.5,6.1-0.3,8.7,1.2c2.9,1.7,4.4,4.5,5,7.7l0,0.1l0,0.1    c0.3,0.7,1.1,0.6,1.7,0.4l0.4-0.2v-9.9l-0.3-0.2c-3.7-2.3-7.8-3.3-12.1-3.3C10.6,109.4,0,120,0,133.1C0,146.2,10.6,157,23.7,157    c3.9,0,9.9-2.4,13.4-4.2l0.4-0.2l-0.1-0.4C37.4,151.2,37.3,150.2,37.2,149.3"/>
		<path id="XMLID_25_" class="st4" d="M102.4,36.1c0.7-1.5,0.9-2.6,0.9-2.6s0.4-1.5,1.1-1.6c0.1,0,0.3,0,0.4,0.1c0,0-0.1-0.1,0,0    c0.4,0.2,0.9,0.7,1.3,1.6c1.1,2.4,1.5,4.1,1.6,5.2c0,1.7-0.5,2.5-0.8,3.5c-0.3,1.1-0.8,1.8-1.2,2c-0.3,0.2-0.6,0.1-0.9-0.1    c-0.2-0.1-0.5-0.4-0.7-0.9c-0.9-1.4-1.7-2.9-2-4.4C101.9,38,101.9,37,102.4,36.1 M103.8,44.6c0.3,0.5,0.7,0.8,1,1    c0.4,0.1,0.6,0.2,0.9,0.1c0.8-0.1,1.5-1.1,1.9-2.5c0.3-1,1-1.9,1.1-3.5c0.1-1.4-0.4-3.5-2.2-6.8c-0.6-1.2-1.2-1.7-1.7-2    c-0.2-0.1-0.4-0.1-0.5-0.1c-1,0.2-1.6,1.9-1.6,1.9s-0.1,1.4-1.1,3.1C99.9,38.5,101.7,41.7,103.8,44.6 M81.4,16.8    C81.4,16.9,81.3,16.9,81.4,16.8C81.3,16.9,81.4,16.8,81.4,16.8 M81.3,16.9c0,0.1-0.1,0.2-0.2,0.3C81.2,17.1,81.3,17,81.3,16.9     M123.8,7.6C123.8,7.6,123.8,7.6,123.8,7.6C123.8,7.6,123.8,7.6,123.8,7.6 M123.8,7.6C123.9,7.7,123.9,7.7,123.8,7.6    C123.9,7.7,123.8,7.6,123.8,7.6 M137.9,55.5c-1.9,0-3.1-1.2-5-1.2c-1.6,0-2.6,0.4-4.3,0.6c-1,0.1-1.9,0.1-2.7,0.3    c-0.7,0.1-1.3,0.4-1.9,0.9l-0.2,0.2c-3,3-4.6,6.3-8.8,6.3c-0.4,0-0.6-0.2-0.8-0.5l0,0c-0.1-0.2-0.3-0.3-0.4-0.4l0.3-15.4    c0,0,0,0,0.1,0h0c3.1-1.5,6-2.5,9.6-2.8c0.6-0.1,1.3-0.1,2-0.1h0.1c4.8,0,8.1,0.3,11.7,3.2c2.1,1.6,1.9,3.9,1.9,6.5    C139.4,54.2,138.7,55.5,137.9,55.5 M125.8,92.3c-0.7,0.8-1.4,1.5-2.1,2.2c-3.3,3.4-6.7,6.2-9.6,7.9l0,0c-0.7,0.4-1.4,0.8-2,1.1    c-0.5,0.2-0.9,0.4-1.4,0.5c-0.7,0.2-1.4,0.3-2,0.2c-0.4,0,0.5-0.5,2-1.7c0.4-0.3,0.9-0.7,1.4-1.1c0.6-0.6,1.3-1.2,2-1.9l0,0    c2.1-2.2,4.5-5.4,6-9.7c1.2-3.3,2.4-6.2,3.6-8.5c0.7-1.3,1.4-2.5,2.1-3.6c6.5-9.9,12.9-9.9,12.9-9.4    C138.2,75.7,132.4,85,125.8,92.3 M105.3,100c0.1,0,0.1-0.1,0.2-0.1C105.4,99.9,105.4,99.9,105.3,100 M94.9,102.5    c-2.7-0.4-5.1-1.5-7.3-3c-2.3-1.6-4.4-3.7-6.1-5.7l-0.1-0.1c-0.7-0.9-1.3-1.7-1.9-2.5c-1.7-2.4-2.7-4.3-2.7-4.3s1-0.8,2.7-2    c0.5-0.4,1.2-0.9,1.9-1.4l0.1-0.1c1.7-1.3,3.9-2.9,6.1-4.5c0.1-0.1,0.2-0.1,0.2-0.2c6-4.3,10-2.3,12.3,6.2c0.8,2.9,2.8,4.2,5,4.9    c1.8,0.4,3.8,0.4,5.5,0.2c0.5-0.1,1-0.1,1.4-0.2c0.8-0.1,1.5-0.3,2-0.4l0,0c0.9-0.2,1.4-0.4,1.4-0.4s0,0.1-1.4,1.7l0,0.1    c-0.5,0.6-1.1,1.4-2,2.5c-0.3,0.4-0.7,0.9-1.1,1.4l-0.3,0.3c-1.8,2.3-3.7,3.9-5.5,5.1C101.7,102.4,98.1,103,94.9,102.5 M73.3,79.1    L73.3,79.1C73.3,79.2,73.3,79.2,73.3,79.1c0-0.3,0-0.6,0-0.6l0,0c-0.1-0.3-0.6-1.7-1-3.2c-0.6-1.7-1.9-3.9-2.3-5.2    c-0.4-1.3-1.3-6.5-1.3-8.7c0-2.2,1.2-1.1,2.4-0.1c0.8,0.6,1.5,0.9,2.2,1l0.1,0c0.5,0.1,0.9,0.1,1.3,0.2c1,0,1.9,0.9,3.6,0    c1.5-0.7,1.3,0.6,1.5,1c0.1,0.4,0.5,1.4,0.7,2.6c0.1,1,0.1,4,1.1,6.2c0,0.1,0.1,0.1,0.1,0.2c0.1,0.1,0.2,0.3,0.2,0.4    c1,1.8,0.1,2.6-0.2,2.9c0,0-0.1,0-0.1,0h0c-0.1,0.2-0.6,0.9-1.9,2.1c-0.7,0.6-1.6,1.4-2.7,2.2C74.2,82.2,73.5,80.2,73.3,79.1     M68.1,52.3c0.1-0.3,0.9-7.1,0.9-9.6c0.1-2.5,1.6-10.7,3.1-12.4c0.5-0.7,0.9-1.4,1.1-2.1l0.1-0.1c0.4-1,0.7-1.6,1.5-1.3    c1.2,0.4,1,1.4,0.4,2.6c-0.6,1.1,0.3,4.2,1.6,4.9c1.2,0.6,2.5,4.9,0.9,10c-1.5,5.1-1.3,6.8-0.4,10.6c0,0,0.7,1.5,0.4,2.3    c-0.4,1.2-2.3-0.1-4.4-1.2l-0.1,0c-1-0.6-2.2-1.1-3-1.1C67.5,54.7,68.1,52.6,68.1,52.3 M79.6,20.6c0.3-1.4,1.1-2.5,1.8-3.8    c0-0.1,0.1-0.2,0.1-0.3l0.1-0.2c0.7-1.4,1.3-2.7,2.8-3.4c0.9-0.4,2.2-1.4,2.8-2c0.3-0.2,0.5-0.5,0.7-0.7c1.4-1.6,2.3-2.2,4.8-2.6    c1.3,0.2,1.1,1.7,1.3,3.2c0.9,2.4,1.9,3.6,1.9,5.9c0,1.5-0.3,2.3-0.6,3.6v3.1c-2.7,0-4.6,0.6-6.8,1.6h-4.1l-1.9,1    c-0.3,0.1-0.6,0.1-0.8,0.1h-0.1c-0.5,0-0.8-0.3-1.4-0.7c0-0.9-0.3-1.6-0.5-2.4c-0.1-0.3-0.2-0.7-0.2-1.2    C79.4,21.4,79.5,21,79.6,20.6 M95.1,53.8c1.2,1.7,0.2,7.6,0.4,11.9c0.3,4.3-0.9,4.1-4.2,5.7c-1.9,1-2.9,0.9-3.7,0.2    c-0.6-0.5-1-1.3-1.7-2.4c-1.9-2.6-0.9-3-3.8-11.9c-0.2-0.5-0.3-1.1-0.5-1.5c0-0.1-0.1-0.2-0.1-0.3c-1.2-4.5-0.8-7.1,0-9    c0-0.1,0.1-0.1,0.1-0.2c0.5-1.1,1.1-1.9,1.4-2.8c0.7-1.5,3.1-0.9,4.7-0.3c0.8,0.3,1.4,0.6,1.4,0.6s2.8,1.3,4,1.9    c1.2,0.4,1.3-0.1,2.5,0.9c0.7,0.5-0.1,1.5-0.1,2.8C95.4,51.5,94.9,51.7,95.1,53.8 M96.1,30.2c-0.3,2-0.3,3.8-0.6,6.5    c-0.3,2.5-0.3,4.9-4.2,3.3c-1.2-0.5-2.5-0.9-3.7-1.3c-1.9-0.7-3.4-1.1-3.5-1.1c-0.2,0-2-0.1-2.4-1.6c-0.2-0.3,0-0.5-0.2-0.6    c0,0-0.1-0.1-0.1-0.2c-0.2-0.3-0.3-1.1,0-2l0-0.1c0-0.1,0.1-0.2,0.1-0.4c0.2-1.1-0.1-1.9,2.3-1.9c1.7,0,2.8,0,3.8-0.2    c0.7-0.1,1.2-0.1,1.8-0.3c1.5-0.3,3-0.5,3-0.5S96.4,28.3,96.1,30.2 M96.2,29.4C96.3,29.3,96.3,29.3,96.2,29.4 M100.5,5.4    c2.1,0,3.6,0,4.7-0.1c1,0,1.5-0.1,1.5-0.1s2.2-0.2,4,0.5c0.5,0.2,1,0.5,1.4,0.9c0.4,0.6,0.7,1.3,0.5,2.3c-0.7,4.5,0,9.9,0,12.2    c-0.1,1.4-0.2,4.6-0.5,7.7c-0.2,2.6-0.6,5.1-1.1,6.3c-0.1,0.2-0.2,0.4-0.3,0.6c-1,2.8-1.5,6.6-1.2,9.8c0.1,3.7-1.5,37.1-1.5,37.1    s-0.3,6.2-2.8,2.3c-0.3-0.5-0.7-1.3-1.1-2.3c-3.4-8-5.9-10.7-5.5-21c0.4-10.3,1-28,1.8-29.4c0.7-1.5,0.9-8,0-13.3    c-0.9-5.2-2.2-8.9-2.2-10.2C98,7.6,96.5,5.4,100.5,5.4 M114.2,74.4l0-0.1c0.6-1.1,1.5-2.5,2.7-4.4c2.4-3.7,4.8-6.3,6.9-8    c0.7-0.6,1.4-1,2.1-1.4c7.3-4.3,12,1.6,12,1.6s-8.2,4.2-12,10.2c-0.7,1.1-1.3,2.2-1.6,3.5c-0.1,0.5-0.3,0.9-0.5,1.4    c-1.9,4.4-7,7.1-9.6,7.9h0c-0.8,0.3-1.3,0.3-1.3,0C113,79.1,112,78.6,114.2,74.4C112.2,78.1,113.8,75,114.2,74.4 M114.7,39.1    c0-1.6,0.9-2.5,0.9-4.1c0-1,0.1-2.2,1.2-2.2h5.5c0.5-0.2,1-0.3,1.6-0.4c0.7-0.2,1.4-0.3,2.1-0.5c2.7-0.6,4.9-0.9,8.3-0.9    c1.8,0,2.2,1.7,2.8,3.5c0.7,2.3,1,3.5,1,5.9v2.3c-2.9-0.7-4.6-0.9-7.4-1.3c-1.9-0.3-3.4-0.6-4.8-0.9c-0.7-0.1-1.4-0.2-2.1-0.3    c-0.9-0.1-1.8-0.2-2.9-0.2c-2.1,0-4.6-0.4-5.9,1.1C114.2,40.9,114.7,40,114.7,39.1 M115.4,25.1c0.2-1.3,0-1.9,0.5-3l0.3-9.3    c0-1-1.2-2.3-0.6-2.6c1.3-0.5,4.8,1.3,8.2,4c0.7,0.6,1.4,1.2,2.1,1.8c3.3,3.1,6.1,6.9,6.2,10c0,0.6-2.8,0.4-2.8,0.4l-3.5,0.7    l-2.1,0.5l-3.3,0.7c0,0-4.4,0.6-5,0C114.7,27.6,115.4,25.1,115.4,25.1 M125.8,9.4c-0.7-0.6-1.4-1.2-2.1-1.8    c-3.1-2.3-6.2-4.3-9.6-5.6l0,0c-0.7-0.3-1.3-0.5-2-0.7c-0.5-0.1-0.9-0.3-1.4-0.4c-1.8-0.5-3.6-0.7-5.5-0.8c-0.5,0-1-0.1-1.5-0.1    C98,0,92.6,1.7,87.7,4.8c-2.1,1.3-4.1,2.9-6.1,4.7l-0.1,0.1c-0.6,0.6-1.3,1.3-1.9,1.9c-2.3,2.5-4.4,5.3-6.3,8.4L73.2,20    c-5.6,9.5-9,21.6-9,34.8c0,13.2,3.4,25.4,9,34.9l0.1,0.1c1.9,3.2,4,6,6.3,8.5c0.6,0.7,1.2,1.3,1.9,1.9l0.1,0.1    c2,1.8,4,3.4,6.1,4.7c4.9,3,10.4,4.7,16.1,4.7c0.5,0,1,0,1.5,0c1.9-0.1,3.7-0.3,5.5-0.8c0.5-0.1,0.9-0.3,1.4-0.4    c0.7-0.2,1.3-0.4,2-0.7h0c3.4-1.3,6.6-3.2,9.6-5.6c0.7-0.6,1.4-1.2,2.1-1.8c10.5-9.9,17.5-26.6,17.5-45.5    C143.3,36,136.4,19.3,125.8,9.4 M81,17.4C81,17.5,80.9,17.6,81,17.4"/>
	</g>
</g>
</svg>