<?xml version="1.0" encoding="UTF-8"?>
<!-- Generator: Adobe Illustrator 19.0.0, SVG Export Plug-In . SVG Version: 6.00 Build 0)  -->
<svg version="1.1" id="Capa_1" xmlns="http://www.w3.org/2000/svg" xmlns:xlink="http://www.w3.org/1999/xlink" x="0px" y="0px" viewBox="0 0 279.2 74.5" style="enable-background:new 0 0 279.2 74.5;" xml:space="preserve">
<style type="text/css">
	.st0{fill:#518E80;}
	.st1{fill:#28477D;}
	.st2{fill:none;}
</style>
<g>
	<path class="st0" d="M61.7,21.3L43.3,2.8c-0.1-0.1-0.2-0.2-0.3-0.3c0.2,0.9,0.4,1.8,0.4,2.8c0,3.1-1.4,5.9-3.6,7.8L52,25.4   c3.4,3.5,3.4,9.1,0,12.5L39.7,50.3c-1.4,1.7-2.3-5.9-1.2-6.5c4.6-2.1,7.8-6.8,7.8-12.2c0-7.4-6-13.4-13.3-13.4   c-7.4,0-13.3,6-13.3,13.4c0,5.5,3.3,10.2,8,12.3c1,0.5,0.1,7.9-1.3,6.4L13.9,37.9c-3.4-3.5-3.4-9.1,0-12.5L26.2,13   c-2.2-1.9-3.6-4.7-3.6-7.8c0-1,0.1-1.9,0.4-2.8c-0.1,0.1-0.2,0.2-0.3,0.3L4.3,21.3c-5.7,5.7-5.7,15,0,20.7l18.4,18.5   c5.7,5.7,14.9,5.7,20.6,0L61.7,42C67.4,36.3,67.4,27,61.7,21.3"/>
	<path class="st1" d="M38.2,5.2c0,2.9-2.3,5.2-5.2,5.2c-2.9,0-5.2-2.3-5.2-5.2C27.7,2.4,30.1,0,33,0C35.9,0,38.2,2.4,38.2,5.2"/>
	<path class="st0" d="M131.4,45.7h9.1c0.1,1.8,0.8,3.1,2,4c1.3,0.9,3.1,1.3,5.4,1.3c1.6,0,3-0.3,4.2-0.9c1.1-0.6,1.6-1.5,1.6-2.6   c0-1.6-1.9-2.8-5.6-3.6c-1.6-0.3-2.8-0.5-3.6-0.8c-4.8-1.2-7.9-2.6-9.5-4.2c-1.8-1.6-2.7-3.8-2.7-6.5c0-3.4,1.3-6.2,3.9-8.5   c2.7-2.1,6.2-3.1,10.5-3.1c4.7,0,8.4,1,11.2,3.1c2.6,2.2,4,5.2,4.2,8.7h-5.8c-1.7,0-3-0.8-3.9-2.3c-0.4-0.4-0.7-0.7-1.1-1.1   c-1.1-0.8-2.6-1.2-4.4-1.2c-1.8,0-3.1,0.3-4,0.8c-0.8,0.5-1.2,1.3-1.2,2.4c0,1.4,2.3,2.6,7,3.6c0.5,0.2,1,0.3,1.4,0.4   c0.4,0.1,0.8,0.1,1.1,0.1c4.6,1.2,7.8,2.5,9.5,4c1.7,1.6,2.6,3.8,2.6,6.5c0,3.9-1.4,7-4.3,9.1c-2.7,2-6.7,3-12.1,3   c-5.1,0-8.9-1-11.4-3.1c-2.6-2.1-3.9-5.1-3.9-9V45.7z"/>
	<path class="st0" d="M189.2,56.1c-1.9,1-3.9,1.6-6,1.8c-2.1,0.2-4,0.3-5.6,0.3c-3.2,0-6.1-0.9-8.5-2.6c-2.4-1.8-3.6-4.6-3.6-8.7   c0-3.8,1.1-6.5,3.3-8.1c2.2-1.6,5-2.7,8.4-3.2c0.4,0,1-0.1,1.6-0.2c0.6-0.1,1.3-0.2,2.1-0.3c4-0.5,5.9-1.7,5.9-3.5   c0-1.3-0.7-2.2-2.1-2.6c-1.4-0.4-2.7-0.6-3.8-0.6c-1.3,0-2.4,0.2-3.4,0.5c-1,0.4-1.7,1-2.2,2h-9c0.4-2.8,1.6-5.1,3.8-6.9   c2.4-2.1,5.9-3.1,10.4-3.1c5,0,8.8,0.8,11.3,2.6c2.6,1.8,3.9,4.3,3.9,7.5v12.2c0,3.6-0.6,6.4-2,8.4   C192.5,53.7,190.9,55.2,189.2,56.1 M187,39.5c-1.3,0.6-3,1.2-5.2,1.7l-3.1,0.7c-1.6,0.4-2.8,1-3.5,1.8c-0.6,1-0.9,2-0.9,3   c0,1.3,0.4,2.4,1.2,3.2c0.8,0.7,2,1.1,3.5,1.1c2.5,0,4.5-0.7,5.9-2.2c1.4-1.4,2.2-3.4,2.2-5.9V39.5z"/>
	<path class="st0" d="M199.2,11.3h4.8c1.3,0,2.3,0.4,3.2,1.3c0.9,0.9,1.3,1.9,1.3,3.2v41.8h-9.4V11.3z"/>
	<path class="st0" d="M243.2,21.8v21c0,6.4-1.7,10.5-5,12.5c-3.3,2-6.9,3-10.9,3c-3.9-0.2-7.4-1.3-10.6-3.2c-3.2-2-4.8-6.1-4.8-12.2   v-21h9.4v22.9c0,2.1,0.6,3.7,1.9,4.7c1.3,1,2.7,1.5,4.3,1.5c1.6,0,3.1-0.5,4.4-1.5c1.3-1,2-2.6,2-4.7V26.4c0-1.3,0.4-2.3,1.3-3.2   c0.9-0.9,2-1.3,3.3-1.3H243.2z"/>
	<path class="st0" d="M270,11.2h4.6c1.3,0,2.3,0.5,3.2,1.4c0.9,0.9,1.3,2,1.3,3.2V42c0,6.4-1.8,10.7-5.5,12.9   c-3.7,2.2-7.7,3.4-12,3.4c-2.3,0-4.6-0.4-6.9-1.1c-2.2-0.8-4-2-5.4-3.7c-2.6-3.3-3.9-7.8-3.9-13.6c0-5.7,1.3-10.2,3.9-13.6   c2.7-3.5,6.1-5.2,10.4-5.2c2.2,0,4.2,0.4,5.9,1.3c1.8,1.1,3.2,2.5,4.3,4.2V11.2z M254.7,39.4c0,3.6,0.7,6.3,2,8.2   c1.3,1.9,3.3,2.8,5.8,2.8c2.4,0,4.3-0.9,5.6-2.8c1.3-1.9,1.9-4.6,1.9-8.2c0-3.2-0.7-5.8-2-7.7c-1.4-1.8-3.4-2.7-5.8-2.7   c-2.3,0-4.2,0.9-5.5,2.8C255.4,33.7,254.7,36.2,254.7,39.4"/>
	<g>
		<path class="st2" d="M121,30.7c0-2.4-1.8-3.6-5.5-3.6c-2.1,0-4,0.8-5.9,2.3c-1.9,1.5-3.1,3.7-3.6,6.6C116,35.8,121,34,121,30.7z"/>
		<path class="st1" d="M126,49.1c-0.5-0.4-1.1-0.6-1.8-0.6c-0.6,0-1.3,0.3-1.5,0.4c-3.1,1.3-6.1,2-9,2c-3,0-5.1-0.8-6.3-2.4    c-1.2-1.6-1.8-4-1.8-7.2c15.7-0.3,23.5-4.1,23.5-11.4c0-3-1.1-5.2-3.4-6.9c-2.2-1.6-5.1-2.3-8.9-2.3c-5.5,0-10.2,1.9-14.2,5.8    c-4,3.9-6,9-6,15.3c0,4.9,1.2,8.9,3.6,11.9c2.4,3,6.1,4.5,11.1,4.5c5.6,0,10.2-1.3,13.8-3.8c1-0.6,2.1-1.8,2.1-2.9    C127.3,50.6,126.8,49.7,126,49.1z M109.6,29.4c1.9-1.5,3.8-2.3,5.9-2.3c3.6,0,5.5,1.2,5.5,3.6c0,3.3-5,5.1-15,5.3    C106.6,33.1,107.8,31,109.6,29.4z"/>
	</g>
	<g>
		<g id="XMLID_162_">
			<path id="XMLID_163_" class="st1" d="M99.2,4.9c-1.9-0.3-2.8-0.3-4.6-0.3c-7.8,0-12.4,6.1-13.7,18.4c-1.4,0-3.3-0.1-5.8-0.3     L74,30c2.7-0.1,4.7-0.2,6.1-0.2c-0.5,6.1-1.1,12.3-1.8,18.6c-0.7,6.3-1.5,10.9-2.4,13.8c-0.9,2.9-2.3,5.1-4.2,6.6     c0,0-2,1.5-1.3,3.5c1,2.6,4.2,2.4,5.3,1.9c3.9-1.3,8.8-8.1,10.4-17.5c1.7-10,1.6-19.1,2.2-26.9c2,0,4.7,0.1,8.3,0.2l1-7.3     C93.9,22.9,91.1,23,89,23c0.5-4.6,1.1-7.8,1.9-9.4c0.8-1.6,2-2.4,3.7-2.4c1.4,0,3.2,0.2,4,0.2c0.8,0,2.9-0.4,3.2-3.3     C101.9,6.8,101.4,5.1,99.2,4.9z"/>
		</g>
	</g>
</g>
</svg>