<?xml version="1.0" encoding="UTF-8"?>
<!-- Generator: Adobe Illustrator 19.0.0, SVG Export Plug-In . SVG Version: 6.00 Build 0)  -->
<svg version="1.1" id="Capa_1" xmlns="http://www.w3.org/2000/svg" xmlns:xlink="http://www.w3.org/1999/xlink" x="0px" y="0px" viewBox="0 0 307.3 75.3" style="enable-background:new 0 0 307.3 75.3;" xml:space="preserve">
<style type="text/css">
	.st0{fill:#C7C62F;}
	.st1{fill:#83A239;}
	.st2{fill:#487F7D;}
	.st3{fill:#53337C;}
	.st4{fill:#487F9F;}
	.st5{fill:none;}
</style>
<g id="XMLID_23_">
	<path id="XMLID_89_" class="st0" d="M266.1,34.4C266,48.5,263,58.6,263,58.6l-27.4,0c0,0,4.2-9.5,4-24.3c-0.2-16.6-4-24.5-4-24.5   l27.4,0C262.9,9.8,266.2,21.7,266.1,34.4z"/>
	<path id="XMLID_86_" class="st1" d="M272.2,36c-3.7,13.6-9.2,22.5-9.2,22.5l-26.5-7c0,0,6.5-8.1,10.1-22.5   c4-16.1,2.4-24.7,2.4-24.7l26.5,7C275.4,11.4,275.6,23.7,272.2,36z"/>
	<path id="XMLID_85_" class="st2" d="M277.5,39.1c-7,12.2-14.6,19.5-14.6,19.5L239,45.1c0,0,8.3-6.2,15.4-19.2   c8-14.6,8.5-23.3,8.5-23.3l23.9,13.5C286.9,16.1,283.9,28.1,277.5,39.1z"/>
	<path id="XMLID_84_" class="st3" d="M282.5,44.1c-10.2,9.7-19.5,14.5-19.5,14.5l-19.1-19.7c0,0,9.8-3.6,20.3-14   c11.8-11.7,14.8-19.9,14.8-19.9L298,24.7C298,24.7,291.8,35.3,282.5,44.1z"/>
	<path id="XMLID_81_" class="st4" d="M285.3,49.1c-12.2,7-22.4,9.5-22.4,9.5l-13.9-23.7c0,0,10.3-1.2,23-8.8   c14.2-8.6,19.1-15.8,19.1-15.8L305,33.9C305,33.9,296.4,42.8,285.3,49.1z"/>
	<g id="XMLID_77_">
		<path id="XMLID_78_" class="st3" d="M85.7,50.2c-0.5-0.3-1-0.5-1.6-0.5c-0.6,0-1.2,0.3-1.4,0.4c-2.9,1.2-5.6,1.8-8.2,1.8    c-2.7,0-4.6-0.7-5.7-2.2c-1.1-1.5-1.6-3.7-1.6-6.6c14.3-0.3,21.4-3.7,21.4-10.3c0-2.7-1-4.8-3.1-6.2c-2-1.4-4.7-2.1-8.1-2.1    c-5,0-9.3,1.8-12.9,5.3c-3.6,3.5-5.5,8.2-5.5,14c0,4.5,1.1,8.1,3.3,10.8c2.2,2.7,5.5,4.1,10.1,4.1c5.1,0,9.3-1.1,12.6-3.4    c0.9-0.6,1.9-1.6,1.9-2.6C86.9,51.5,86.4,50.7,85.7,50.2z M70.8,32.3c1.7-1.4,3.5-2.1,5.4-2.1c3.3,0,5,1.1,5,3.2    c0,3-4.5,4.7-13.6,4.8C68,35.7,69.1,33.7,70.8,32.3z"/>
	</g>
	<g id="XMLID_62_">
		<path id="XMLID_76_" class="st5" d="M216.8,33.4c0-2.2-1.7-3.2-5-3.2c-1.9,0-3.7,0.7-5.4,2.1c-1.7,1.4-2.8,3.4-3.3,6    C212.3,38.1,216.8,36.5,216.8,33.4z"/>
		<path id="XMLID_63_" class="st4" d="M221.4,50.2c-0.4-0.3-1-0.5-1.6-0.5c-0.6,0-1.2,0.3-1.4,0.4c-2.9,1.2-5.6,1.8-8.2,1.8    c-2.7,0-4.6-0.7-5.7-2.2c-1.1-1.5-1.6-3.7-1.6-6.6c14.3-0.3,21.4-3.7,21.4-10.3c0-2.7-1-4.8-3.1-6.2c-2-1.4-4.7-2.1-8.1-2.1    c-5,0-9.3,1.8-12.9,5.3c-3.6,3.5-5.5,8.2-5.5,14c0,4.5,1.1,8.1,3.3,10.8c2.2,2.7,5.5,4.1,10.1,4.1c5.1,0,9.3-1.1,12.6-3.4    c0.9-0.6,1.9-1.6,1.9-2.6C222.5,51.5,222.1,50.7,221.4,50.2z M206.5,32.3c1.7-1.4,3.5-2.1,5.4-2.1c3.3,0,5,1.1,5,3.2    c0,3-4.5,4.7-13.6,4.8C203.7,35.7,204.8,33.7,206.5,32.3z"/>
	</g>
	<g id="XMLID_59_">
		<path id="XMLID_61_" class="st3" d="M36.2,54.2c0-0.2,0-0.3,0.1-0.5C36.2,53.8,36.2,54,36.2,54.2z"/>
		<path id="XMLID_60_" class="st3" d="M59.8,25.6c-1.9-0.8-3.9-0.8-5-0.8c-3.2,0-6,1.6-8.3,4.8H46c0-1.4-0.2-1.9-0.2-2    c0-2.3-1.9-4.2-4.2-4.2c-2.3,0-4.2,1.9-4.2,4.2c0,0.3,0.1,1,0.1,1c0.4,3.4,0.5,3.7,0.5,6c0,3.5-0.6,9.9-1.8,19.1    c0,0.2,0,0.3-0.1,0.5c0,0.1,0,0.3,0,0.4c0,1.3,0.6,2.5,1.6,3.2c0.7,0.5,1.5,0.8,2.4,0.8c1,0,2-0.4,2.7-1c0.8-0.7,1.4-1.8,1.4-3    c0,1.2,0.7-8.5,1.4-15.3c0.5-4.4,2.7-6.6,6.7-6.6c1.4,0,2.7,0.2,4,0.5c0.4,0.2,0.9,0.3,1.4,0.3c2.3,0,4.2-1.9,4.2-4.2    C62,27.6,61.5,26.3,59.8,25.6z"/>
	</g>
	<g id="XMLID_33_">
		<g id="XMLID_57_">
			<path id="XMLID_58_" class="st4" d="M196.9,9.9c-1.7-0.2-2.5-0.3-4.2-0.3c-7.1,0-11.3,5.6-12.5,16.8c-1.3,0-3-0.1-5.2-0.2l-1,6.6     c2.4-0.1,4.3-0.2,5.5-0.2c-0.5,5.6-1,11.2-1.6,16.9c-0.6,5.7-1.3,9.9-2.2,12.6c-0.8,2.6-2.1,4.6-3.9,6c0,0-1.9,1.4-1.2,3.2     c0.9,2.3,3.8,2.2,4.8,1.7c3.5-1.2,8-7.4,9.4-15.9c1.5-9.1,1.5-17.4,2-24.5c1.8,0,4.3,0.1,7.5,0.2l0.9-6.6     c-3.3,0.2-5.9,0.3-7.8,0.3c0.4-4.2,1-7.1,1.8-8.5c0.7-1.5,1.9-2.2,3.4-2.2c1.3,0,2.9,0.2,3.7,0.2c0.7,0,2.7-0.3,2.9-3     C199.5,11.7,199,10.2,196.9,9.9z"/>
		</g>
	</g>
	<path id="XMLID_30_" class="st3" d="M32.7,12.9c-2.6-2-5.8-2.9-9.5-3c-1.7,0-3.8-0.1-6.1-0.1c-2.3,0.1-2.8,0.1-4.5,0.3   c-2.2,0.2-3.8,0.5-4.9,2c-1.1,1.4-1.2,3.2-1.3,4.6C5.9,22,5.9,24.7,5.2,31.3C4.2,41.5,2.9,52,2.5,53.9c-0.5,2.7,2.2,4.7,4.6,4.7   c2.4,0,4.3-1.8,4.7-4.1c0,0,0.6-12.6,1.1-16.9c0.4,0,1.1,0.1,1.9,0.1c6.6,0,11.9-1.4,15.9-4.2c4-2.8,6-6.9,6-12.3   C36.6,17.7,35.3,14.9,32.7,12.9z M15.4,31.6c-0.7,0-1.4,0-1.9-0.1c0.7-7.8,1.1-12.7,1.3-14.6c1.7-0.3,3.3-0.5,4.8-0.5   c5.7,0,8.5,2.1,8.5,6.3C28,28.6,23.8,31.6,15.4,31.6z"/>
	<path id="XMLID_29_" class="st3" d="M104.6,30.8c2.3,0,2.7,0.3,5,0.6c2.8,0.4,4.6-0.5,4.8-2.7c0.2-1.6-0.4-2.8-1.8-3.3   c-1.1-0.4-2.4-1-7.3-0.9c-3.9,0-7.1,0.9-9.7,2.7c-2.6,1.8-3.9,4.5-3.9,8.1c0,2.3,0.9,4.3,2.8,6c1.3,1.2,3.4,2.3,6.1,3.5   c3.3,1.4,5,2.9,5,4.5c0,2.2-2.4,3.4-7.3,3.3c-3.1,0-5.1-1.3-6.8-1.4c-1.9-0.1-3.5,1.6-3.5,3.5c0,1.8,1.4,3.1,3.2,3.5   c2.3,0.5,3.3,0.8,6.4,0.8c10.4,0,15.6-3.7,15.6-11.1c0-4.1-3-7.4-8.9-9.7c-3.3-1.3-5-2.7-5-4.2C99.3,31.9,101.1,30.8,104.6,30.8z"/>
	<path id="XMLID_28_" class="st3" d="M136.7,51.1c0,0-1-0.7-2.8,0c-1.2,0.5-2.4,0.7-3.6,0.7c-1.3,0-2.2-0.4-2.7-1.3   c-0.5-0.9-0.7-2.5-0.7-4.9c0-3.2,0.5-8,1.4-14.6c2,0,4.7,0.1,7.9,0.2l0.9-7.2c-3.5,0.2-6.2,0.3-8,0.3c0.7-5.1,1.1-8,1.5-10.3   c0,0,0.7-3.9-3.8-3.8c-3.2,0.1-3.7,4-3.7,4c-0.7,5-1.2,8.4-1.5,10.1c-1.4,0-3-0.1-4.7-0.2l-1,7.1c2-0.1,3.6-0.2,4.7-0.2   c-1.1,8.2-1.7,13.8-1.7,16.8c0,4,0.7,6.8,2,8.5c1.4,1.7,3.7,2.5,6.9,2.5c3,0,4.4-0.3,7.6-2.6C138.8,54,137.4,51.5,136.7,51.1z"/>
	<path id="XMLID_25_" class="st3" d="M167.1,49.3c0-3.9,0.6-10.5,1.9-19.7c1.2-7.7-7.2-4.3-7.2-4.3c-7.9,0.2-13.7,2.5-17.5,6.8   c-3.7,4.3-5.6,9.1-5.6,14.5c0,3.7,0.7,6.7,2.2,8.8c1.5,2.1,3.6,3.2,6.5,3.2c5,0,8.7-2.3,11.2-6.9h0.5c0.4,2.4,1.4,7.1,5.3,6.9   C170.2,58.5,167.2,52.5,167.1,49.3z M156.9,47.8c-1.7,3-3.6,4.5-5.6,4.5c-2.6,0-4-2.1-4-6.3c0-4.6,1.1-8.3,3.3-11   c2.2-2.7,5.7-4.1,10.5-4.2c-0.2,3-0.5,5.8-1,8.5C159.7,42,158.7,44.8,156.9,47.8z"/>
</g>
</svg>