<svg width="75" height="28" viewBox="0 0 75 28" fill="none" xmlns="http://www.w3.org/2000/svg">
<path d="M61.7163 16.6792L61.6919 16.7557C61.4966 17.5725 61.106 18.8487 60.3492 19.2826C60.3248 19.3081 60.3003 19.3081 60.2759 19.3337C60.0562 19.4613 59.8365 19.4868 59.5924 19.4613C59.5435 19.4613 59.4947 19.4358 59.4703 19.4102C59.0797 19.2571 58.9088 18.6445 58.86 18.2361C58.7623 17.5215 58.8356 16.7047 59.0065 15.99C59.1773 15.1988 59.6168 13.8715 60.3492 13.3865C60.3736 13.361 60.398 13.361 60.4224 13.3355C60.6421 13.2334 60.8618 13.2079 61.0816 13.2589C61.4966 13.3355 61.7163 13.9481 61.7895 14.3309C61.9604 15.0967 61.8872 15.9645 61.7163 16.6792ZM62.3266 12.7484C62.1313 12.5698 61.8872 12.4421 61.6431 12.3656C61.228 12.238 60.7886 12.3145 60.3736 12.5187C60.3492 12.5442 60.3248 12.5442 60.3003 12.5698C59.2262 13.1568 58.4938 14.4586 58.1276 15.6071C57.9323 16.2197 57.7858 16.9344 57.7614 17.6235V18.083C57.8102 19.0529 58.152 19.9207 59.1285 20.3802C59.5191 20.5844 60.0074 20.4312 60.3736 20.227C60.398 20.227 60.4224 20.2015 60.4468 20.176C61.4722 19.5634 62.2778 18.3127 62.6196 17.1386C63.0102 15.8879 63.3764 13.7439 62.3266 12.7484ZM70.8468 12.34H69.5041C69.6261 11.4722 69.7238 10.5789 69.797 9.68554C69.8214 9.3282 70.0412 9.20058 70.3585 9.17505C70.5783 9.14953 70.8956 9.20058 71.1153 9.25163L71.3351 9.3282V8.20514L71.1886 8.17961C70.09 8.07752 69.3332 8.63905 68.8449 9.63449C68.5276 10.2981 68.3323 11.1915 68.3078 11.9317C68.2834 12.3656 67.9905 12.6208 67.5754 12.5953L67.3801 12.5698V13.0802H68.1614C68.0149 14.5862 67.844 16.0921 67.6731 17.6235C67.5754 18.5424 67.4778 19.4613 67.3557 20.3802C67.2825 20.9672 67.2337 21.5543 67.1116 22.1158C66.9895 22.856 66.4769 23.6983 65.8909 24.1577L65.8177 24.2088V24.7448L65.9886 24.7193C66.6477 24.6682 67.1604 24.3109 67.5266 23.7493C67.9172 23.1623 68.2346 22.2434 68.3322 21.5287C68.6496 18.6956 68.9914 15.8624 69.3332 13.0292H70.798V12.34H70.8468ZM56.0036 17.1131C55.6619 17.8533 55.2468 18.4658 54.8318 18.8998C54.3436 19.4102 53.8797 19.6144 53.5379 19.4358C52.8788 19.104 52.9764 17.4959 53.6844 15.8879C54.0262 15.1477 54.4168 14.5096 54.8318 14.1012C55.3201 13.5907 55.8083 13.361 56.1501 13.5397C56.7849 13.897 56.736 15.4795 56.0036 17.1131ZM56.0525 17.0365C56.0769 16.9854 56.0769 16.9599 56.1013 16.9344C56.0769 16.9854 56.0525 17.011 56.0525 17.0365ZM56.7116 12.4932C56.0769 12.1869 55.3689 12.5953 54.8562 13.0547C54.783 13.1058 54.7342 13.1823 54.6609 13.2334C54.1971 13.6928 53.8065 14.2544 53.4647 14.8414C53.5379 14.1012 53.6112 13.3865 53.6844 12.6719C53.7576 11.9572 53.5135 12.34 53.1961 12.4932C52.8299 12.6719 52.0487 12.8761 51.829 12.9271L51.7069 12.9526V13.5652L51.9022 13.5142C52.0975 13.4886 52.2684 13.4376 52.4637 13.4121C52.2684 15.2243 52.0487 17.062 51.8534 18.8998C51.7069 20.1249 51.5849 21.3501 51.4384 22.5752C51.3652 23.2389 51.2919 23.9025 51.1943 24.5661L51.1699 24.8214L51.414 24.7703C51.6337 24.7193 51.8534 24.6682 52.0976 24.6172L52.2196 24.5916L52.244 24.464C52.3905 23.392 52.537 22.32 52.7323 21.248C52.7811 20.9672 52.8299 20.6609 52.8788 20.3802C53.5379 20.7375 54.2703 20.4057 54.8318 19.9462L54.8562 19.9207C55.6374 19.2826 56.2722 18.3127 56.7116 17.3938C57.1266 16.475 57.4684 15.3774 57.4684 14.382C57.5173 13.6928 57.3708 12.825 56.7116 12.4932ZM73.8984 14.6627C73.7764 14.9946 73.3125 15.5816 72.6778 16.0666C72.2872 16.3729 71.8233 16.6281 71.3351 16.7812C71.4571 14.7393 72.0186 14.2288 72.1651 14.0246C72.3116 13.7949 72.4825 13.6163 72.6778 13.4631C73.0196 13.2334 73.3613 13.1568 73.6299 13.2844C74.0449 13.5142 74.1426 14.1012 73.8984 14.6627ZM74.5576 12.4932C74.4843 12.4421 74.4111 12.3911 74.3135 12.3656C73.752 12.1359 73.166 12.289 72.6534 12.5953C72.6045 12.6208 72.5557 12.6719 72.5069 12.6974C71.628 13.3355 70.9689 14.433 70.6027 15.454C70.3341 16.1687 70.1632 16.9599 70.1388 17.7256V17.9298C70.1388 18.083 70.1632 18.2106 70.1632 18.3382C70.2365 19.0529 70.4806 19.8697 71.1153 20.2525C71.213 20.3036 71.3106 20.3546 71.3839 20.3802C71.7989 20.5333 72.2628 20.4312 72.6534 20.227H72.6778C73.3858 19.8697 74.1426 19.0529 74.6064 18.3893L74.7041 18.2361L74.5576 18.134C74.4843 18.083 74.4111 18.0319 74.3135 17.9809L74.1914 17.9043L74.0937 18.0064C73.7031 18.4403 73.166 19.0019 72.6534 19.2826C72.6045 19.3081 72.5801 19.3337 72.5313 19.3337H72.5069C71.7745 19.691 71.506 19.1805 71.4083 18.4914C71.3595 18.1596 71.3351 17.7512 71.3595 17.3938C71.7989 17.2407 72.2383 17.062 72.6534 16.8323H72.6778C73.6055 16.3218 74.4843 15.505 74.8505 14.4586C74.9238 14.2033 74.997 13.9225 74.997 13.6163V13.5907C75.0214 13.1568 74.8994 12.7484 74.5576 12.4932ZM72.1163 14.1012C72.1163 14.1012 72.0919 14.1012 72.1163 14.1012C72.0919 14.1012 72.1163 14.1012 72.1163 14.1012ZM51.5849 18.8742C51.6581 18.7977 51.7802 18.67 51.6825 18.5169C51.5849 18.3637 51.3896 18.4914 51.2675 18.5679C51.0478 18.6956 50.8525 18.8487 50.6572 18.9763C50.5595 19.0529 49.9004 19.5123 49.7539 19.3847C49.6807 19.3081 49.7051 18.9253 49.7051 18.8232C49.7539 18.4148 49.8271 18.0319 49.876 17.6235C49.9004 17.3938 49.9004 17.1641 49.9248 16.9344C49.9492 16.7302 49.998 16.526 50.0224 16.3473C50.1445 15.6071 50.2422 14.8925 50.3642 14.1523C50.4375 13.6673 50.4619 12.7229 49.9736 12.4677C49.6318 12.289 49.2412 12.5187 48.9727 12.7484C48.46 13.1823 47.9717 13.9225 47.63 14.5096C47.5323 14.6883 47.4347 14.8925 47.337 15.0967C47.1905 15.4029 47.0685 15.7092 46.922 16.0155C46.8243 16.2452 46.7267 16.4494 46.629 16.6792C46.6778 16.2197 46.7023 15.7603 46.7511 15.3264C46.7999 14.7138 46.8487 14.0757 46.8976 13.4631C46.922 13.1313 46.8487 12.7484 46.5802 12.5698C46.0431 12.2124 45.2375 12.8505 44.8713 13.2334C44.4807 13.6418 44.1145 14.3054 43.8459 14.8159C43.6018 15.2498 43.3821 15.7348 43.1624 16.2197C43.2112 15.7092 43.26 15.1988 43.3333 14.6883C43.3821 14.2544 43.4309 13.7949 43.4797 13.361C43.5041 13.1313 43.5286 12.9016 43.5774 12.6719C43.6506 12.238 43.5041 12.2635 43.2112 12.4677C42.9182 12.6719 42.0394 12.9016 41.8196 12.9782L41.6976 13.0037V13.5397L41.8929 13.5142C42.0638 13.4886 42.2347 13.4631 42.4056 13.4376C42.1614 15.6837 41.9417 17.9298 41.6976 20.1504L41.6732 20.3802L41.8685 20.3546C42.0882 20.3291 42.2835 20.3291 42.5032 20.3036H42.6009L42.6253 20.2015C42.7962 19.6144 42.9915 19.0529 43.1624 18.4658C43.3821 17.8533 43.6018 17.2407 43.8459 16.6026C43.9436 16.3473 44.0901 16.0666 44.2121 15.8369C44.5539 15.1988 44.9689 14.5607 45.4328 13.9991C45.4816 13.9481 45.6769 13.6928 45.7746 13.6928C45.8722 13.7949 45.8234 14.4841 45.8234 14.6117C45.799 14.8669 45.7746 15.0967 45.7257 15.3519C45.7257 15.4285 45.6769 15.6327 45.6769 15.7092C45.6525 15.9645 45.6037 16.1942 45.5793 16.4494C45.506 16.9599 45.4572 17.4959 45.4084 18.0064C45.3107 18.7721 45.2375 19.5379 45.1398 20.3291L45.1154 20.5333H45.3107C45.5548 20.5333 45.8234 20.4823 46.0431 20.4312L46.1163 20.4057L46.1408 20.3546C46.2872 20.1249 46.3605 19.691 46.3849 19.4358C46.4581 19.1295 46.6046 18.7721 46.7023 18.4658C46.7999 18.2106 46.922 17.9554 47.0196 17.7001C47.0685 17.598 47.1661 17.3683 47.1905 17.2407C47.2882 16.9854 47.4591 16.6281 47.5811 16.3984C47.9229 15.7348 48.2891 15.0711 48.6797 14.4586C48.753 14.3565 49.0947 13.846 49.2412 13.8205C49.3145 13.897 49.3145 14.2288 49.3145 14.3309C49.0947 15.8879 48.875 17.4704 48.6309 19.0274C48.4356 20.4312 49.0459 20.8651 50.1445 20.1504C50.4375 19.9718 50.7792 19.691 51.0234 19.4613C51.1454 19.3592 51.2431 19.2571 51.3652 19.155C51.4384 19.0274 51.5116 18.9508 51.5849 18.8742ZM39.2807 14.3054C39.1098 14.8159 38.3774 16.7813 37.645 18.083C37.352 18.619 37.0347 19.0529 36.7905 19.206C35.9605 19.7421 35.7652 18.9508 35.9361 17.2662C36.0826 15.5816 37.0835 14.1012 37.5474 13.7439C37.5718 13.7184 37.5962 13.6928 37.645 13.6673C38.2309 13.2844 39.3051 13.4886 39.3051 13.4886C39.3051 13.4886 39.5004 13.5142 39.2807 14.3054ZM39.2807 14.2799C39.2807 14.2544 39.3051 14.2288 39.3051 14.2033C39.3051 14.2288 39.2807 14.2544 39.2807 14.2799ZM40.5746 18.9763L40.4525 18.8998L40.3549 19.0019C40.2816 19.104 39.9642 19.3847 39.8422 19.3337C39.7201 19.2826 39.7445 18.7466 39.7445 18.67C39.8178 17.7512 39.9154 16.8068 40.0375 15.8879C40.1596 14.7648 40.306 13.6418 40.4525 12.5187C40.5013 12.0848 39.8422 12.4421 39.6957 12.6208C39.6713 12.6208 39.6469 12.5953 39.6469 12.5953C39.1586 12.34 38.475 12.3911 37.9868 12.6208C37.8647 12.6974 37.7671 12.7484 37.645 12.7995C37.5962 12.825 37.5474 12.8505 37.4985 12.8761C36.0337 13.8204 35.3013 15.454 34.984 17.1641C34.8619 17.8788 34.7643 18.8232 35.0328 19.5123C35.2037 19.9462 35.5211 20.3036 36.0093 20.3802C36.4244 20.4312 36.8394 20.2781 37.1323 19.9973C37.3276 19.8441 37.4985 19.6144 37.645 19.4102C37.6694 19.3592 37.6938 19.3337 37.7427 19.2826C38.1333 18.6956 38.4995 17.9809 38.8168 17.2917C38.768 17.8022 38.7436 18.3127 38.7436 18.4914C38.6948 18.7211 38.6948 19.1805 38.7192 19.4102C38.7436 19.7165 38.8412 20.0994 39.0854 20.2781C39.3295 20.4567 39.6469 20.3802 39.891 20.227C40.2328 20.0483 40.6966 19.691 40.8187 19.3081L40.8431 19.2316L40.7943 19.155C40.7455 19.1295 40.6478 19.0529 40.5746 18.9763ZM34.2272 18.4148L34.2028 18.1085L33.9586 18.2872C32.9333 19.0274 31.6638 19.3592 30.4187 19.1039C28.8563 18.7977 27.6601 17.6491 27.0253 16.1431C26.1709 14.1267 26.2929 11.9317 27.9042 10.4002C28.5145 9.83868 29.2713 9.4303 30.1014 9.27715C30.8093 9.14953 31.5906 9.20058 32.2253 9.58344C32.9333 10.0174 33.2995 10.732 33.446 11.5488V11.5743V11.5998C33.5192 11.7785 33.7145 11.753 33.861 11.7019L33.9586 11.6509V9.12401L33.8854 9.07296C32.9821 8.4859 31.9812 8.23066 30.9314 8.23066C27.7333 8.23066 25.1455 10.9362 25.1455 14.2799C25.1455 17.6236 27.7333 20.3802 30.9314 20.3802C31.8835 20.3802 33.3483 19.7676 34.2028 19.3081L34.3004 19.2571L34.276 19.155C34.276 18.8998 34.2516 18.6445 34.2272 18.4148Z" fill="#F6F9FF"/>
<path d="M9.3258 9.21422C9.49669 8.83136 9.54552 8.55059 9.54552 8.55059C9.54552 8.55059 9.64317 8.16773 9.81406 8.14221C9.83847 8.14221 9.8873 8.14221 9.91171 8.16773C9.91171 8.16773 9.8873 8.14221 9.91171 8.16773C10.0094 8.21878 10.1314 8.3464 10.2291 8.57612C10.4976 9.1887 10.5953 9.62261 10.6197 9.90337C10.6197 10.3373 10.4976 10.5415 10.4244 10.7967C10.3511 11.0775 10.2291 11.2562 10.1314 11.3072C10.0582 11.3582 9.98495 11.3327 9.91171 11.2817C9.86289 11.2562 9.78965 11.1796 9.74082 11.052C9.5211 10.6946 9.3258 10.3118 9.25256 9.9289C9.20373 9.69918 9.20373 9.44394 9.3258 9.21422ZM9.66758 11.3838C9.74082 11.5114 9.83847 11.588 9.91171 11.639C10.0094 11.6645 10.0582 11.6901 10.1314 11.6645C10.3267 11.639 10.4976 11.3838 10.5953 11.0264C10.6685 10.7712 10.8394 10.5415 10.8638 10.1331C10.8882 9.77575 10.7662 9.23975 10.3267 8.39745C10.1803 8.09116 10.0338 7.96354 9.91171 7.88696C9.86289 7.86144 9.81406 7.86144 9.78965 7.86144C9.54552 7.91249 9.39904 8.3464 9.39904 8.3464C9.39904 8.3464 9.37462 8.70374 9.13049 9.13765C8.71547 9.8268 9.15491 10.6436 9.66758 11.3838ZM4.19905 4.28806C4.19905 4.31358 4.17464 4.31358 4.19905 4.28806C4.17464 4.31358 4.19905 4.28806 4.19905 4.28806ZM4.17464 4.31358C4.17464 4.33911 4.15022 4.36463 4.12581 4.39016C4.15022 4.36463 4.17464 4.33911 4.17464 4.31358ZM14.5502 1.93984C14.5746 1.96536 14.5746 1.96536 14.5502 1.93984C14.5746 1.96536 14.5502 1.93984 14.5502 1.93984ZM17.9924 14.1659C17.5286 14.1659 17.2356 13.8596 16.7718 13.8596C16.3812 13.8596 16.1371 13.9617 15.722 14.0128C15.4779 14.0383 15.2582 14.0383 15.0629 14.0893C14.892 14.1149 14.7455 14.1914 14.599 14.3191L14.5502 14.3701C13.8178 15.1358 13.4272 15.9781 12.4018 15.9781C12.3042 15.9781 12.2554 15.9271 12.2065 15.8505C12.1821 15.7995 12.1333 15.7739 12.1089 15.7484L12.1821 11.8177C12.1821 11.8177 12.1821 11.8177 12.2065 11.8177C12.9633 11.4348 13.6713 11.1796 14.5502 11.103C14.6967 11.0775 14.8676 11.0775 15.0385 11.0775H15.0629C16.2347 11.0775 17.0403 11.1541 17.9192 11.8943C18.4319 12.3026 18.3831 12.8897 18.3831 13.5533C18.3586 13.8341 18.1877 14.1659 17.9924 14.1659ZM15.0385 23.5588C14.8676 23.763 14.6967 23.9417 14.5258 24.1203C13.7202 24.9881 12.8901 25.7028 12.1821 26.1367C12.0112 26.2388 11.8403 26.3409 11.6939 26.4175C11.5718 26.4686 11.4741 26.5196 11.3521 26.5451C11.1812 26.5962 11.0103 26.6217 10.8638 26.5962C10.7662 26.5962 10.9859 26.4686 11.3521 26.1623C11.4497 26.0857 11.5718 25.9836 11.6939 25.8815C11.8403 25.7284 12.0112 25.5752 12.1821 25.3965C12.6948 24.835 13.2807 24.0182 13.6469 22.9207C13.9399 22.0784 14.2328 21.3382 14.5258 20.7511C14.6967 20.4193 14.8676 20.113 15.0385 19.8323C16.6253 17.3054 18.1877 17.3054 18.1877 17.433C18.0657 19.3218 16.6497 21.6955 15.0385 23.5588ZM10.0338 25.5242C10.0582 25.5242 10.0582 25.4986 10.0826 25.4986C10.0582 25.4986 10.0582 25.4986 10.0338 25.5242ZM7.49482 26.1623C6.83566 26.0602 6.24975 25.7794 5.71266 25.3965C5.15116 24.9881 4.63849 24.4521 4.22346 23.9417L4.19905 23.9161C4.02816 23.6864 3.88168 23.4822 3.7352 23.278C3.32018 22.6655 3.07605 22.1805 3.07605 22.1805C3.07605 22.1805 3.32018 21.9763 3.7352 21.67C3.85727 21.5679 4.02816 21.4403 4.19905 21.3127L4.22346 21.2871C4.63849 20.9553 5.17557 20.5469 5.71266 20.1386C5.73707 20.113 5.76149 20.113 5.76149 20.0875C7.22627 18.99 8.2028 19.5005 8.7643 21.67C8.9596 22.4102 9.44786 22.742 9.98495 22.9207C10.4244 23.0228 10.9126 23.0228 11.3277 22.9717C11.4497 22.9462 11.5718 22.9462 11.6695 22.9207C11.8648 22.8952 12.0357 22.8441 12.1577 22.8186C12.3774 22.7675 12.4995 22.7165 12.4995 22.7165C12.4995 22.7165 12.4995 22.742 12.1577 23.1504V23.1759C12.0357 23.3291 11.8892 23.5333 11.6695 23.814C11.5962 23.9161 11.4986 24.0438 11.4009 24.1714L11.3277 24.2479C10.8882 24.835 10.4244 25.2434 9.98495 25.5497C9.15491 26.1367 8.27604 26.2899 7.49482 26.1623ZM2.22159 20.1896C2.22159 20.2151 2.22159 20.2151 2.22159 20.1896C2.22159 20.113 2.22159 20.0365 2.22159 20.0365C2.19718 19.9599 2.07511 19.6026 1.97746 19.2197C1.83098 18.7858 1.51361 18.2242 1.41596 17.8924C1.31831 17.5606 1.09859 16.2334 1.09859 15.6718C1.09859 15.1103 1.39155 15.3911 1.6845 15.6463C1.87981 15.7995 2.0507 15.876 2.22159 15.9015H2.246C2.36807 15.9271 2.46572 15.9271 2.56337 15.9526C2.8075 15.9526 3.02722 16.1823 3.44225 15.9526C3.80844 15.7739 3.75962 16.1057 3.80844 16.2078C3.83286 16.3099 3.93051 16.5652 3.97933 16.8715C4.00375 17.1267 4.00375 17.8924 4.24788 18.454C4.24788 18.4795 4.27229 18.4795 4.27229 18.505C4.2967 18.5305 4.32112 18.5816 4.32112 18.6071C4.56525 19.0665 4.34553 19.2707 4.27229 19.3473H4.24788C4.22346 19.3984 4.1014 19.577 3.78403 19.8833C3.61314 20.0365 3.39342 20.2407 3.12488 20.4448C2.44131 20.9809 2.27042 20.4704 2.22159 20.1896ZM0.952111 13.3491C0.976524 13.2726 1.17183 11.5369 1.17183 10.8988C1.19624 10.2607 1.56244 8.16773 1.92863 7.73382C2.0507 7.55515 2.14835 7.37648 2.19718 7.19781L2.22159 7.17229C2.31924 6.91705 2.39248 6.7639 2.58779 6.84047C2.88075 6.94257 2.83192 7.19781 2.68544 7.5041C2.53896 7.78487 2.75868 8.57612 3.07605 8.75479C3.36901 8.90793 3.68638 10.0055 3.29577 11.3072C2.92957 12.6089 2.9784 13.0428 3.19812 14.0128C3.19812 14.0128 3.36901 14.3956 3.29577 14.5998C3.19811 14.9061 2.73427 14.5743 2.22159 14.2935H2.19718C1.95305 14.1404 1.66009 14.0128 1.46478 14.0128C0.805632 13.9617 0.952111 13.4257 0.952111 13.3491ZM3.75962 5.25798C3.83285 4.90064 4.02816 4.61987 4.19905 4.28806C4.19905 4.26253 4.22346 4.23701 4.22346 4.21149L4.24788 4.16044C4.41877 3.8031 4.56525 3.47129 4.93144 3.29262C5.15116 3.19052 5.46853 2.93528 5.61501 2.78213C5.68825 2.73108 5.73708 2.65451 5.7859 2.60346C6.12769 2.19508 6.3474 2.04193 6.95773 1.93984C7.2751 1.99088 7.22627 2.37375 7.2751 2.75661C7.49482 3.36919 7.73895 3.67548 7.73895 4.26253C7.73895 4.6454 7.66571 4.84959 7.59247 5.1814V5.97265C6.93332 5.97265 6.46947 6.1258 5.93238 6.38104H4.93144L4.4676 6.63628C4.39436 6.66181 4.32112 6.66181 4.27229 6.66181H4.24788C4.12581 6.66181 4.05257 6.58523 3.90609 6.48314C3.90609 6.25342 3.83285 6.07475 3.78403 5.87056C3.75961 5.79398 3.7352 5.69189 3.7352 5.56427C3.71079 5.46217 3.7352 5.36007 3.75962 5.25798ZM7.54364 13.732C7.8366 14.1659 7.59247 15.6718 7.6413 16.7694C7.71454 17.8669 7.42158 17.8159 6.61595 18.2242C6.1521 18.4795 5.90797 18.454 5.71266 18.2753C5.56618 18.1477 5.46853 17.9435 5.29764 17.6627C4.83379 16.9991 5.07792 16.897 4.36994 14.6253C4.32112 14.4977 4.2967 14.3446 4.24788 14.2425C4.24788 14.217 4.22346 14.1914 4.22346 14.1659C3.93051 13.0173 4.02816 12.3537 4.22346 11.8687C4.22346 11.8432 4.24788 11.8432 4.24788 11.8177C4.36994 11.5369 4.51642 11.3327 4.58966 11.103C4.76055 10.7201 5.34647 10.8733 5.73707 11.0264C5.93238 11.103 6.07886 11.1796 6.07886 11.1796C6.07886 11.1796 6.76242 11.5114 7.05538 11.6645C7.34834 11.7666 7.37275 11.639 7.66571 11.8943C7.8366 12.0219 7.6413 12.2771 7.6413 12.6089C7.61688 13.1449 7.49482 13.196 7.54364 13.732ZM7.78777 7.7083C7.71453 8.21878 7.71454 8.67821 7.6413 9.36737C7.56806 10.0055 7.56806 10.618 6.61595 10.2097C6.32299 10.082 6.00562 9.97995 5.71266 9.87785C5.24881 9.69918 4.88262 9.59708 4.8582 9.59708C4.80938 9.59708 4.36994 9.57156 4.27229 9.1887C4.22346 9.11212 4.27229 9.06108 4.22346 9.03555C4.22346 9.03555 4.19905 9.01003 4.19905 8.9845C4.15023 8.90793 4.12581 8.70374 4.19905 8.47402V8.4485C4.19905 8.42297 4.22346 8.39745 4.22346 8.3464C4.27229 8.06563 4.19905 7.86144 4.78497 7.86144C5.19999 7.86144 5.46853 7.86144 5.71266 7.81039C5.88355 7.78487 6.00562 7.78487 6.1521 7.73382C6.51829 7.65725 6.88449 7.6062 6.88449 7.6062C6.88449 7.6062 7.86101 7.22334 7.78777 7.7083ZM7.81219 7.5041C7.8366 7.47858 7.8366 7.47858 7.81219 7.5041V7.5041ZM8.86195 1.3783C9.37463 1.3783 9.74082 1.3783 10.0094 1.35278C10.2535 1.35278 10.3756 1.32726 10.3756 1.32726C10.3756 1.32726 10.9126 1.27621 11.3521 1.45488C11.4741 1.50593 11.5962 1.5825 11.6939 1.68459C11.7915 1.83774 11.8648 2.01641 11.8159 2.27165C11.645 3.42024 11.8159 4.79854 11.8159 5.3856C11.7915 5.74294 11.7671 6.55971 11.6939 7.35096C11.645 8.01459 11.5474 8.65269 11.4253 8.95898C11.4009 9.01003 11.3765 9.06108 11.3521 9.11212C11.108 9.8268 10.9859 10.7967 11.0591 11.6135C11.0835 12.5579 10.6929 21.083 10.6929 21.083C10.6929 21.083 10.6197 22.6655 10.0094 21.67C9.93612 21.5424 9.83847 21.3382 9.74082 21.083C8.91078 19.041 8.30045 18.3519 8.3981 15.7229C8.49575 13.0939 8.64223 8.57612 8.83754 8.21878C9.00843 7.83592 9.05725 6.17685 8.83754 4.82407C8.61782 3.49681 8.30045 2.55242 8.30045 2.2206C8.25162 1.93984 7.88543 1.3783 8.86195 1.3783ZM12.2065 18.99V18.9644C12.353 18.6837 12.5727 18.3263 12.8657 17.8414C13.4516 16.897 14.0375 16.2334 14.5502 15.7995C14.7211 15.6463 14.892 15.5442 15.0629 15.4421C16.845 14.3446 17.9924 15.8505 17.9924 15.8505C17.9924 15.8505 15.9906 16.9225 15.0629 18.454C14.892 18.7347 14.7455 19.0155 14.6723 19.3473C14.6479 19.4749 14.599 19.577 14.5502 19.7046C14.0864 20.8277 12.8413 21.5169 12.2065 21.7211C12.0112 21.7976 11.8892 21.7976 11.8892 21.7211C11.9136 20.1896 11.6695 20.062 12.2065 18.99C11.7183 19.9344 12.1089 19.1431 12.2065 18.99ZM12.3286 9.97995C12.3286 9.57156 12.5483 9.34184 12.5483 8.93346C12.5483 8.67821 12.5727 8.37192 12.8413 8.37192H14.184C14.3061 8.32088 14.4281 8.29535 14.5746 8.26983C14.7455 8.21878 14.9164 8.19325 15.0873 8.14221C15.7464 7.98906 16.2835 7.91249 17.1136 7.91249C17.553 7.91249 17.6507 8.3464 17.7971 8.80583C17.968 9.39289 18.0413 9.69918 18.0413 10.3118V10.8988C17.3333 10.7201 16.9183 10.6691 16.2347 10.567C15.7709 10.4904 15.4047 10.4139 15.0629 10.3373C14.892 10.3118 14.7211 10.2862 14.5502 10.2607C14.3305 10.2352 14.1108 10.2097 13.8422 10.2097C13.3295 10.2097 12.7192 10.1076 12.4018 10.4904C12.2065 10.4394 12.3286 10.2097 12.3286 9.97995ZM12.4995 6.40656C12.5483 6.07475 12.4995 5.9216 12.6216 5.64084L12.6948 3.26709C12.6948 3.01185 12.4018 2.68004 12.5483 2.60346C12.8657 2.47584 13.7202 2.93528 14.5502 3.62443C14.7211 3.77758 14.892 3.93072 15.0629 4.08387C15.8685 4.87511 16.5521 5.84503 16.5765 6.63628C16.5765 6.78943 15.8929 6.73838 15.8929 6.73838L15.0385 6.91705L14.5258 7.04467L13.7202 7.22334C13.7202 7.22334 12.646 7.37648 12.4995 7.22334C12.3286 7.04467 12.4995 6.40656 12.4995 6.40656ZM15.0385 2.39927C14.8676 2.24613 14.6967 2.09298 14.5258 1.93984C13.769 1.35278 13.0122 0.842297 12.1821 0.510483C12.0112 0.433911 11.8648 0.382862 11.6939 0.331814C11.5718 0.30629 11.4741 0.255242 11.3521 0.229717C10.9126 0.102097 10.4732 0.0510483 10.0094 0.0255242C9.8873 0.0255242 9.76523 0 9.64317 0C8.25162 0 6.93332 0.433911 5.73707 1.22516C5.2244 1.55697 4.73614 1.96536 4.24788 2.42479L4.22346 2.45032C4.07699 2.60346 3.90609 2.78213 3.75962 2.93528C3.19811 3.57338 2.68544 4.28806 2.22159 5.07931L2.19718 5.10483C0.830045 7.52963 0 10.618 0 13.9872C0 17.3564 0.830045 20.4704 2.19718 22.8952L2.22159 22.9207C2.68544 23.7375 3.19811 24.4521 3.75962 25.0902C3.90609 25.2689 4.05257 25.4221 4.22346 25.5752L4.24788 25.6007C4.73614 26.0602 5.2244 26.4686 5.73707 26.8004C6.93332 27.5661 8.27604 28 9.66758 28C9.78965 28 9.91171 28 10.0338 28C10.4976 27.9745 10.9371 27.9234 11.3765 27.7958C11.4986 27.7703 11.5962 27.7192 11.7183 27.6937C11.8892 27.6427 12.0357 27.5916 12.2065 27.515C13.0366 27.1832 13.8178 26.6983 14.5502 26.0857C14.7211 25.9325 14.892 25.7794 15.0629 25.6263C17.6262 23.0994 19.3352 18.8368 19.3352 14.0128C19.3107 9.1887 17.6262 4.92616 15.0385 2.39927ZM4.1014 4.4412C4.1014 4.46673 4.07699 4.49225 4.1014 4.4412V4.4412Z" fill="#F6F9FF"/>
</svg>
