<svg width="75" height="20" viewBox="0 0 75 20" fill="none" xmlns="http://www.w3.org/2000/svg">
<path d="M16.5748 5.71745L11.6299 0.751536C11.6031 0.724693 11.5762 0.697851 11.5493 0.671008C11.6031 0.912593 11.6568 1.15418 11.6568 1.42261C11.6568 2.25473 11.2806 3.00633 10.6893 3.51634L13.968 6.818C14.8817 7.7575 14.8817 9.26069 13.968 10.1733L10.6625 13.5019C10.2862 13.9582 10.0443 11.9181 10.34 11.7571C11.5762 11.1934 12.4362 9.93176 12.4362 8.48225C12.4362 6.49589 10.8237 4.88532 8.86186 4.88532C6.87315 4.88532 5.28755 6.49589 5.28755 8.48225C5.28755 9.95861 6.17441 11.2202 7.43751 11.7839C7.70626 11.9181 7.46439 13.9045 7.08814 13.5019L3.72883 10.1733C2.8151 9.23385 2.8151 7.73066 3.72883 6.818L7.0344 3.4895C6.44316 2.97949 6.06691 2.22789 6.06691 1.39576C6.06691 1.12733 6.09379 0.88575 6.17441 0.644165C6.14754 0.671008 6.12066 0.697851 6.09379 0.724693L1.14888 5.71745C-0.382961 7.24749 -0.382961 9.74386 1.14888 11.2739L6.09379 16.2398C7.62563 17.7699 10.0981 17.7699 11.6299 16.2398L16.5748 11.2739C18.1067 9.74386 18.1067 7.24749 16.5748 5.71745Z" fill="#F6F9FF"/>
<path d="M10.2594 1.39582C10.2594 2.17426 9.64127 2.79165 8.86191 2.79165C8.08255 2.79165 7.46443 2.17426 7.46443 1.39582C7.43756 0.644226 8.08255 0 8.86191 0C9.64127 0 10.2594 0.644226 10.2594 1.39582Z" fill="#F6F9FF"/>
<path d="M35.3064 12.2671H37.752C37.7789 12.7503 37.967 13.0992 38.2895 13.3408C38.6388 13.5824 39.1226 13.6898 39.7407 13.6898C40.1707 13.6898 40.5469 13.6092 40.8694 13.4482C41.165 13.2871 41.2994 13.0455 41.2994 12.7503C41.2994 12.3208 40.7888 11.9987 39.7944 11.7839C39.3644 11.7034 39.042 11.6497 38.827 11.5692C37.537 11.2471 36.7039 10.8713 36.2739 10.4418C35.7901 10.0123 35.5483 9.42177 35.5483 8.69701C35.5483 7.78436 35.8976 7.03276 36.5964 6.41538C37.322 5.85168 38.2626 5.58325 39.4182 5.58325C40.6813 5.58325 41.6757 5.85168 42.4281 6.41538C43.1269 7.00592 43.5031 7.8112 43.5569 8.7507H41.9981C41.5413 8.7507 41.1919 8.53596 40.95 8.13332C40.8425 8.02594 40.7619 7.94542 40.6544 7.83805C40.3588 7.6233 39.9557 7.51593 39.4719 7.51593C38.9882 7.51593 38.6388 7.59646 38.397 7.73067C38.182 7.86489 38.0745 8.07963 38.0745 8.3749C38.0745 8.7507 38.6926 9.07281 39.9557 9.34124C40.0901 9.39493 40.2244 9.42177 40.3319 9.44861C40.4394 9.47545 40.5469 9.47545 40.6275 9.47545C41.8638 9.79757 42.7238 10.1465 43.1806 10.5492C43.6375 10.9786 43.8794 11.5692 43.8794 12.2939C43.8794 13.3408 43.5031 14.1729 42.7238 14.7366C41.9981 15.2735 40.9232 15.5419 39.4719 15.5419C38.1013 15.5419 37.0801 15.2735 36.4083 14.7098C35.7095 14.1461 35.3601 13.3408 35.3601 12.2939V12.2671H35.3064Z" fill="#F6F9FF"/>
<path d="M50.8397 15.0588C50.3291 15.3272 49.7916 15.4882 49.2272 15.5419C48.6629 15.5956 48.1523 15.6225 47.7223 15.6225C46.8623 15.6225 46.0829 15.3809 45.4379 14.9245C44.793 14.4414 44.4705 13.6898 44.4705 12.5892C44.4705 11.5692 44.7661 10.8444 45.3573 10.415C45.9486 9.98548 46.701 9.69021 47.6148 9.55599C47.7223 9.55599 47.8835 9.52915 48.0448 9.50231C48.206 9.47547 48.3941 9.44862 48.6091 9.42178C49.6841 9.28757 50.1947 8.96545 50.1947 8.48228C50.1947 8.13333 50.0066 7.89174 49.6304 7.78437C49.2541 7.677 48.9048 7.62332 48.6091 7.62332C48.2598 7.62332 47.9641 7.677 47.6954 7.75753C47.4267 7.8649 47.2385 8.02596 47.1042 8.29438H44.6855C44.793 7.54279 45.1154 6.9254 45.7067 6.44223C46.3517 5.87854 47.2923 5.61011 48.5016 5.61011C49.8454 5.61011 50.8666 5.82485 51.5385 6.30802C52.2372 6.79119 52.5866 7.46226 52.5866 8.32123V11.596C52.5866 12.5624 52.4253 13.314 52.0491 13.8508C51.7266 14.4145 51.2966 14.8172 50.8397 15.0588ZM50.2485 10.6029C49.8991 10.7639 49.4422 10.925 48.851 11.0592L48.0179 11.2471C47.5879 11.3545 47.2654 11.5155 47.0773 11.7303C46.916 11.9987 46.8354 12.2671 46.8354 12.5355C46.8354 12.8845 46.9429 13.1798 47.1579 13.3945C47.3729 13.5824 47.6954 13.6898 48.0985 13.6898C48.7704 13.6898 49.3079 13.5019 49.6841 13.0992C50.0604 12.7234 50.2754 12.1866 50.2754 11.5155V10.6029H50.2485Z" fill="#F6F9FF"/>
<path d="M53.5274 3.0332H54.8173C55.1667 3.0332 55.4355 3.14057 55.6773 3.38216C55.9192 3.62374 56.0267 3.89217 56.0267 4.24113V15.4614H53.5005V3.0332H53.5274Z" fill="#F6F9FF"/>
<path d="M65.3519 5.85168V11.4887C65.3519 13.2066 64.895 14.3072 64.0082 14.844C63.1213 15.3809 62.1538 15.6493 61.0789 15.6493C60.0308 15.5956 59.0901 15.3003 58.2302 14.7903C57.3702 14.2535 56.9402 13.1529 56.9402 11.5155V5.87853H59.4664V12.0255C59.4664 12.5892 59.6276 13.0187 59.977 13.2871C60.3264 13.5556 60.7026 13.6898 61.1326 13.6898C61.5626 13.6898 61.9657 13.5556 62.3151 13.2871C62.6645 13.0187 62.8526 12.5892 62.8526 12.0255V7.08645C62.8526 6.7375 62.9601 6.46907 63.2019 6.22748C63.4438 5.9859 63.7394 5.87853 64.0888 5.87853H65.3519V5.85168Z" fill="#F6F9FF"/>
<path d="M72.5545 3.00635H73.7907C74.1401 3.00635 74.4088 3.14056 74.6507 3.38215C74.8926 3.62373 75.0001 3.919 75.0001 4.24112V11.2739C75.0001 12.9919 74.5163 14.1461 73.522 14.7366C72.5276 15.3272 71.4526 15.6493 70.297 15.6493C69.6789 15.6493 69.0608 15.5419 68.4427 15.354C67.8514 15.1393 67.3677 14.8172 66.9915 14.3608C66.2927 13.475 65.9434 12.2671 65.9434 10.7102C65.9434 9.18018 66.2927 7.97226 66.9915 7.05961C67.7171 6.12011 68.6308 5.66378 69.7864 5.66378C70.3777 5.66378 70.9151 5.77115 71.372 6.01274C71.8557 6.30801 72.232 6.68381 72.5276 7.14013V3.00635H72.5545ZM68.4427 10.576C68.4427 11.5423 68.6308 12.2671 68.9802 12.7771C69.3295 13.2871 69.867 13.5287 70.5389 13.5287C71.1839 13.5287 71.6945 13.2871 72.0439 12.7771C72.3932 12.2671 72.5545 11.5423 72.5545 10.576C72.5545 9.71704 72.3664 9.01913 72.017 8.50911C71.6407 8.02595 71.1033 7.78436 70.4583 7.78436C69.8402 7.78436 69.3295 8.02594 68.9802 8.53596C68.6308 9.04597 68.4427 9.71704 68.4427 10.576Z" fill="#F6F9FF"/>
<path d="M33.8552 13.1797C33.7208 13.0724 33.5596 13.0187 33.3715 13.0187C33.2102 13.0187 33.0221 13.0992 32.9683 13.1261C32.1352 13.475 31.329 13.6629 30.5496 13.6629C29.7434 13.6629 29.179 13.4482 28.8565 13.0187C28.5341 12.5892 28.3728 11.945 28.3728 11.086C32.5921 11.0055 34.6883 9.98545 34.6883 8.02593C34.6883 7.22065 34.3927 6.63011 33.7746 6.17378C33.1833 5.7443 32.404 5.5564 31.3827 5.5564C29.9047 5.5564 28.6415 6.06641 27.5666 7.11328C26.4916 8.16014 25.9541 9.52913 25.9541 11.2202C25.9541 12.5355 26.2766 13.6092 26.9216 14.4145C27.5666 15.2198 28.5609 15.6224 29.9047 15.6224C31.4096 15.6224 32.6458 15.2735 33.6133 14.6024C33.8821 14.4414 34.1777 14.1192 34.1777 13.824C34.2046 13.5824 34.0702 13.3408 33.8552 13.1797ZM29.4478 7.89172C29.9584 7.48908 30.469 7.27433 31.0334 7.27433C32.0009 7.27433 32.5115 7.59645 32.5115 8.24067C32.5115 9.12648 31.1678 9.60965 28.4803 9.66334C28.6415 8.8849 28.964 8.3212 29.4478 7.89172Z" fill="#F6F9FF"/>
<path d="M26.6528 1.31539C26.1422 1.23486 25.9003 1.23486 25.4166 1.23486C23.3204 1.23486 22.0842 2.87227 21.7348 6.17393C21.3586 6.17393 20.8479 6.14709 20.1761 6.0934L19.8805 8.05293C20.6061 8.02608 21.1436 7.99924 21.5198 7.99924C21.3854 9.63665 21.2242 11.3009 21.0361 12.992C20.848 14.6831 20.633 15.9179 20.3911 16.6963C20.1492 17.4747 19.773 18.0653 19.2624 18.4679C19.2624 18.4679 18.7249 18.8706 18.913 19.4074C19.1817 20.1053 20.0417 20.0516 20.3373 19.9174C21.3854 19.5685 22.7023 17.7432 23.1323 15.2199C23.5891 12.5357 23.5623 10.093 23.7235 7.99924C24.261 7.99924 24.9866 8.02608 25.9541 8.05293L26.2228 6.0934C25.2285 6.14709 24.476 6.17393 23.9116 6.17393C24.046 4.93917 24.2073 4.0802 24.4223 3.65071C24.6373 3.22123 24.9597 3.00649 25.4166 3.00649C25.7929 3.00649 26.2766 3.06017 26.4916 3.06017C26.7066 3.06017 27.2709 2.9528 27.3516 2.17436C27.3784 1.8254 27.2441 1.36908 26.6528 1.31539Z" fill="#F6F9FF"/>
</svg>
