<svg width="75" height="44" viewBox="0 0 75 44" fill="none" xmlns="http://www.w3.org/2000/svg">
<path d="M52.1244 31.6357C51.1817 30.7199 50.0033 30.2238 48.6285 30.2238C47.293 30.2238 46.1146 30.6817 45.1326 31.6357C44.1898 32.5516 43.6792 33.6964 43.6792 35.0321C43.6792 36.3296 44.1506 37.4744 45.1326 38.4284C46.0753 39.3443 47.2537 39.8404 48.6285 39.8404C49.964 39.8404 51.1424 39.3825 52.1244 38.4284C53.0671 37.5126 53.5777 36.3677 53.5777 35.0321C53.5777 33.7346 53.1064 32.5898 52.1244 31.6357ZM48.6677 38.3903C47.725 38.3903 46.9001 38.085 46.2324 37.3981C45.5646 36.7493 45.2111 35.948 45.2111 35.0321C45.2111 34.1162 45.5254 33.3148 46.2324 32.6661C46.9001 32.0173 47.725 31.6739 48.6677 31.6739C49.6105 31.6739 50.4353 31.9792 51.1031 32.6661C51.7709 33.3148 52.1244 34.1162 52.1244 35.0321C52.1244 35.948 51.8101 36.7493 51.1031 37.3981C50.4353 38.0468 49.6105 38.3903 48.6677 38.3903Z" fill="#F6F9FF"/>
<path d="M37.6695 30.4146C36.4518 30.4146 35.3127 30.9107 34.4485 31.7121V30.9489C34.4485 30.5673 34.1343 30.262 33.7415 30.262C33.3487 30.262 33.0344 30.5673 33.0344 30.9489V43.3131C33.0344 43.7329 33.3094 44 33.7415 44C33.9379 44 34.095 43.9237 34.2521 43.8092C34.3699 43.6566 34.4485 43.5039 34.4485 43.3131V38.5811C35.2734 39.3825 36.4911 39.8404 37.6695 39.8404C40.3012 39.8404 42.3045 37.6271 42.3045 35.1084C42.3045 32.5898 40.3405 30.4146 37.6695 30.4146ZM37.6695 38.4285C35.8626 38.4285 34.4485 36.8639 34.4485 35.1466C34.4485 33.3912 35.784 31.8647 37.6695 31.8266C39.5156 31.8266 40.8511 33.3149 40.8511 35.1084C40.8511 36.7875 39.5156 38.3903 37.6695 38.4285Z" fill="#F6F9FF"/>
<path d="M18.8937 30.262H17.8332H17.3618C16.2227 30.3383 15.28 30.9107 14.8086 31.6358V30.9489C14.8086 30.5673 14.4944 30.262 14.1016 30.262C13.7088 30.262 13.3945 30.5673 13.3945 30.9489V39.1154C13.3945 39.497 13.7088 39.8023 14.1016 39.8023C14.4944 39.8023 14.8086 39.497 14.8086 39.1154V34.994C14.8086 34.9558 14.8086 34.9176 14.8086 34.9176C14.8086 34.8795 14.8086 34.8413 14.8086 34.8413C14.8086 33.2004 16.1048 31.8266 17.7939 31.6739C17.7939 31.6739 17.7939 31.6739 17.9117 31.6739C17.951 31.6739 17.9903 31.6739 18.0688 31.6739C18.3045 31.6739 18.7366 31.6739 18.8152 31.6739C19.208 31.6739 19.5222 31.3686 19.5222 30.987C19.6008 30.5673 19.2865 30.262 18.8937 30.262Z" fill="#F6F9FF"/>
<path d="M74.9852 33.1621C75.0244 32.9713 74.9852 32.7805 74.8673 32.6278C74.0817 31.3304 72.6284 30.5671 71.0572 30.5671C68.4647 30.5671 66.4614 32.7042 66.4614 35.1847C66.4614 37.627 68.3861 39.8403 71.0179 39.8403C72.5105 39.8403 73.8853 39.1153 74.7495 37.8941C74.8673 37.7033 74.9459 37.5507 74.8673 37.3598C74.7495 37.0164 74.4352 36.8256 74.0424 36.8256C73.846 36.8637 73.6889 36.9401 73.5711 37.1309C72.9819 37.9323 72.0392 38.4284 71.0179 38.4284C70.0752 38.4284 69.2503 38.0086 68.7004 37.398L74.6316 33.62C74.828 33.4674 74.9459 33.3529 74.9852 33.1621ZM68.0326 36.1387C67.9541 35.8334 67.8755 35.4899 67.8755 35.1465C67.8755 33.4674 69.211 31.9028 71.0572 31.9028C71.882 31.9028 72.5891 32.2081 73.2176 32.7805L68.0326 36.1387Z" fill="#F6F9FF"/>
<path d="M11.0376 33.3148C10.8805 33.2003 10.7234 33.124 10.527 33.124H6.32406C6.12766 33.124 5.97054 33.2003 5.81342 33.3148C5.69558 33.4674 5.61702 33.6201 5.61702 33.8109C5.61702 34.0017 5.69558 34.1543 5.81342 34.307C5.93126 34.4596 6.12766 34.4978 6.32406 34.4978H9.15221C9.15221 34.4978 9.42717 34.4978 9.66285 34.6886C9.89853 34.9176 9.85925 35.2228 9.85925 35.2228V36.9019C9.85925 36.9019 9.85925 37.0927 9.78069 37.2072C9.70213 37.3217 9.62357 37.398 9.54501 37.4362C9.15221 37.7415 8.68085 37.9705 8.2095 38.1231C7.6203 38.3139 6.99182 38.4284 6.36334 38.4284C5.6563 38.4284 5.02783 38.2757 4.39935 38.0468C3.81015 37.7796 3.26023 37.4362 2.82815 36.9783C2.39607 36.5203 2.04255 35.9861 1.76759 35.4137C1.53192 34.8412 1.3748 34.1925 1.3748 33.5438C1.3748 32.8568 1.49264 32.2081 1.76759 31.5975C2.04255 30.9869 2.39607 30.4908 2.86743 30.0329C3.33879 29.6131 3.84943 29.2315 4.47791 29.0026C5.06711 28.7354 5.73486 28.6209 6.40262 28.6209C7.0311 28.6209 7.69886 28.7354 8.32734 29.0026C8.95581 29.2315 9.50573 29.6131 10.0164 30.0711C10.1735 30.2237 10.3306 30.2619 10.4877 30.2619C10.5663 30.2619 10.6841 30.2237 10.7627 30.2237C10.8412 30.1856 10.9198 30.1474 10.9984 30.0711C11.0769 29.9948 11.1162 29.9566 11.1555 29.8421C11.1948 29.7658 11.234 29.6895 11.234 29.575C11.234 29.4223 11.1555 29.2315 11.0376 29.0789C10.4092 28.4683 9.66285 27.9722 8.91653 27.6669C8.13094 27.3616 7.30606 27.209 6.4419 27.209C5.8527 27.209 5.2635 27.2853 4.71359 27.438C4.16367 27.5906 3.65303 27.8196 3.18167 28.0867C2.71031 28.3538 2.27823 28.6973 1.88543 29.0789C1.49264 29.4605 1.1784 29.8803 0.903437 30.3382C0.628478 30.7961 0.432079 31.2922 0.274959 31.8265C0.0785598 32.4371 0 32.9713 0 33.5438C0 34.1162 0.0785598 34.6886 0.235679 35.1847C0.392799 35.7571 0.589198 36.2532 0.864158 36.7111C1.13912 37.1691 1.49264 37.5888 1.84615 37.9705C2.23895 38.3521 2.67103 38.6955 3.14239 38.9626C3.61375 39.2298 4.12439 39.4587 4.67431 39.6114C5.22423 39.764 5.77414 39.8404 6.36334 39.8404C7.18822 39.8404 8.0131 39.6877 8.79869 39.4206C9.58429 39.1535 10.3306 38.6574 11.0376 38.0468C11.1162 37.9705 11.1555 37.8941 11.234 37.8178C11.2733 37.7415 11.3126 37.627 11.3126 37.5125V33.849C11.2733 33.6201 11.1948 33.4674 11.0376 33.3148Z" fill="#F6F9FF"/>
<path d="M30.8739 30.9489C30.8739 30.5673 30.5597 30.262 30.1669 30.262C29.7741 30.262 29.4598 30.5673 29.4598 30.9489V35.1466C29.4598 36.8257 28.1243 38.3903 26.3175 38.3903C25.0605 38.3903 23.8821 37.5889 23.45 36.4441C23.2929 36.0625 23.1751 35.6427 23.1751 35.1848V30.9489C23.1751 30.5673 22.8608 30.262 22.468 30.262C22.0752 30.262 21.761 30.5673 21.761 30.9489V35.2229C21.761 37.6271 23.7643 39.8404 26.3175 39.8023C28.9099 39.8023 30.8739 37.6652 30.8739 35.1466V30.9489Z" fill="#F6F9FF"/>
<path d="M66.4617 26.8655H62.3373C60.9232 26.8655 59.6663 28.0103 59.6663 29.4604V39.1152V39.1534C59.7055 39.535 59.9805 39.8021 60.3733 39.8021C60.7661 39.8021 61.0803 39.4969 61.0803 39.1152C61.0803 39.1152 61.0803 35.0701 61.0803 34.7649C61.0803 34.4214 61.316 34.078 61.7874 34.078C61.7874 34.078 61.7874 34.078 61.8267 34.078H64.3406C64.7334 34.078 65.0476 33.7727 65.0476 33.3911C65.0476 33.0094 64.7334 32.7042 64.3406 32.7042H61.8267C61.7874 32.7042 61.7874 32.7042 61.7874 32.7042C61.4731 32.7042 61.0803 32.437 61.0803 32.0172C61.0803 31.8264 61.0803 29.5749 61.0803 29.5749C61.0803 28.8117 61.7088 28.2393 62.4551 28.2393H66.4617C66.8545 28.2393 67.1687 27.934 67.1687 27.5524C67.1687 27.1708 66.8545 26.8655 66.4617 26.8655Z" fill="#F6F9FF"/>
<path d="M38.5729 17.7068C39.5942 17.3252 40.4191 16.6383 40.969 15.7988C41.244 15.379 41.4011 14.9211 41.5189 14.4631C41.6367 14.0052 41.676 13.5473 41.6367 13.0893C41.5975 12.6314 41.4404 12.2116 41.2047 11.83C41.1261 11.6392 41.0083 11.4484 40.8904 11.2576C40.8512 11.1813 40.7726 11.0668 40.7333 10.9904C40.6548 10.9141 40.6155 10.7996 40.5762 10.7233C40.5369 10.6088 40.4584 10.5325 40.3798 10.4562C40.3405 10.3417 40.262 10.2654 40.1834 10.1891C40.0656 9.99826 39.9084 9.80745 39.7513 9.6548C39.4371 9.27319 39.0443 8.92974 38.6122 8.50997C38.5729 8.47181 38.5729 8.39548 38.6122 8.35732L38.6515 8.31916C39.28 8.16652 39.9477 8.24284 40.5369 8.47181C40.8512 8.58629 41.1261 8.73893 41.4011 8.89158C41.5582 8.9679 41.676 9.08239 41.7939 9.19687L41.9903 9.34952C42.0688 9.38768 42.1081 9.464 42.1867 9.50216C42.658 9.9601 42.9723 10.5707 43.1294 11.2194C43.2865 11.8682 43.2865 12.5169 43.2472 13.1275C43.2079 13.7381 43.0508 14.3486 42.7759 14.9211C42.5009 15.4935 42.1474 15.9896 41.7153 16.4093C40.8512 17.2489 39.712 17.7832 38.5729 17.8976C38.5336 17.8976 38.4551 17.8595 38.4551 17.8213C38.5336 17.7832 38.5336 17.7068 38.5729 17.7068Z" fill="#F6F9FF"/>
<path d="M36.2946 8.51007C35.3126 8.92984 34.4877 9.61674 33.9771 10.4563C33.7021 10.8761 33.545 11.2958 33.4271 11.7538C33.3093 12.2117 33.27 12.6696 33.3486 13.0894C33.3879 13.5474 33.545 13.9671 33.7807 14.3487C33.8199 14.4251 33.8592 14.5395 33.9378 14.6159C33.9771 14.6922 34.0163 14.8067 34.0949 14.883C34.1342 14.9593 34.2127 15.0738 34.252 15.1501C34.2913 15.2265 34.3699 15.3409 34.4091 15.4173L34.4484 15.4936L34.4877 15.5699L34.5663 15.7225L34.6448 15.8752L34.7234 16.0278C34.8412 16.2186 34.9983 16.4095 35.1555 16.5621C35.4697 16.9437 35.8232 17.2872 36.2946 17.7069C36.3339 17.7451 36.3339 17.8214 36.2946 17.8596L36.2553 17.8977C35.6268 18.0504 34.9983 17.9741 34.3699 17.7451C34.0556 17.6306 33.7807 17.478 33.5057 17.3253C33.4271 17.2872 33.3879 17.249 33.3093 17.1727L33.1129 17.02L32.9165 16.8674L32.8379 16.7911L32.7594 16.7147C32.288 16.2568 31.9738 15.6462 31.8167 15.0356C31.6595 14.4251 31.6595 13.7763 31.6988 13.1657C31.7381 12.5552 31.8952 11.9446 32.1309 11.3722C32.3666 10.7997 32.7201 10.3036 33.1522 9.88387C33.9771 9.04432 35.1162 8.47191 36.216 8.35742C36.2553 8.35742 36.3339 8.39558 36.3339 8.43374C36.3339 8.47191 36.3339 8.51007 36.2946 8.51007Z" fill="#F6F9FF"/>
<path d="M42.7366 6.33472C40.969 5.22804 38.8871 4.80827 36.9231 5.03724C35.9411 5.15172 34.9984 5.45701 34.1343 5.87678C33.2701 6.29656 32.4845 6.86898 31.856 7.55588C31.2275 8.24278 30.7169 9.04417 30.4027 9.88372C30.0884 10.7233 29.8527 11.601 29.7349 12.4787C29.6171 13.3564 29.6171 14.3104 29.7349 15.2263C29.8527 16.1803 30.1277 17.0962 30.5205 18.0884C30.5598 18.1265 30.5205 18.2029 30.4419 18.241C30.4027 18.241 30.3634 18.241 30.3241 18.241C29.4599 17.5923 28.7529 16.6764 28.3208 15.6461C27.8495 14.6157 27.6531 13.4709 27.6531 12.3642C27.6924 11.2194 27.9673 10.0745 28.5172 9.08233C29.0672 8.09014 29.8135 7.17427 30.6383 6.4492C31.4632 5.68598 32.4452 5.0754 33.5058 4.69379C34.5663 4.27401 35.6662 4.08321 36.8053 4.04504C37.9051 4.04504 39.005 4.19769 40.0262 4.5793C40.2619 4.69379 40.5369 4.77011 40.7726 4.88459C41.0082 4.99908 41.2439 5.11356 41.4796 5.2662L42.1474 5.68598L42.7758 6.18207C42.8151 6.22024 42.8151 6.29656 42.7758 6.33472C42.8544 6.33472 42.7758 6.37288 42.7366 6.33472Z" fill="#F6F9FF"/>
<path d="M32.131 19.7677L32.7987 20.1493L33.5058 20.4927L34.2521 20.7598L34.9984 20.9507C36.0197 21.1796 37.041 21.2178 38.023 21.1033C39.005 20.9888 39.9869 20.6835 40.8511 20.2638C41.7153 19.844 42.5009 19.2334 43.1686 18.5465C43.8364 17.8596 44.3077 17.02 44.622 16.1423C44.9362 15.2646 45.1719 14.3869 45.2897 13.471C45.4076 12.5552 45.3683 11.6011 45.2112 10.6853C45.0541 9.73124 44.7398 8.77721 44.3077 7.82318C44.2685 7.78502 44.3077 7.70869 44.347 7.67053C44.3863 7.67053 44.4256 7.67053 44.4649 7.67053C45.3683 8.31927 46.0753 9.23514 46.586 10.2655C47.0573 11.2959 47.3323 12.4407 47.3323 13.5855C47.3323 14.7304 47.018 15.9134 46.5074 16.9437C45.9575 17.9741 45.2112 18.8899 44.347 19.6532C43.4829 20.4164 42.5009 21.027 41.4403 21.4468C40.3797 21.8665 39.2406 22.0573 38.1015 22.0955C36.9624 22.0955 35.8626 21.9047 34.802 21.5231C34.5663 21.4086 34.2914 21.3323 34.0557 21.2178C33.82 21.1033 33.5843 20.9507 33.3486 20.8362L32.6809 20.3782L32.0524 19.8821C32.0131 19.844 32.0131 19.7677 32.0524 19.7295C32.0131 19.7677 32.0917 19.7295 32.131 19.7677Z" fill="#F6F9FF"/>
<path d="M47.0179 20.7597C47.4893 20.1491 47.8821 19.5386 48.1963 18.8898C48.5499 18.2411 48.8248 17.5542 49.0212 16.8673C49.4533 15.4553 49.5711 14.0052 49.4533 12.5932C49.3355 11.1812 48.9427 9.76928 48.3142 8.50996C47.6857 7.25064 46.8215 6.1058 45.761 5.15177C44.7004 4.19774 43.4828 3.47267 42.1472 2.97658C40.8117 2.48048 39.4369 2.17519 38.0621 2.06071C36.6088 1.8699 35.1947 1.94622 33.7806 2.28968C32.3666 2.59497 30.9918 3.12922 29.617 3.85429C29.5777 3.89245 29.4991 3.85429 29.4598 3.81613C29.4206 3.77796 29.4598 3.7398 29.4598 3.70164C30.4811 2.51864 31.8166 1.56461 33.3093 0.954031C34.8019 0.30529 36.4517 0 38.1407 0C38.9656 0 39.7904 0.114484 40.6153 0.30529C41.0081 0.381613 41.4009 0.534258 41.7937 0.648741C42.1865 0.801386 42.5793 0.954031 42.9328 1.10668C44.4255 1.83174 45.761 2.82393 46.9001 3.96877C48.0392 5.11361 48.9034 6.48741 49.5319 7.93754C50.1211 9.38767 50.4353 10.9523 50.4746 12.5169C50.5139 15.608 49.2962 18.699 47.1751 20.9124C47.1358 20.9505 47.0572 20.9505 47.0179 20.9124C46.9787 20.8742 46.9787 20.7979 47.0179 20.7597Z" fill="#F6F9FF"/>
<path d="M27.9673 5.41889C27.496 6.02947 27.1032 6.64005 26.7889 7.28879C26.4354 7.93753 26.1605 8.62443 25.9641 9.31134C25.532 10.7233 25.4142 12.1734 25.532 13.5854C25.6498 14.9974 26.0426 16.4093 26.7104 17.6687C27.3389 18.928 28.203 20.0728 29.2636 21.0268C30.3241 21.9809 31.5418 22.7059 32.8773 23.202C34.1736 23.6981 35.5484 24.0034 36.9624 24.1179C38.3765 24.2324 39.7906 24.1561 41.2047 23.8508C42.6187 23.5455 43.9935 23.0112 45.3683 22.2862C45.4076 22.248 45.4862 22.2862 45.5255 22.3243C45.5647 22.3625 45.5255 22.4006 45.5255 22.4388C44.5042 23.6218 43.1687 24.5758 41.676 25.1864C40.1834 25.8352 38.5336 26.1404 36.8446 26.1404C36.0197 26.1404 35.1948 26.026 34.37 25.8352C33.9772 25.7588 33.5844 25.6062 33.1916 25.4917C32.7988 25.3391 32.406 25.1864 32.0525 25.0338C30.5598 24.3087 29.2243 23.3165 28.1245 22.1717C26.9853 21.0268 26.1212 19.653 25.4927 18.2029C24.9035 16.7528 24.5893 15.1882 24.55 13.6236C24.5107 10.5325 25.7284 7.44144 27.8495 5.22808C27.8888 5.18992 27.9673 5.18992 28.0066 5.22808C28.0066 5.34257 28.0066 5.38073 27.9673 5.41889Z" fill="#F6F9FF"/>
</svg>
