<svg width="18" height="18" viewBox="0 0 18 18" fill="none" xmlns="http://www.w3.org/2000/svg">
<path d="M4.02957 18H0.297654V5.98243H4.02957V18ZM2.16136 4.34314C0.968177 4.34314 0 3.35443 0 2.16129C0 1.58808 0.227714 1.03835 0.633049 0.633026C1.03838 0.227706 1.58813 0 2.16136 0C2.73459 0 3.28434 0.227706 3.68968 0.633026C4.09501 1.03835 4.32273 1.58808 4.32273 2.16129C4.32273 3.35443 3.35455 4.34314 2.16136 4.34314ZM17.9968 18H14.2732V12.15C14.2732 10.7556 14.2449 8.96786 12.333 8.96786C10.3928 8.96786 10.0951 10.4824 10.0951 12.0497V18H6.36708V5.98243H9.946V7.62171H9.99807C10.4963 6.67736 11.7133 5.68093 13.5288 5.68093C17.3057 5.68093 18 8.16814 18 11.3985V18H17.9968Z" fill="white"/>
</svg>
