<svg width="75" height="22" viewBox="0 0 75 22" fill="none" xmlns="http://www.w3.org/2000/svg">
<path d="M28.1463 14.0235C27.9773 13.9199 27.8083 13.8508 27.6054 13.8508C27.4026 13.8508 27.1998 13.9544 27.1322 13.9889C26.1518 14.4034 25.2391 14.6107 24.3601 14.6107C23.4474 14.6107 22.8051 14.3689 22.4333 13.8508C22.0614 13.3327 21.8924 12.5728 21.8924 11.5711C26.7265 11.4675 29.1267 10.2931 29.1267 8.01338C29.1267 7.08077 28.7886 6.35541 28.0787 5.87184C27.4026 5.38827 26.4899 5.14648 25.3405 5.14648C23.6502 5.14648 22.1966 5.76822 20.9796 6.97715C19.7627 8.18608 19.1204 9.8095 19.1204 11.8129C19.1204 13.3672 19.4922 14.6107 20.2359 15.5433C20.9796 16.4759 22.0952 16.9595 23.6502 16.9595C25.3743 16.9595 26.7941 16.5795 27.9097 15.7851C28.2139 15.5778 28.552 15.2324 28.552 14.887C28.552 14.4725 28.3829 14.1962 28.1463 14.0235ZM23.1094 7.84067C23.684 7.3571 24.2925 7.11531 24.9348 7.11531C26.0504 7.11531 26.6251 7.49526 26.6251 8.22062C26.6251 9.25685 25.1039 9.84404 22.0276 9.87858C22.1628 9.01506 22.5347 8.32424 23.1094 7.84067Z" fill="#F6F9FF"/>
<path d="M74.0196 14.0235C73.8844 13.9199 73.6816 13.8508 73.4787 13.8508C73.2759 13.8508 73.0731 13.9544 73.0055 13.9889C72.0251 14.4034 71.1124 14.6107 70.2334 14.6107C69.3207 14.6107 68.6784 14.3689 68.3065 13.8508C67.9347 13.3327 67.7657 12.5728 67.7657 11.5711C72.5998 11.4675 75 10.2931 75 8.01338C75 7.08077 74.6619 6.35541 73.952 5.87184C73.2759 5.38827 72.3632 5.14648 71.2138 5.14648C69.5235 5.14648 68.0699 5.76822 66.8529 6.97715C65.6359 8.18608 64.9937 9.8095 64.9937 11.8129C64.9937 13.3672 65.3655 14.6107 66.1092 15.5433C66.8529 16.4759 67.9685 16.9595 69.5235 16.9595C71.2476 16.9595 72.6674 16.5795 73.783 15.7851C74.0872 15.5778 74.4253 15.2324 74.4253 14.887C74.3915 14.4725 74.2562 14.1962 74.0196 14.0235ZM68.9827 7.84067C69.5573 7.3571 70.1658 7.11531 70.8081 7.11531C71.9237 7.11531 72.4984 7.49526 72.4984 8.22062C72.4984 9.25685 70.9772 9.84404 67.9009 9.87858C68.0361 9.01506 68.408 8.32424 68.9827 7.84067Z" fill="#F6F9FF"/>
<path d="M11.4126 15.4058C11.4126 15.3366 11.4126 15.3019 11.4475 15.2327C11.4126 15.2673 11.4126 15.3366 11.4126 15.4058Z" fill="#F6F9FF"/>
<path d="M19.3907 5.5265C18.7484 5.25017 18.0723 5.25017 17.7004 5.25017C16.6187 5.25017 15.6721 5.80283 14.8946 6.90814H14.7256C14.7256 6.42456 14.658 6.25186 14.658 6.21732C14.658 5.42288 14.0157 4.7666 13.2382 4.7666C12.4607 4.7666 11.8184 5.42288 11.8184 6.21732C11.8184 6.32094 11.8522 6.56273 11.8522 6.56273C11.9874 7.73712 12.0212 7.84074 12.0212 8.63518C12.0212 9.84411 11.8184 12.0547 11.4127 15.2325C11.4127 15.3016 11.4127 15.3361 11.3789 15.4052C11.3789 15.4397 11.3789 15.5088 11.3789 15.5434C11.3789 15.9924 11.5817 16.4069 11.9198 16.6487C12.1564 16.8214 12.4269 16.925 12.7311 16.925C13.0692 16.925 13.4072 16.7868 13.6438 16.5796C13.9143 16.3378 14.1171 15.9578 14.1171 15.5434C14.1171 15.9578 14.3538 12.6074 14.5904 10.2586C14.7594 8.7388 15.5031 7.9789 16.8553 7.9789C17.3286 7.9789 17.7681 8.04798 18.2075 8.15161C18.3427 8.22069 18.5118 8.25523 18.6808 8.25523C19.4583 8.25523 20.1006 7.59895 20.1006 6.80451C20.1344 6.21732 19.9654 5.76829 19.3907 5.5265Z" fill="#F6F9FF"/>
<path d="M65.7375 0.103622C65.1628 0.0345406 64.8924 0 64.3177 0C61.9175 0 60.4977 1.93429 60.0921 5.80286C59.6526 5.80286 59.0779 5.76832 58.3342 5.73378L57.9962 8.01348C58.8075 7.97894 59.4498 7.9444 59.8554 7.9444C59.6864 9.87869 59.5174 11.813 59.3146 13.7818C59.1117 15.7506 58.8751 17.2013 58.5708 18.134C58.3004 19.032 57.8609 19.7228 57.2524 20.2064C57.2524 20.2064 56.6102 20.69 56.8468 21.3117C57.151 22.1062 58.1314 22.0716 58.4694 21.8989C59.6526 21.4844 61.1738 19.3429 61.6471 16.4069C62.1542 13.2637 62.1542 10.3968 62.3232 7.9444C62.9317 7.9444 63.7768 7.97894 64.8586 8.01348L65.1628 5.73378C64.0473 5.80287 63.1683 5.83741 62.526 5.83741C62.6613 4.38669 62.8641 3.385 63.1345 2.90143C63.3712 2.38332 63.7768 2.14153 64.2839 2.14153C64.7234 2.14153 65.2642 2.21061 65.5347 2.21061C65.7713 2.21061 66.4474 2.10699 66.515 1.17439C66.6164 0.725358 66.4474 0.207245 65.7375 0.103622Z" fill="#F6F9FF"/>
<path d="M10.2295 1.13974C9.3506 0.448919 8.26884 0.138051 7.01806 0.10351C6.44337 0.10351 5.73346 0.0689697 4.95595 0.0689697C4.17843 0.103511 4.00941 0.103511 3.43472 0.172592C2.69101 0.241674 2.15013 0.345297 1.77827 0.863409C1.40642 1.34698 1.37261 1.96872 1.33881 2.45229C1.16978 4.28295 1.16978 5.21556 0.933147 7.49525C0.595097 11.0184 0.155632 14.6452 0.0204114 15.3015C-0.148614 16.2341 0.764122 16.9249 1.57544 16.9249C2.38676 16.9249 3.02906 16.3032 3.16428 15.5087C3.16428 15.5087 3.36711 11.1566 3.53614 9.67133C3.67136 9.67133 3.90799 9.70587 4.17843 9.70587C6.40956 9.70587 8.20123 9.2223 9.55343 8.25515C10.9056 7.28801 11.5817 5.87183 11.5817 4.00663C11.5479 2.7977 11.1085 1.83055 10.2295 1.13974ZM4.38126 7.59888C4.14463 7.59888 3.90799 7.59888 3.73897 7.56434C3.9756 4.87015 4.11082 3.17765 4.17843 2.52137C4.75312 2.41775 5.294 2.34867 5.80107 2.34867C7.72796 2.34867 8.6745 3.07402 8.6745 4.52474C8.6407 6.56265 7.22089 7.59888 4.38126 7.59888Z" fill="#F6F9FF"/>
<path d="M34.5355 7.32272C35.313 7.32272 35.4482 7.42634 36.2257 7.52996C37.1723 7.66813 37.7807 7.35726 37.8484 6.59736C37.916 6.04471 37.7131 5.63022 37.2399 5.45751C36.868 5.31935 36.4285 5.1121 34.7721 5.14664C33.4537 5.14664 32.3719 5.45751 31.493 6.07925C30.6141 6.70098 30.1746 7.63359 30.1746 8.87706C30.1746 9.6715 30.4789 10.3623 31.1212 10.9495C31.5606 11.364 32.2705 11.7439 33.1833 12.1584C34.2988 12.642 34.8735 13.1601 34.8735 13.7128C34.8735 14.4727 34.0622 14.8872 32.4057 14.8526C31.3578 14.8526 30.6817 14.4036 30.107 14.3691C29.4647 14.3345 28.9238 14.9217 28.9238 15.578C28.9238 16.1997 29.3971 16.6488 30.0056 16.7869C30.7831 16.9596 31.1212 17.0632 32.1691 17.0632C35.6848 17.0632 37.4427 15.7852 37.4427 13.2292C37.4427 11.813 36.4285 10.6732 34.434 9.87874C33.3185 9.42971 32.7438 8.94614 32.7438 8.42803C32.7438 7.70267 33.3523 7.32272 34.5355 7.32272Z" fill="#F6F9FF"/>
<path d="M45.3867 14.3345C45.3867 14.3345 45.0486 14.0927 44.4401 14.3345C44.0345 14.5072 43.6288 14.5763 43.2232 14.5763C42.7837 14.5763 42.4794 14.4382 42.3104 14.1273C42.1414 13.8164 42.0738 13.2638 42.0738 12.4348C42.0738 11.3295 42.2428 9.67151 42.5471 7.39182C43.2232 7.39182 44.1359 7.42636 45.2176 7.4609L45.5219 4.97396C44.3387 5.04304 43.426 5.07758 42.8175 5.07758C43.0541 3.316 43.1893 2.31431 43.3246 1.51987C43.3246 1.51987 43.5612 0.172777 42.04 0.207318C40.9582 0.241859 40.7892 1.58895 40.7892 1.58895C40.5526 3.316 40.3835 4.49039 40.2821 5.07758C39.8088 5.07758 39.268 5.04304 38.6933 5.0085L38.3552 7.4609C39.0313 7.42636 39.5722 7.39182 39.9441 7.39182C39.5722 10.2242 39.3694 12.1585 39.3694 13.1947C39.3694 14.5763 39.606 15.5435 40.0455 16.1307C40.5187 16.7178 41.2963 16.9942 42.378 16.9942C43.3922 16.9942 43.8654 16.8906 44.9472 16.0961C46.0966 15.3362 45.6233 14.4727 45.3867 14.3345Z" fill="#F6F9FF"/>
<path d="M55.6636 13.7128C55.6636 12.3657 55.8665 10.086 56.3059 6.90821C56.7116 4.24857 53.872 5.42295 53.872 5.42295C51.2014 5.49204 49.2407 6.28648 47.9561 7.77173C46.7053 9.25699 46.063 10.915 46.063 12.7802C46.063 14.0582 46.2996 15.0944 46.8067 15.8198C47.3138 16.5451 48.0237 16.9251 49.004 16.9251C50.6943 16.9251 51.9451 16.1306 52.7902 14.5417H52.9592C53.0944 15.3707 53.4325 16.9941 54.7509 16.9251C56.7116 16.8905 55.6974 14.8181 55.6636 13.7128ZM52.2155 13.1946C51.6408 14.2309 50.9985 14.749 50.3224 14.749C49.4435 14.749 48.9702 14.0236 48.9702 12.5729C48.9702 10.984 49.3421 9.70602 50.0858 8.77342C50.8295 7.84082 52.0127 7.35724 53.6353 7.3227C53.5677 8.35893 53.4663 9.32607 53.2973 10.2587C53.1621 11.1913 52.824 12.1584 52.2155 13.1946Z" fill="#F6F9FF"/>
</svg>
